<mxfile host="app.diagrams.net" agent="Mozilla/5.0 (Windows NT 10.0; Win64; x64) AppleWebKit/537.36 (KHTML, like Gecko) Chrome/138.0.0.0 Safari/537.36" version="28.0.6">
  <diagram id="C5RBs43oDa-KdzZeNtuy" name="Page-1">
    <mxGraphModel dx="2305" dy="411" grid="1" gridSize="10" guides="1" tooltips="1" connect="1" arrows="1" fold="1" page="1" pageScale="1" pageWidth="827" pageHeight="1169" math="0" shadow="0">
      <root>
        <mxCell id="WIyWlLk6GJQsqaUBKTNV-0" />
        <mxCell id="WIyWlLk6GJQsqaUBKTNV-1" parent="WIyWlLk6GJQsqaUBKTNV-0" />
        <mxCell id="M7CGMbNuYNeq0SnUNNgH-6" value="ทบทวนสัญลักษณ์" style="swimlane;fontFamily=Sarabun;fontSource=https%3A%2F%2Ffonts.googleapis.com%2Fcss%3Ffamily%3DSarabun;" parent="WIyWlLk6GJQsqaUBKTNV-1" vertex="1">
          <mxGeometry x="-720" y="20" width="640" height="290" as="geometry" />
        </mxCell>
        <mxCell id="M7CGMbNuYNeq0SnUNNgH-2" value="&lt;font data-font-src=&quot;https://fonts.googleapis.com/css?family=Sarabun&quot; face=&quot;Sarabun&quot;&gt;เริ่มต้น&lt;/font&gt;" style="ellipse;whiteSpace=wrap;html=1;" parent="M7CGMbNuYNeq0SnUNNgH-6" vertex="1">
          <mxGeometry x="20" y="40" width="130" height="30" as="geometry" />
        </mxCell>
        <mxCell id="M7CGMbNuYNeq0SnUNNgH-5" value="" style="endArrow=classic;html=1;rounded=0;" parent="M7CGMbNuYNeq0SnUNNgH-6" edge="1">
          <mxGeometry width="50" height="50" relative="1" as="geometry">
            <mxPoint x="84.5" y="70" as="sourcePoint" />
            <mxPoint x="84.5" y="120" as="targetPoint" />
          </mxGeometry>
        </mxCell>
        <mxCell id="M7CGMbNuYNeq0SnUNNgH-3" value="&lt;font face=&quot;Sarabun&quot;&gt;สิ้นสุด&lt;/font&gt;" style="ellipse;whiteSpace=wrap;html=1;" parent="M7CGMbNuYNeq0SnUNNgH-6" vertex="1">
          <mxGeometry x="150" y="90" width="130" height="30" as="geometry" />
        </mxCell>
        <mxCell id="M7CGMbNuYNeq0SnUNNgH-4" value="" style="endArrow=classic;html=1;rounded=0;" parent="M7CGMbNuYNeq0SnUNNgH-6" edge="1">
          <mxGeometry width="50" height="50" relative="1" as="geometry">
            <mxPoint x="214.5" y="40" as="sourcePoint" />
            <mxPoint x="214.5" y="90" as="targetPoint" />
          </mxGeometry>
        </mxCell>
        <mxCell id="mvioNwK95yMqdUQ73LqQ-0" value="กระบวนการ" style="rounded=0;whiteSpace=wrap;html=1;fontFamily=Sarabun;fontSource=https%3A%2F%2Ffonts.googleapis.com%2Fcss%3Ffamily%3DSarabun;" parent="M7CGMbNuYNeq0SnUNNgH-6" vertex="1">
          <mxGeometry x="320" y="70" width="120" height="30" as="geometry" />
        </mxCell>
        <mxCell id="mvioNwK95yMqdUQ73LqQ-1" value="" style="endArrow=classic;html=1;rounded=0;" parent="M7CGMbNuYNeq0SnUNNgH-6" edge="1">
          <mxGeometry width="50" height="50" relative="1" as="geometry">
            <mxPoint x="379" y="40" as="sourcePoint" />
            <mxPoint x="379.5" y="70" as="targetPoint" />
          </mxGeometry>
        </mxCell>
        <mxCell id="mvioNwK95yMqdUQ73LqQ-2" value="" style="endArrow=classic;html=1;rounded=0;" parent="M7CGMbNuYNeq0SnUNNgH-6" edge="1">
          <mxGeometry width="50" height="50" relative="1" as="geometry">
            <mxPoint x="379.75" y="100" as="sourcePoint" />
            <mxPoint x="380.25" y="130" as="targetPoint" />
          </mxGeometry>
        </mxCell>
        <mxCell id="mvioNwK95yMqdUQ73LqQ-3" value="ประโยคเงื่อนไข" style="rhombus;whiteSpace=wrap;html=1;fontFamily=Sarabun;fontSource=https%3A%2F%2Ffonts.googleapis.com%2Fcss%3Ffamily%3DSarabun;" parent="M7CGMbNuYNeq0SnUNNgH-6" vertex="1">
          <mxGeometry x="490" y="60" width="100" height="60" as="geometry" />
        </mxCell>
        <mxCell id="mvioNwK95yMqdUQ73LqQ-4" value="" style="endArrow=classic;html=1;rounded=0;" parent="M7CGMbNuYNeq0SnUNNgH-6" edge="1">
          <mxGeometry width="50" height="50" relative="1" as="geometry">
            <mxPoint x="539.71" y="30" as="sourcePoint" />
            <mxPoint x="540.21" y="60" as="targetPoint" />
          </mxGeometry>
        </mxCell>
        <mxCell id="mvioNwK95yMqdUQ73LqQ-5" value="" style="endArrow=classic;html=1;rounded=0;" parent="M7CGMbNuYNeq0SnUNNgH-6" edge="1">
          <mxGeometry width="50" height="50" relative="1" as="geometry">
            <mxPoint x="539.71" y="120" as="sourcePoint" />
            <mxPoint x="540" y="175" as="targetPoint" />
          </mxGeometry>
        </mxCell>
        <mxCell id="mvioNwK95yMqdUQ73LqQ-7" value="จริง" style="edgeLabel;html=1;align=center;verticalAlign=middle;resizable=0;points=[];fontFamily=Sarabun;fontSource=https%3A%2F%2Ffonts.googleapis.com%2Fcss%3Ffamily%3DSarabun;" parent="mvioNwK95yMqdUQ73LqQ-5" vertex="1" connectable="0">
          <mxGeometry x="-0.4142" y="-1" relative="1" as="geometry">
            <mxPoint as="offset" />
          </mxGeometry>
        </mxCell>
        <mxCell id="mvioNwK95yMqdUQ73LqQ-6" value="" style="endArrow=classic;html=1;rounded=0;exitX=1;exitY=0.5;exitDx=0;exitDy=0;" parent="M7CGMbNuYNeq0SnUNNgH-6" source="mvioNwK95yMqdUQ73LqQ-3" edge="1">
          <mxGeometry width="50" height="50" relative="1" as="geometry">
            <mxPoint x="620" y="95" as="sourcePoint" />
            <mxPoint x="610" y="175" as="targetPoint" />
            <Array as="points">
              <mxPoint x="610" y="90" />
            </Array>
          </mxGeometry>
        </mxCell>
        <mxCell id="mvioNwK95yMqdUQ73LqQ-8" value="&lt;font data-font-src=&quot;https://fonts.googleapis.com/css?family=Sarabun&quot; face=&quot;Sarabun&quot;&gt;เท็จ&lt;/font&gt;" style="edgeLabel;html=1;align=center;verticalAlign=middle;resizable=0;points=[];" parent="mvioNwK95yMqdUQ73LqQ-6" vertex="1" connectable="0">
          <mxGeometry x="-0.0019" y="-2" relative="1" as="geometry">
            <mxPoint as="offset" />
          </mxGeometry>
        </mxCell>
        <mxCell id="mvioNwK95yMqdUQ73LqQ-9" value="&lt;font data-font-src=&quot;https://fonts.googleapis.com/css?family=Sarabun&quot; face=&quot;Sarabun&quot;&gt;ฟังก์ชัน/โมดูล&lt;/font&gt;" style="shape=process;whiteSpace=wrap;html=1;backgroundOutline=1;" parent="M7CGMbNuYNeq0SnUNNgH-6" vertex="1">
          <mxGeometry x="25" y="180" width="120" height="30" as="geometry" />
        </mxCell>
        <mxCell id="mvioNwK95yMqdUQ73LqQ-11" value="" style="endArrow=classic;html=1;rounded=0;" parent="M7CGMbNuYNeq0SnUNNgH-6" edge="1">
          <mxGeometry width="50" height="50" relative="1" as="geometry">
            <mxPoint x="84.70999999999998" y="150" as="sourcePoint" />
            <mxPoint x="85.20999999999998" y="180" as="targetPoint" />
          </mxGeometry>
        </mxCell>
        <mxCell id="mvioNwK95yMqdUQ73LqQ-12" value="" style="endArrow=classic;html=1;rounded=0;" parent="M7CGMbNuYNeq0SnUNNgH-6" edge="1">
          <mxGeometry width="50" height="50" relative="1" as="geometry">
            <mxPoint x="84.70999999999998" y="210" as="sourcePoint" />
            <mxPoint x="85.20999999999998" y="240" as="targetPoint" />
          </mxGeometry>
        </mxCell>
        <mxCell id="mvioNwK95yMqdUQ73LqQ-13" value="" style="strokeWidth=2;html=1;shape=mxgraph.flowchart.start_2;whiteSpace=wrap;" parent="M7CGMbNuYNeq0SnUNNgH-6" vertex="1">
          <mxGeometry x="205" y="185" width="20" height="20" as="geometry" />
        </mxCell>
        <mxCell id="mvioNwK95yMqdUQ73LqQ-16" value="" style="endArrow=classic;html=1;rounded=0;" parent="M7CGMbNuYNeq0SnUNNgH-6" edge="1">
          <mxGeometry width="50" height="50" relative="1" as="geometry">
            <mxPoint x="214.70999999999998" y="155" as="sourcePoint" />
            <mxPoint x="215.20999999999998" y="185" as="targetPoint" />
          </mxGeometry>
        </mxCell>
        <mxCell id="mvioNwK95yMqdUQ73LqQ-17" value="" style="endArrow=classic;html=1;rounded=0;entryX=0;entryY=0.5;entryDx=0;entryDy=0;entryPerimeter=0;" parent="M7CGMbNuYNeq0SnUNNgH-6" target="mvioNwK95yMqdUQ73LqQ-13" edge="1">
          <mxGeometry width="50" height="50" relative="1" as="geometry">
            <mxPoint x="189.99999999999997" y="155" as="sourcePoint" />
            <mxPoint x="190.49999999999997" y="185" as="targetPoint" />
            <Array as="points">
              <mxPoint x="190" y="180" />
            </Array>
          </mxGeometry>
        </mxCell>
        <mxCell id="mvioNwK95yMqdUQ73LqQ-18" value="" style="endArrow=classic;html=1;rounded=0;entryX=1;entryY=0.5;entryDx=0;entryDy=0;entryPerimeter=0;" parent="M7CGMbNuYNeq0SnUNNgH-6" target="mvioNwK95yMqdUQ73LqQ-13" edge="1">
          <mxGeometry width="50" height="50" relative="1" as="geometry">
            <mxPoint x="239.99999999999997" y="155" as="sourcePoint" />
            <mxPoint x="240.49999999999997" y="185" as="targetPoint" />
            <Array as="points">
              <mxPoint x="240" y="180" />
            </Array>
          </mxGeometry>
        </mxCell>
        <mxCell id="mvioNwK95yMqdUQ73LqQ-19" value="" style="endArrow=classic;html=1;rounded=0;" parent="M7CGMbNuYNeq0SnUNNgH-6" edge="1">
          <mxGeometry width="50" height="50" relative="1" as="geometry">
            <mxPoint x="214.70999999999998" y="205" as="sourcePoint" />
            <mxPoint x="215.20999999999998" y="235" as="targetPoint" />
          </mxGeometry>
        </mxCell>
        <mxCell id="mvioNwK95yMqdUQ73LqQ-20" value="&lt;font data-font-src=&quot;https://fonts.googleapis.com/css?family=Sarabun&quot; face=&quot;Sarabun&quot;&gt;ตัวเชื่อม&lt;/font&gt;" style="text;html=1;align=center;verticalAlign=middle;resizable=0;points=[];autosize=1;strokeColor=none;fillColor=none;" parent="M7CGMbNuYNeq0SnUNNgH-6" vertex="1">
          <mxGeometry x="220" y="190" width="60" height="30" as="geometry" />
        </mxCell>
        <mxCell id="mvioNwK95yMqdUQ73LqQ-25" value="" style="endArrow=classic;html=1;rounded=0;" parent="M7CGMbNuYNeq0SnUNNgH-6" edge="1">
          <mxGeometry width="50" height="50" relative="1" as="geometry">
            <mxPoint x="353.71" y="165" as="sourcePoint" />
            <mxPoint x="354.21" y="195" as="targetPoint" />
          </mxGeometry>
        </mxCell>
        <mxCell id="mvioNwK95yMqdUQ73LqQ-21" value="" style="verticalLabelPosition=bottom;verticalAlign=top;html=1;shape=offPageConnector;rounded=0;size=0.5;" parent="M7CGMbNuYNeq0SnUNNgH-6" vertex="1">
          <mxGeometry x="339" y="195" width="30" height="30" as="geometry" />
        </mxCell>
        <mxCell id="mvioNwK95yMqdUQ73LqQ-26" value="" style="endArrow=classic;html=1;rounded=0;" parent="M7CGMbNuYNeq0SnUNNgH-6" edge="1">
          <mxGeometry width="50" height="50" relative="1" as="geometry">
            <mxPoint x="405.71" y="195" as="sourcePoint" />
            <mxPoint x="406.21" y="225" as="targetPoint" />
          </mxGeometry>
        </mxCell>
        <mxCell id="mvioNwK95yMqdUQ73LqQ-27" value="" style="verticalLabelPosition=bottom;verticalAlign=top;html=1;shape=offPageConnector;rounded=0;size=0.5;" parent="M7CGMbNuYNeq0SnUNNgH-6" vertex="1">
          <mxGeometry x="391" y="165" width="30" height="30" as="geometry" />
        </mxCell>
        <mxCell id="mvioNwK95yMqdUQ73LqQ-28" value="หน้าต่อไป" style="text;html=1;align=center;verticalAlign=middle;resizable=0;points=[];autosize=1;strokeColor=none;fillColor=none;fontFamily=Sarabun;fontSource=https%3A%2F%2Ffonts.googleapis.com%2Fcss%3Ffamily%3DSarabun;" parent="M7CGMbNuYNeq0SnUNNgH-6" vertex="1">
          <mxGeometry x="345" y="220" width="70" height="30" as="geometry" />
        </mxCell>
        <mxCell id="mvioNwK95yMqdUQ73LqQ-29" value="ก" style="text;html=1;align=center;verticalAlign=middle;resizable=0;points=[];autosize=1;strokeColor=none;fillColor=none;fontFamily=Sarabun;fontSource=https%3A%2F%2Ffonts.googleapis.com%2Fcss%3Ffamily%3DSarabun;" parent="M7CGMbNuYNeq0SnUNNgH-6" vertex="1">
          <mxGeometry x="339" y="190" width="30" height="30" as="geometry" />
        </mxCell>
        <mxCell id="mvioNwK95yMqdUQ73LqQ-30" value="ก" style="text;html=1;align=center;verticalAlign=middle;resizable=0;points=[];autosize=1;strokeColor=none;fillColor=none;fontFamily=Sarabun;fontSource=https%3A%2F%2Ffonts.googleapis.com%2Fcss%3Ffamily%3DSarabun;" parent="M7CGMbNuYNeq0SnUNNgH-6" vertex="1">
          <mxGeometry x="391" y="160" width="30" height="30" as="geometry" />
        </mxCell>
        <mxCell id="mvioNwK95yMqdUQ73LqQ-32" value="แสดงผล/รับค่า" style="shape=parallelogram;perimeter=parallelogramPerimeter;whiteSpace=wrap;html=1;fixedSize=1;fontFamily=Sarabun;fontSource=https%3A%2F%2Ffonts.googleapis.com%2Fcss%3Ffamily%3DSarabun;" parent="M7CGMbNuYNeq0SnUNNgH-6" vertex="1">
          <mxGeometry x="450" y="210" width="120" height="30" as="geometry" />
        </mxCell>
        <mxCell id="mvioNwK95yMqdUQ73LqQ-33" value="" style="endArrow=classic;html=1;rounded=0;" parent="M7CGMbNuYNeq0SnUNNgH-6" edge="1">
          <mxGeometry width="50" height="50" relative="1" as="geometry">
            <mxPoint x="509.71" y="180" as="sourcePoint" />
            <mxPoint x="510.21" y="210" as="targetPoint" />
          </mxGeometry>
        </mxCell>
        <mxCell id="mvioNwK95yMqdUQ73LqQ-34" value="" style="endArrow=classic;html=1;rounded=0;" parent="M7CGMbNuYNeq0SnUNNgH-6" edge="1">
          <mxGeometry width="50" height="50" relative="1" as="geometry">
            <mxPoint x="509.71" y="240" as="sourcePoint" />
            <mxPoint x="510.21" y="270" as="targetPoint" />
          </mxGeometry>
        </mxCell>
        <mxCell id="mvioNwK95yMqdUQ73LqQ-70" value="&lt;font data-font-src=&quot;https://fonts.googleapis.com/css?family=Sarabun&quot; face=&quot;Sarabun&quot;&gt;โจทย์ปัญหา&lt;/font&gt;" style="swimlane;whiteSpace=wrap;html=1;" parent="WIyWlLk6GJQsqaUBKTNV-1" vertex="1">
          <mxGeometry x="-720" y="320" width="640" height="270" as="geometry" />
        </mxCell>
        <mxCell id="mvioNwK95yMqdUQ73LqQ-71" value="&lt;font data-font-src=&quot;https://fonts.googleapis.com/css?family=Sarabun&quot; face=&quot;Sarabun&quot; style=&quot;font-size: 14px;&quot;&gt;จงเขียน Flowchart เพื่อแสดงขั้นตอนการทำงาน ของเครื่องขายน้ำอัตโนมัติที่ชื่อว่า &quot;ตะพาบลอย&quot;&lt;br&gt;โดยจะต้องมีสินค้าดังนี้&lt;br&gt;&lt;u&gt;ประเภทน้ำ&lt;span style=&quot;white-space: pre;&quot;&gt;&#x9;&lt;/span&gt;&lt;span style=&quot;white-space: pre;&quot;&gt;&#x9;&lt;/span&gt;&lt;span style=&quot;white-space: pre;&quot;&gt;&#x9;&lt;/span&gt;&lt;span style=&quot;white-space: pre;&quot;&gt;&#x9;&lt;/span&gt;&lt;span style=&quot;white-space: pre;&quot;&gt;&#x9;&lt;/span&gt;&lt;span style=&quot;white-space: pre;&quot;&gt;&#x9;&lt;span style=&quot;white-space: pre;&quot;&gt;&#x9;&lt;/span&gt;ข&lt;/span&gt;นม&lt;/u&gt;&lt;br&gt;&lt;span style=&quot;white-space: pre;&quot;&gt;&#x9;&lt;/span&gt;- โค้ก กระป๋องละ 10 บาท&lt;span style=&quot;white-space: pre;&quot;&gt;&#x9;&lt;/span&gt;&lt;span style=&quot;white-space: pre;&quot;&gt;&#x9;&lt;/span&gt;&lt;span style=&quot;white-space: pre;&quot;&gt;&#x9;&lt;/span&gt;&lt;span style=&quot;white-space: pre;&quot;&gt;&#x9;&lt;/span&gt;- เมล็ดทานตะวัน 13 บาท&lt;br&gt;&lt;span style=&quot;white-space: pre;&quot;&gt;&#x9;&lt;/span&gt;- น้ำเขียว กระป๋องละ 12 บาท&lt;span style=&quot;white-space: pre;&quot;&gt;&#x9;&lt;/span&gt;&lt;span style=&quot;white-space: pre;&quot;&gt;&#x9;&lt;/span&gt;&lt;span style=&quot;white-space: pre;&quot;&gt;&#x9;&lt;/span&gt;- ถั่วแปบ 20 บาท&lt;br&gt;&lt;span style=&quot;white-space: pre;&quot;&gt;&#x9;&lt;/span&gt;- อเมริกาโน่ 30 บาท&lt;span style=&quot;white-space: pre;&quot;&gt;&#x9;&lt;/span&gt;&lt;span style=&quot;white-space: pre;&quot;&gt;&#x9;&lt;/span&gt;&lt;span style=&quot;white-space: pre;&quot;&gt;&#x9;&lt;/span&gt;&lt;span style=&quot;white-space: pre;&quot;&gt;&#x9;&lt;/span&gt;&lt;span style=&quot;white-space: pre;&quot;&gt;&#x9;&lt;/span&gt;- จิ้นส้มหมก 15 บาท&lt;br&gt;&lt;span style=&quot;white-space: pre;&quot;&gt;&#x9;&lt;/span&gt;- ลาเต้ หวานเจี๊ยบ 35 บาท&lt;span style=&quot;white-space: pre;&quot;&gt;&#x9;&lt;/span&gt;&lt;br&gt;&lt;br&gt;&lt;u&gt;สิ่งที่ระบบควรจะทำได้&lt;/u&gt;&lt;br&gt;&lt;span style=&quot;white-space: pre;&quot;&gt;&#x9;&lt;/span&gt;- ลูกค้าเลือกสินค้า, ระบบจะต้องรวมยอดขาย และรวมรายการสินค้าทั้งหมดที่ลูกค้าเลือก&lt;br&gt;&lt;span style=&quot;white-space: pre;&quot;&gt;&#x9;&lt;/span&gt;- สรุปยอดว่าเหลือเงินในตู้อีกเท่าไหร่ เหลือเหรียญอะไรบ้าง? ธนบัตรอะไรบ้าง? อย่างละเท่าไหร่?&lt;br&gt;&lt;br&gt;&lt;br&gt;&lt;/font&gt;" style="text;html=1;align=left;verticalAlign=middle;resizable=0;points=[];autosize=1;strokeColor=none;fillColor=none;fontSize=14;" parent="mvioNwK95yMqdUQ73LqQ-70" vertex="1">
          <mxGeometry x="25" y="30" width="580" height="240" as="geometry" />
        </mxCell>
        <mxCell id="MSBUPBAipDb2ATlnMfmg-142" style="edgeStyle=orthogonalEdgeStyle;rounded=0;orthogonalLoop=1;jettySize=auto;html=1;exitX=0.5;exitY=1;exitDx=0;exitDy=0;entryX=0.5;entryY=0;entryDx=0;entryDy=0;" parent="WIyWlLk6GJQsqaUBKTNV-1" source="MSBUPBAipDb2ATlnMfmg-143" target="MSBUPBAipDb2ATlnMfmg-145" edge="1">
          <mxGeometry relative="1" as="geometry" />
        </mxCell>
        <mxCell id="MSBUPBAipDb2ATlnMfmg-143" value="เงินทอน-50" style="rounded=0;whiteSpace=wrap;html=1;" parent="WIyWlLk6GJQsqaUBKTNV-1" vertex="1">
          <mxGeometry x="659.51" y="946" width="120" height="60" as="geometry" />
        </mxCell>
        <mxCell id="MSBUPBAipDb2ATlnMfmg-144" style="edgeStyle=orthogonalEdgeStyle;rounded=0;orthogonalLoop=1;jettySize=auto;html=1;exitX=0.5;exitY=1;exitDx=0;exitDy=0;entryX=0.5;entryY=0;entryDx=0;entryDy=0;" parent="WIyWlLk6GJQsqaUBKTNV-1" source="MSBUPBAipDb2ATlnMfmg-145" target="MSBUPBAipDb2ATlnMfmg-147" edge="1">
          <mxGeometry relative="1" as="geometry" />
        </mxCell>
        <mxCell id="MSBUPBAipDb2ATlnMfmg-145" value="d=d+1" style="rounded=0;whiteSpace=wrap;html=1;" parent="WIyWlLk6GJQsqaUBKTNV-1" vertex="1">
          <mxGeometry x="659.51" y="1036" width="120" height="60" as="geometry" />
        </mxCell>
        <mxCell id="6EujANAd5X0Nz6XeVnfX-137" value="เท็จ" style="edgeStyle=orthogonalEdgeStyle;rounded=0;orthogonalLoop=1;jettySize=auto;html=1;exitX=0.5;exitY=1;exitDx=0;exitDy=0;entryX=0.5;entryY=0;entryDx=0;entryDy=0;" edge="1" parent="WIyWlLk6GJQsqaUBKTNV-1" source="MSBUPBAipDb2ATlnMfmg-147" target="6EujANAd5X0Nz6XeVnfX-130">
          <mxGeometry relative="1" as="geometry" />
        </mxCell>
        <mxCell id="MSBUPBAipDb2ATlnMfmg-147" value="เงินทอน&amp;gt;50" style="rhombus;whiteSpace=wrap;html=1;" parent="WIyWlLk6GJQsqaUBKTNV-1" vertex="1">
          <mxGeometry x="679.51" y="1126" width="80" height="80" as="geometry" />
        </mxCell>
        <mxCell id="MSBUPBAipDb2ATlnMfmg-148" value="จริง" style="edgeStyle=orthogonalEdgeStyle;rounded=0;orthogonalLoop=1;jettySize=auto;html=1;exitX=0;exitY=0.5;exitDx=0;exitDy=0;" parent="WIyWlLk6GJQsqaUBKTNV-1" source="MSBUPBAipDb2ATlnMfmg-149" edge="1">
          <mxGeometry relative="1" as="geometry">
            <mxPoint x="780.01" y="975.8000000000002" as="targetPoint" />
          </mxGeometry>
        </mxCell>
        <mxCell id="MSBUPBAipDb2ATlnMfmg-149" value="เงินทอน&amp;gt;50" style="rhombus;whiteSpace=wrap;html=1;" parent="WIyWlLk6GJQsqaUBKTNV-1" vertex="1">
          <mxGeometry x="819.51" y="936" width="80" height="80" as="geometry" />
        </mxCell>
        <mxCell id="MSBUPBAipDb2ATlnMfmg-150" style="edgeStyle=orthogonalEdgeStyle;rounded=0;orthogonalLoop=1;jettySize=auto;html=1;exitX=0.5;exitY=1;exitDx=0;exitDy=0;entryX=0.5;entryY=0;entryDx=0;entryDy=0;" parent="WIyWlLk6GJQsqaUBKTNV-1" source="MSBUPBAipDb2ATlnMfmg-151" target="MSBUPBAipDb2ATlnMfmg-149" edge="1">
          <mxGeometry relative="1" as="geometry" />
        </mxCell>
        <mxCell id="MSBUPBAipDb2ATlnMfmg-151" value="" style="ellipse;whiteSpace=wrap;html=1;aspect=fixed;" parent="WIyWlLk6GJQsqaUBKTNV-1" vertex="1">
          <mxGeometry x="849.51" y="886" width="20" height="20" as="geometry" />
        </mxCell>
        <mxCell id="MSBUPBAipDb2ATlnMfmg-152" value="จริง" style="edgeStyle=orthogonalEdgeStyle;rounded=0;orthogonalLoop=1;jettySize=auto;html=1;exitX=0;exitY=0.5;exitDx=0;exitDy=0;entryX=0;entryY=0.5;entryDx=0;entryDy=0;" parent="WIyWlLk6GJQsqaUBKTNV-1" source="MSBUPBAipDb2ATlnMfmg-147" target="MSBUPBAipDb2ATlnMfmg-151" edge="1">
          <mxGeometry relative="1" as="geometry">
            <mxPoint x="876.01" y="896" as="targetPoint" />
            <Array as="points">
              <mxPoint x="640.01" y="1166" />
              <mxPoint x="640.01" y="896" />
            </Array>
          </mxGeometry>
        </mxCell>
        <mxCell id="MSBUPBAipDb2ATlnMfmg-153" value="จริง" style="edgeStyle=orthogonalEdgeStyle;rounded=0;orthogonalLoop=1;jettySize=auto;html=1;exitX=0;exitY=0.5;exitDx=0;exitDy=0;entryX=1;entryY=0.5;entryDx=0;entryDy=0;" parent="WIyWlLk6GJQsqaUBKTNV-1" source="MSBUPBAipDb2ATlnMfmg-155" target="MSBUPBAipDb2ATlnMfmg-157" edge="1">
          <mxGeometry relative="1" as="geometry" />
        </mxCell>
        <mxCell id="MSBUPBAipDb2ATlnMfmg-154" value="เท็จ" style="edgeStyle=orthogonalEdgeStyle;rounded=0;orthogonalLoop=1;jettySize=auto;html=1;exitX=1;exitY=0.5;exitDx=0;exitDy=0;entryX=0.5;entryY=0;entryDx=0;entryDy=0;" parent="WIyWlLk6GJQsqaUBKTNV-1" source="MSBUPBAipDb2ATlnMfmg-155" target="MSBUPBAipDb2ATlnMfmg-176" edge="1">
          <mxGeometry relative="1" as="geometry">
            <mxPoint x="1186.01" y="1126" as="targetPoint" />
          </mxGeometry>
        </mxCell>
        <mxCell id="MSBUPBAipDb2ATlnMfmg-155" value="เงินทอน&amp;gt;20" style="rhombus;whiteSpace=wrap;html=1;" parent="WIyWlLk6GJQsqaUBKTNV-1" vertex="1">
          <mxGeometry x="979.51" y="1086" width="80" height="80" as="geometry" />
        </mxCell>
        <mxCell id="MSBUPBAipDb2ATlnMfmg-156" style="edgeStyle=orthogonalEdgeStyle;rounded=0;orthogonalLoop=1;jettySize=auto;html=1;exitX=0.5;exitY=1;exitDx=0;exitDy=0;entryX=0.5;entryY=0;entryDx=0;entryDy=0;" parent="WIyWlLk6GJQsqaUBKTNV-1" source="MSBUPBAipDb2ATlnMfmg-157" target="MSBUPBAipDb2ATlnMfmg-162" edge="1">
          <mxGeometry relative="1" as="geometry" />
        </mxCell>
        <mxCell id="MSBUPBAipDb2ATlnMfmg-157" value="เงินทอน-20" style="rounded=0;whiteSpace=wrap;html=1;" parent="WIyWlLk6GJQsqaUBKTNV-1" vertex="1">
          <mxGeometry x="819.51" y="1096" width="120" height="60" as="geometry" />
        </mxCell>
        <mxCell id="MSBUPBAipDb2ATlnMfmg-158" value="จริง" style="edgeStyle=orthogonalEdgeStyle;rounded=0;orthogonalLoop=1;jettySize=auto;html=1;exitX=0;exitY=0.5;exitDx=0;exitDy=0;entryX=0;entryY=0.5;entryDx=0;entryDy=0;" parent="WIyWlLk6GJQsqaUBKTNV-1" source="MSBUPBAipDb2ATlnMfmg-160" target="MSBUPBAipDb2ATlnMfmg-164" edge="1">
          <mxGeometry relative="1" as="geometry">
            <mxPoint x="1036.01" y="1046" as="targetPoint" />
            <Array as="points">
              <mxPoint x="800.01" y="1316" />
              <mxPoint x="800.01" y="1046" />
            </Array>
          </mxGeometry>
        </mxCell>
        <mxCell id="6EujANAd5X0Nz6XeVnfX-122" value="เท็จ" style="edgeStyle=orthogonalEdgeStyle;rounded=0;orthogonalLoop=1;jettySize=auto;html=1;exitX=0.5;exitY=1;exitDx=0;exitDy=0;" edge="1" parent="WIyWlLk6GJQsqaUBKTNV-1" source="MSBUPBAipDb2ATlnMfmg-160" target="6EujANAd5X0Nz6XeVnfX-121">
          <mxGeometry relative="1" as="geometry" />
        </mxCell>
        <mxCell id="MSBUPBAipDb2ATlnMfmg-160" value="เงินทอน&amp;gt;20" style="rhombus;whiteSpace=wrap;html=1;" parent="WIyWlLk6GJQsqaUBKTNV-1" vertex="1">
          <mxGeometry x="839.51" y="1276" width="80" height="80" as="geometry" />
        </mxCell>
        <mxCell id="MSBUPBAipDb2ATlnMfmg-161" style="edgeStyle=orthogonalEdgeStyle;rounded=0;orthogonalLoop=1;jettySize=auto;html=1;exitX=0.5;exitY=1;exitDx=0;exitDy=0;entryX=0.5;entryY=0;entryDx=0;entryDy=0;" parent="WIyWlLk6GJQsqaUBKTNV-1" source="MSBUPBAipDb2ATlnMfmg-162" target="MSBUPBAipDb2ATlnMfmg-160" edge="1">
          <mxGeometry relative="1" as="geometry" />
        </mxCell>
        <mxCell id="MSBUPBAipDb2ATlnMfmg-162" value="e=e+1" style="rounded=0;whiteSpace=wrap;html=1;" parent="WIyWlLk6GJQsqaUBKTNV-1" vertex="1">
          <mxGeometry x="819.51" y="1186" width="120" height="60" as="geometry" />
        </mxCell>
        <mxCell id="MSBUPBAipDb2ATlnMfmg-163" style="edgeStyle=orthogonalEdgeStyle;rounded=0;orthogonalLoop=1;jettySize=auto;html=1;exitX=0.5;exitY=1;exitDx=0;exitDy=0;entryX=0.5;entryY=0;entryDx=0;entryDy=0;" parent="WIyWlLk6GJQsqaUBKTNV-1" source="MSBUPBAipDb2ATlnMfmg-164" target="MSBUPBAipDb2ATlnMfmg-155" edge="1">
          <mxGeometry relative="1" as="geometry" />
        </mxCell>
        <mxCell id="MSBUPBAipDb2ATlnMfmg-164" value="" style="ellipse;whiteSpace=wrap;html=1;aspect=fixed;" parent="WIyWlLk6GJQsqaUBKTNV-1" vertex="1">
          <mxGeometry x="1009.51" y="1036" width="20" height="20" as="geometry" />
        </mxCell>
        <mxCell id="MSBUPBAipDb2ATlnMfmg-165" value="จริง" style="edgeStyle=orthogonalEdgeStyle;rounded=0;orthogonalLoop=1;jettySize=auto;html=1;exitX=0;exitY=0.5;exitDx=0;exitDy=0;entryX=1;entryY=0.5;entryDx=0;entryDy=0;" parent="WIyWlLk6GJQsqaUBKTNV-1" source="MSBUPBAipDb2ATlnMfmg-167" target="MSBUPBAipDb2ATlnMfmg-169" edge="1">
          <mxGeometry relative="1" as="geometry" />
        </mxCell>
        <mxCell id="6EujANAd5X0Nz6XeVnfX-117" value="เท็จ" style="edgeStyle=orthogonalEdgeStyle;rounded=0;orthogonalLoop=1;jettySize=auto;html=1;exitX=1;exitY=0.5;exitDx=0;exitDy=0;entryX=0.5;entryY=0;entryDx=0;entryDy=0;" edge="1" parent="WIyWlLk6GJQsqaUBKTNV-1" source="MSBUPBAipDb2ATlnMfmg-167" target="MSBUPBAipDb2ATlnMfmg-194">
          <mxGeometry relative="1" as="geometry" />
        </mxCell>
        <mxCell id="MSBUPBAipDb2ATlnMfmg-167" value="เงินทอน&amp;gt;10" style="rhombus;whiteSpace=wrap;html=1;" parent="WIyWlLk6GJQsqaUBKTNV-1" vertex="1">
          <mxGeometry x="1145.51" y="1236" width="80" height="80" as="geometry" />
        </mxCell>
        <mxCell id="MSBUPBAipDb2ATlnMfmg-168" style="edgeStyle=orthogonalEdgeStyle;rounded=0;orthogonalLoop=1;jettySize=auto;html=1;exitX=0.5;exitY=1;exitDx=0;exitDy=0;entryX=0.5;entryY=0;entryDx=0;entryDy=0;" parent="WIyWlLk6GJQsqaUBKTNV-1" source="MSBUPBAipDb2ATlnMfmg-169" target="MSBUPBAipDb2ATlnMfmg-174" edge="1">
          <mxGeometry relative="1" as="geometry" />
        </mxCell>
        <mxCell id="MSBUPBAipDb2ATlnMfmg-169" value="เงินทอน-10" style="rounded=0;whiteSpace=wrap;html=1;" parent="WIyWlLk6GJQsqaUBKTNV-1" vertex="1">
          <mxGeometry x="985.51" y="1246" width="120" height="60" as="geometry" />
        </mxCell>
        <mxCell id="MSBUPBAipDb2ATlnMfmg-170" value="จริง" style="edgeStyle=orthogonalEdgeStyle;rounded=0;orthogonalLoop=1;jettySize=auto;html=1;exitX=0;exitY=0.5;exitDx=0;exitDy=0;entryX=0;entryY=0.5;entryDx=0;entryDy=0;" parent="WIyWlLk6GJQsqaUBKTNV-1" source="MSBUPBAipDb2ATlnMfmg-172" target="MSBUPBAipDb2ATlnMfmg-176" edge="1">
          <mxGeometry relative="1" as="geometry">
            <mxPoint x="1202.01" y="1196" as="targetPoint" />
            <Array as="points">
              <mxPoint x="966.01" y="1466" />
              <mxPoint x="966.01" y="1196" />
            </Array>
          </mxGeometry>
        </mxCell>
        <mxCell id="6EujANAd5X0Nz6XeVnfX-123" value="เท็จ" style="edgeStyle=orthogonalEdgeStyle;rounded=0;orthogonalLoop=1;jettySize=auto;html=1;exitX=0.5;exitY=1;exitDx=0;exitDy=0;entryX=0.5;entryY=0;entryDx=0;entryDy=0;" edge="1" parent="WIyWlLk6GJQsqaUBKTNV-1" source="MSBUPBAipDb2ATlnMfmg-172" target="6EujANAd5X0Nz6XeVnfX-120">
          <mxGeometry relative="1" as="geometry" />
        </mxCell>
        <mxCell id="MSBUPBAipDb2ATlnMfmg-172" value="เงินทอน&amp;gt;10" style="rhombus;whiteSpace=wrap;html=1;" parent="WIyWlLk6GJQsqaUBKTNV-1" vertex="1">
          <mxGeometry x="1005.51" y="1426" width="80" height="80" as="geometry" />
        </mxCell>
        <mxCell id="MSBUPBAipDb2ATlnMfmg-173" style="edgeStyle=orthogonalEdgeStyle;rounded=0;orthogonalLoop=1;jettySize=auto;html=1;exitX=0.5;exitY=1;exitDx=0;exitDy=0;entryX=0.5;entryY=0;entryDx=0;entryDy=0;" parent="WIyWlLk6GJQsqaUBKTNV-1" source="MSBUPBAipDb2ATlnMfmg-174" target="MSBUPBAipDb2ATlnMfmg-172" edge="1">
          <mxGeometry relative="1" as="geometry" />
        </mxCell>
        <mxCell id="MSBUPBAipDb2ATlnMfmg-174" value="f=f+1" style="rounded=0;whiteSpace=wrap;html=1;" parent="WIyWlLk6GJQsqaUBKTNV-1" vertex="1">
          <mxGeometry x="985.51" y="1336" width="120" height="60" as="geometry" />
        </mxCell>
        <mxCell id="MSBUPBAipDb2ATlnMfmg-175" style="edgeStyle=orthogonalEdgeStyle;rounded=0;orthogonalLoop=1;jettySize=auto;html=1;exitX=0.5;exitY=1;exitDx=0;exitDy=0;entryX=0.5;entryY=0;entryDx=0;entryDy=0;" parent="WIyWlLk6GJQsqaUBKTNV-1" source="MSBUPBAipDb2ATlnMfmg-176" target="MSBUPBAipDb2ATlnMfmg-167" edge="1">
          <mxGeometry relative="1" as="geometry" />
        </mxCell>
        <mxCell id="MSBUPBAipDb2ATlnMfmg-176" value="" style="ellipse;whiteSpace=wrap;html=1;aspect=fixed;" parent="WIyWlLk6GJQsqaUBKTNV-1" vertex="1">
          <mxGeometry x="1175.51" y="1186" width="20" height="20" as="geometry" />
        </mxCell>
        <mxCell id="MSBUPBAipDb2ATlnMfmg-177" value="เท็จ" style="edgeStyle=orthogonalEdgeStyle;rounded=0;orthogonalLoop=1;jettySize=auto;html=1;exitX=1;exitY=0.5;exitDx=0;exitDy=0;entryX=0.5;entryY=0;entryDx=0;entryDy=0;" parent="WIyWlLk6GJQsqaUBKTNV-1" target="MSBUPBAipDb2ATlnMfmg-164" edge="1">
          <mxGeometry relative="1" as="geometry">
            <mxPoint x="1016.01" y="976" as="targetPoint" />
            <mxPoint x="897.01" y="976" as="sourcePoint" />
          </mxGeometry>
        </mxCell>
        <mxCell id="MSBUPBAipDb2ATlnMfmg-185" style="edgeStyle=orthogonalEdgeStyle;rounded=0;orthogonalLoop=1;jettySize=auto;html=1;exitX=0.5;exitY=1;exitDx=0;exitDy=0;entryX=0.5;entryY=0;entryDx=0;entryDy=0;" parent="WIyWlLk6GJQsqaUBKTNV-1" source="MSBUPBAipDb2ATlnMfmg-186" target="MSBUPBAipDb2ATlnMfmg-188" edge="1">
          <mxGeometry relative="1" as="geometry" />
        </mxCell>
        <mxCell id="MSBUPBAipDb2ATlnMfmg-186" value="เงินทอน-5" style="rounded=0;whiteSpace=wrap;html=1;" parent="WIyWlLk6GJQsqaUBKTNV-1" vertex="1">
          <mxGeometry x="1149.52" y="1406" width="120" height="60" as="geometry" />
        </mxCell>
        <mxCell id="MSBUPBAipDb2ATlnMfmg-187" style="edgeStyle=orthogonalEdgeStyle;rounded=0;orthogonalLoop=1;jettySize=auto;html=1;exitX=0.5;exitY=1;exitDx=0;exitDy=0;entryX=0.5;entryY=0;entryDx=0;entryDy=0;" parent="WIyWlLk6GJQsqaUBKTNV-1" source="MSBUPBAipDb2ATlnMfmg-188" target="MSBUPBAipDb2ATlnMfmg-190" edge="1">
          <mxGeometry relative="1" as="geometry" />
        </mxCell>
        <mxCell id="MSBUPBAipDb2ATlnMfmg-188" value="g=g+1" style="rounded=0;whiteSpace=wrap;html=1;" parent="WIyWlLk6GJQsqaUBKTNV-1" vertex="1">
          <mxGeometry x="1149.52" y="1496" width="120" height="60" as="geometry" />
        </mxCell>
        <mxCell id="6EujANAd5X0Nz6XeVnfX-124" value="เท็จ" style="edgeStyle=orthogonalEdgeStyle;rounded=0;orthogonalLoop=1;jettySize=auto;html=1;exitX=0.5;exitY=1;exitDx=0;exitDy=0;entryX=0.5;entryY=0;entryDx=0;entryDy=0;" edge="1" parent="WIyWlLk6GJQsqaUBKTNV-1" source="MSBUPBAipDb2ATlnMfmg-190" target="6EujANAd5X0Nz6XeVnfX-119">
          <mxGeometry relative="1" as="geometry" />
        </mxCell>
        <mxCell id="MSBUPBAipDb2ATlnMfmg-190" value="เงินทอน&amp;gt;5" style="rhombus;whiteSpace=wrap;html=1;" parent="WIyWlLk6GJQsqaUBKTNV-1" vertex="1">
          <mxGeometry x="1169.52" y="1586" width="80" height="80" as="geometry" />
        </mxCell>
        <mxCell id="MSBUPBAipDb2ATlnMfmg-191" value="จริง" style="edgeStyle=orthogonalEdgeStyle;rounded=0;orthogonalLoop=1;jettySize=auto;html=1;exitX=0;exitY=0.5;exitDx=0;exitDy=0;entryX=1;entryY=0.5;entryDx=0;entryDy=0;" parent="WIyWlLk6GJQsqaUBKTNV-1" source="MSBUPBAipDb2ATlnMfmg-192" target="MSBUPBAipDb2ATlnMfmg-186" edge="1">
          <mxGeometry relative="1" as="geometry" />
        </mxCell>
        <mxCell id="MSBUPBAipDb2ATlnMfmg-192" value="เงินทอน&amp;gt;5" style="rhombus;whiteSpace=wrap;html=1;" parent="WIyWlLk6GJQsqaUBKTNV-1" vertex="1">
          <mxGeometry x="1309.52" y="1396" width="80" height="80" as="geometry" />
        </mxCell>
        <mxCell id="MSBUPBAipDb2ATlnMfmg-193" style="edgeStyle=orthogonalEdgeStyle;rounded=0;orthogonalLoop=1;jettySize=auto;html=1;exitX=0.5;exitY=1;exitDx=0;exitDy=0;entryX=0.5;entryY=0;entryDx=0;entryDy=0;" parent="WIyWlLk6GJQsqaUBKTNV-1" source="MSBUPBAipDb2ATlnMfmg-194" target="MSBUPBAipDb2ATlnMfmg-192" edge="1">
          <mxGeometry relative="1" as="geometry" />
        </mxCell>
        <mxCell id="MSBUPBAipDb2ATlnMfmg-194" value="" style="ellipse;whiteSpace=wrap;html=1;aspect=fixed;" parent="WIyWlLk6GJQsqaUBKTNV-1" vertex="1">
          <mxGeometry x="1339.52" y="1346" width="20" height="20" as="geometry" />
        </mxCell>
        <mxCell id="MSBUPBAipDb2ATlnMfmg-195" value="จริง" style="edgeStyle=orthogonalEdgeStyle;rounded=0;orthogonalLoop=1;jettySize=auto;html=1;exitX=0;exitY=0.5;exitDx=0;exitDy=0;entryX=0;entryY=0.5;entryDx=0;entryDy=0;" parent="WIyWlLk6GJQsqaUBKTNV-1" source="MSBUPBAipDb2ATlnMfmg-190" target="MSBUPBAipDb2ATlnMfmg-194" edge="1">
          <mxGeometry relative="1" as="geometry">
            <mxPoint x="1366.02" y="1356" as="targetPoint" />
            <Array as="points">
              <mxPoint x="1130.02" y="1626" />
              <mxPoint x="1130.02" y="1356" />
            </Array>
          </mxGeometry>
        </mxCell>
        <mxCell id="MSBUPBAipDb2ATlnMfmg-196" value="จริง" style="edgeStyle=orthogonalEdgeStyle;rounded=0;orthogonalLoop=1;jettySize=auto;html=1;exitX=0;exitY=0.5;exitDx=0;exitDy=0;entryX=1;entryY=0.5;entryDx=0;entryDy=0;" parent="WIyWlLk6GJQsqaUBKTNV-1" source="MSBUPBAipDb2ATlnMfmg-197" target="MSBUPBAipDb2ATlnMfmg-199" edge="1">
          <mxGeometry relative="1" as="geometry" />
        </mxCell>
        <mxCell id="MSBUPBAipDb2ATlnMfmg-197" value="เงินทอน&amp;gt;2" style="rhombus;whiteSpace=wrap;html=1;" parent="WIyWlLk6GJQsqaUBKTNV-1" vertex="1">
          <mxGeometry x="1473.52" y="1546" width="80" height="80" as="geometry" />
        </mxCell>
        <mxCell id="MSBUPBAipDb2ATlnMfmg-198" style="edgeStyle=orthogonalEdgeStyle;rounded=0;orthogonalLoop=1;jettySize=auto;html=1;exitX=0.5;exitY=1;exitDx=0;exitDy=0;entryX=0.5;entryY=0;entryDx=0;entryDy=0;" parent="WIyWlLk6GJQsqaUBKTNV-1" source="MSBUPBAipDb2ATlnMfmg-199" target="MSBUPBAipDb2ATlnMfmg-204" edge="1">
          <mxGeometry relative="1" as="geometry" />
        </mxCell>
        <mxCell id="MSBUPBAipDb2ATlnMfmg-199" value="เงินทอน-2" style="rounded=0;whiteSpace=wrap;html=1;" parent="WIyWlLk6GJQsqaUBKTNV-1" vertex="1">
          <mxGeometry x="1313.52" y="1556" width="120" height="60" as="geometry" />
        </mxCell>
        <mxCell id="MSBUPBAipDb2ATlnMfmg-200" value="จริง" style="edgeStyle=orthogonalEdgeStyle;rounded=0;orthogonalLoop=1;jettySize=auto;html=1;exitX=0;exitY=0.5;exitDx=0;exitDy=0;entryX=0;entryY=0.5;entryDx=0;entryDy=0;" parent="WIyWlLk6GJQsqaUBKTNV-1" source="MSBUPBAipDb2ATlnMfmg-202" target="MSBUPBAipDb2ATlnMfmg-206" edge="1">
          <mxGeometry relative="1" as="geometry">
            <mxPoint x="1530.02" y="1506" as="targetPoint" />
            <Array as="points">
              <mxPoint x="1294.02" y="1776" />
              <mxPoint x="1294.02" y="1506" />
            </Array>
          </mxGeometry>
        </mxCell>
        <mxCell id="6EujANAd5X0Nz6XeVnfX-125" value="เท็จ" style="edgeStyle=orthogonalEdgeStyle;rounded=0;orthogonalLoop=1;jettySize=auto;html=1;exitX=0.5;exitY=1;exitDx=0;exitDy=0;entryX=0.5;entryY=0;entryDx=0;entryDy=0;" edge="1" parent="WIyWlLk6GJQsqaUBKTNV-1" source="MSBUPBAipDb2ATlnMfmg-202" target="6EujANAd5X0Nz6XeVnfX-118">
          <mxGeometry relative="1" as="geometry" />
        </mxCell>
        <mxCell id="MSBUPBAipDb2ATlnMfmg-202" value="เงินทอน&amp;gt;2" style="rhombus;whiteSpace=wrap;html=1;" parent="WIyWlLk6GJQsqaUBKTNV-1" vertex="1">
          <mxGeometry x="1333.52" y="1736" width="80" height="80" as="geometry" />
        </mxCell>
        <mxCell id="MSBUPBAipDb2ATlnMfmg-203" style="edgeStyle=orthogonalEdgeStyle;rounded=0;orthogonalLoop=1;jettySize=auto;html=1;exitX=0.5;exitY=1;exitDx=0;exitDy=0;entryX=0.5;entryY=0;entryDx=0;entryDy=0;" parent="WIyWlLk6GJQsqaUBKTNV-1" source="MSBUPBAipDb2ATlnMfmg-204" target="MSBUPBAipDb2ATlnMfmg-202" edge="1">
          <mxGeometry relative="1" as="geometry" />
        </mxCell>
        <mxCell id="MSBUPBAipDb2ATlnMfmg-204" value="h=h+1" style="rounded=0;whiteSpace=wrap;html=1;" parent="WIyWlLk6GJQsqaUBKTNV-1" vertex="1">
          <mxGeometry x="1313.52" y="1646" width="120" height="60" as="geometry" />
        </mxCell>
        <mxCell id="MSBUPBAipDb2ATlnMfmg-205" style="edgeStyle=orthogonalEdgeStyle;rounded=0;orthogonalLoop=1;jettySize=auto;html=1;exitX=0.5;exitY=1;exitDx=0;exitDy=0;entryX=0.5;entryY=0;entryDx=0;entryDy=0;" parent="WIyWlLk6GJQsqaUBKTNV-1" source="MSBUPBAipDb2ATlnMfmg-206" target="MSBUPBAipDb2ATlnMfmg-197" edge="1">
          <mxGeometry relative="1" as="geometry" />
        </mxCell>
        <mxCell id="MSBUPBAipDb2ATlnMfmg-206" value="" style="ellipse;whiteSpace=wrap;html=1;aspect=fixed;" parent="WIyWlLk6GJQsqaUBKTNV-1" vertex="1">
          <mxGeometry x="1503.52" y="1496" width="20" height="20" as="geometry" />
        </mxCell>
        <mxCell id="MSBUPBAipDb2ATlnMfmg-207" style="edgeStyle=orthogonalEdgeStyle;rounded=0;orthogonalLoop=1;jettySize=auto;html=1;exitX=0.5;exitY=1;exitDx=0;exitDy=0;entryX=0.5;entryY=0;entryDx=0;entryDy=0;" parent="WIyWlLk6GJQsqaUBKTNV-1" source="MSBUPBAipDb2ATlnMfmg-208" target="MSBUPBAipDb2ATlnMfmg-210" edge="1">
          <mxGeometry relative="1" as="geometry" />
        </mxCell>
        <mxCell id="MSBUPBAipDb2ATlnMfmg-208" value="เงินทอน-1" style="rounded=0;whiteSpace=wrap;html=1;" parent="WIyWlLk6GJQsqaUBKTNV-1" vertex="1">
          <mxGeometry x="1473.52" y="1706" width="120" height="60" as="geometry" />
        </mxCell>
        <mxCell id="MSBUPBAipDb2ATlnMfmg-209" style="edgeStyle=orthogonalEdgeStyle;rounded=0;orthogonalLoop=1;jettySize=auto;html=1;exitX=0.5;exitY=1;exitDx=0;exitDy=0;entryX=0.5;entryY=0;entryDx=0;entryDy=0;" parent="WIyWlLk6GJQsqaUBKTNV-1" source="MSBUPBAipDb2ATlnMfmg-210" target="MSBUPBAipDb2ATlnMfmg-212" edge="1">
          <mxGeometry relative="1" as="geometry" />
        </mxCell>
        <mxCell id="MSBUPBAipDb2ATlnMfmg-210" value="i=i+1" style="rounded=0;whiteSpace=wrap;html=1;" parent="WIyWlLk6GJQsqaUBKTNV-1" vertex="1">
          <mxGeometry x="1473.52" y="1796" width="120" height="60" as="geometry" />
        </mxCell>
        <mxCell id="MSBUPBAipDb2ATlnMfmg-211" value="เท็จ" style="edgeStyle=orthogonalEdgeStyle;rounded=0;orthogonalLoop=1;jettySize=auto;html=1;exitX=0.5;exitY=1;exitDx=0;exitDy=0;entryX=0.5;entryY=0;entryDx=0;entryDy=0;" parent="WIyWlLk6GJQsqaUBKTNV-1" source="MSBUPBAipDb2ATlnMfmg-212" target="MSBUPBAipDb2ATlnMfmg-226" edge="1">
          <mxGeometry relative="1" as="geometry" />
        </mxCell>
        <mxCell id="MSBUPBAipDb2ATlnMfmg-212" value="เงินทอน&amp;gt;1" style="rhombus;whiteSpace=wrap;html=1;" parent="WIyWlLk6GJQsqaUBKTNV-1" vertex="1">
          <mxGeometry x="1493.52" y="1886" width="80" height="80" as="geometry" />
        </mxCell>
        <mxCell id="MSBUPBAipDb2ATlnMfmg-213" value="จริง" style="edgeStyle=orthogonalEdgeStyle;rounded=0;orthogonalLoop=1;jettySize=auto;html=1;exitX=0;exitY=0.5;exitDx=0;exitDy=0;" parent="WIyWlLk6GJQsqaUBKTNV-1" source="MSBUPBAipDb2ATlnMfmg-215" edge="1">
          <mxGeometry relative="1" as="geometry">
            <mxPoint x="1594.02" y="1736.1999999999998" as="targetPoint" />
          </mxGeometry>
        </mxCell>
        <mxCell id="MSBUPBAipDb2ATlnMfmg-214" value="เท็จ" style="edgeStyle=orthogonalEdgeStyle;rounded=0;orthogonalLoop=1;jettySize=auto;html=1;exitX=0.5;exitY=1;exitDx=0;exitDy=0;entryX=1;entryY=0.5;entryDx=0;entryDy=0;" parent="WIyWlLk6GJQsqaUBKTNV-1" source="MSBUPBAipDb2ATlnMfmg-215" target="MSBUPBAipDb2ATlnMfmg-226" edge="1">
          <mxGeometry relative="1" as="geometry">
            <mxPoint x="1673.13" y="2006" as="targetPoint" />
          </mxGeometry>
        </mxCell>
        <mxCell id="MSBUPBAipDb2ATlnMfmg-215" value="เงินทอน&amp;gt;1" style="rhombus;whiteSpace=wrap;html=1;" parent="WIyWlLk6GJQsqaUBKTNV-1" vertex="1">
          <mxGeometry x="1633.52" y="1696" width="80" height="80" as="geometry" />
        </mxCell>
        <mxCell id="MSBUPBAipDb2ATlnMfmg-216" style="edgeStyle=orthogonalEdgeStyle;rounded=0;orthogonalLoop=1;jettySize=auto;html=1;exitX=0.5;exitY=1;exitDx=0;exitDy=0;entryX=0.5;entryY=0;entryDx=0;entryDy=0;" parent="WIyWlLk6GJQsqaUBKTNV-1" source="MSBUPBAipDb2ATlnMfmg-217" target="MSBUPBAipDb2ATlnMfmg-215" edge="1">
          <mxGeometry relative="1" as="geometry" />
        </mxCell>
        <mxCell id="MSBUPBAipDb2ATlnMfmg-217" value="" style="ellipse;whiteSpace=wrap;html=1;aspect=fixed;" parent="WIyWlLk6GJQsqaUBKTNV-1" vertex="1">
          <mxGeometry x="1663.52" y="1646" width="20" height="20" as="geometry" />
        </mxCell>
        <mxCell id="MSBUPBAipDb2ATlnMfmg-218" value="เท็จ" style="edgeStyle=orthogonalEdgeStyle;rounded=0;orthogonalLoop=1;jettySize=auto;html=1;entryX=0.5;entryY=0;entryDx=0;entryDy=0;" parent="WIyWlLk6GJQsqaUBKTNV-1" target="MSBUPBAipDb2ATlnMfmg-217" edge="1">
          <mxGeometry relative="1" as="geometry">
            <mxPoint x="1674.02" y="1586" as="targetPoint" />
            <mxPoint x="1554.02" y="1586" as="sourcePoint" />
            <Array as="points">
              <mxPoint x="1674.02" y="1586" />
            </Array>
          </mxGeometry>
        </mxCell>
        <mxCell id="MSBUPBAipDb2ATlnMfmg-219" value="จริง" style="edgeStyle=orthogonalEdgeStyle;rounded=0;orthogonalLoop=1;jettySize=auto;html=1;exitX=0;exitY=0.5;exitDx=0;exitDy=0;entryX=0;entryY=0.5;entryDx=0;entryDy=0;" parent="WIyWlLk6GJQsqaUBKTNV-1" source="MSBUPBAipDb2ATlnMfmg-212" target="MSBUPBAipDb2ATlnMfmg-217" edge="1">
          <mxGeometry relative="1" as="geometry">
            <mxPoint x="1690.02" y="1656" as="targetPoint" />
            <Array as="points">
              <mxPoint x="1454.02" y="1926" />
              <mxPoint x="1454.02" y="1656" />
            </Array>
          </mxGeometry>
        </mxCell>
        <mxCell id="MSBUPBAipDb2ATlnMfmg-220" value="เท็จ" style="edgeStyle=orthogonalEdgeStyle;rounded=0;orthogonalLoop=1;jettySize=auto;html=1;exitX=1;exitY=0.5;exitDx=0;exitDy=0;entryX=0.5;entryY=0;entryDx=0;entryDy=0;" parent="WIyWlLk6GJQsqaUBKTNV-1" target="MSBUPBAipDb2ATlnMfmg-206" edge="1">
          <mxGeometry relative="1" as="geometry">
            <mxPoint x="1514.02" y="1436" as="targetPoint" />
            <mxPoint x="1388.02" y="1436" as="sourcePoint" />
          </mxGeometry>
        </mxCell>
        <mxCell id="MSBUPBAipDb2ATlnMfmg-224" value="จบ" style="ellipse;whiteSpace=wrap;html=1;" parent="WIyWlLk6GJQsqaUBKTNV-1" vertex="1">
          <mxGeometry x="1475.22" y="2041" width="116.61" height="50" as="geometry" />
        </mxCell>
        <mxCell id="MSBUPBAipDb2ATlnMfmg-225" style="edgeStyle=orthogonalEdgeStyle;rounded=0;orthogonalLoop=1;jettySize=auto;html=1;exitX=0.5;exitY=1;exitDx=0;exitDy=0;entryX=0.5;entryY=0;entryDx=0;entryDy=0;" parent="WIyWlLk6GJQsqaUBKTNV-1" source="MSBUPBAipDb2ATlnMfmg-226" target="MSBUPBAipDb2ATlnMfmg-224" edge="1">
          <mxGeometry relative="1" as="geometry" />
        </mxCell>
        <mxCell id="MSBUPBAipDb2ATlnMfmg-226" value="" style="ellipse;whiteSpace=wrap;html=1;aspect=fixed;" parent="WIyWlLk6GJQsqaUBKTNV-1" vertex="1">
          <mxGeometry x="1523.52" y="1996" width="20" height="20" as="geometry" />
        </mxCell>
        <mxCell id="6EujANAd5X0Nz6XeVnfX-11" style="edgeStyle=orthogonalEdgeStyle;rounded=0;orthogonalLoop=1;jettySize=auto;html=1;exitX=0.5;exitY=1;exitDx=0;exitDy=0;entryX=0.5;entryY=0;entryDx=0;entryDy=0;" edge="1" parent="WIyWlLk6GJQsqaUBKTNV-1" source="6EujANAd5X0Nz6XeVnfX-12" target="6EujANAd5X0Nz6XeVnfX-16">
          <mxGeometry relative="1" as="geometry" />
        </mxCell>
        <mxCell id="6EujANAd5X0Nz6XeVnfX-12" value="เริ่ม" style="ellipse;whiteSpace=wrap;html=1;" vertex="1" parent="WIyWlLk6GJQsqaUBKTNV-1">
          <mxGeometry x="-460" y="690" width="120" height="40" as="geometry" />
        </mxCell>
        <mxCell id="6EujANAd5X0Nz6XeVnfX-13" style="edgeStyle=orthogonalEdgeStyle;rounded=0;orthogonalLoop=1;jettySize=auto;html=1;exitX=0.5;exitY=1;exitDx=0;exitDy=0;entryX=0.5;entryY=0;entryDx=0;entryDy=0;" edge="1" parent="WIyWlLk6GJQsqaUBKTNV-1" source="6EujANAd5X0Nz6XeVnfX-14" target="6EujANAd5X0Nz6XeVnfX-18">
          <mxGeometry relative="1" as="geometry" />
        </mxCell>
        <mxCell id="6EujANAd5X0Nz6XeVnfX-14" value="เลือกสินค้า" style="shape=process;whiteSpace=wrap;html=1;backgroundOutline=1;" vertex="1" parent="WIyWlLk6GJQsqaUBKTNV-1">
          <mxGeometry x="-460" y="1021" width="120" height="60" as="geometry" />
        </mxCell>
        <mxCell id="6EujANAd5X0Nz6XeVnfX-366" style="edgeStyle=orthogonalEdgeStyle;rounded=0;orthogonalLoop=1;jettySize=auto;html=1;exitX=0.5;exitY=1;exitDx=0;exitDy=0;entryX=0.5;entryY=0;entryDx=0;entryDy=0;" edge="1" parent="WIyWlLk6GJQsqaUBKTNV-1" source="6EujANAd5X0Nz6XeVnfX-16" target="6EujANAd5X0Nz6XeVnfX-365">
          <mxGeometry relative="1" as="geometry" />
        </mxCell>
        <mxCell id="6EujANAd5X0Nz6XeVnfX-16" value="ประกาศตัวแปล&lt;div&gt;เงินทอน,ราคาสินค้ารวม,เงินเข้า,ราคาสินค้าA1...A7&lt;/div&gt;" style="rounded=0;whiteSpace=wrap;html=1;" vertex="1" parent="WIyWlLk6GJQsqaUBKTNV-1">
          <mxGeometry x="-460" y="760" width="120" height="60" as="geometry" />
        </mxCell>
        <mxCell id="6EujANAd5X0Nz6XeVnfX-37" style="edgeStyle=orthogonalEdgeStyle;rounded=0;orthogonalLoop=1;jettySize=auto;html=1;exitX=0.5;exitY=1;exitDx=0;exitDy=0;entryX=0.5;entryY=0;entryDx=0;entryDy=0;" edge="1" parent="WIyWlLk6GJQsqaUBKTNV-1" source="6EujANAd5X0Nz6XeVnfX-18" target="6EujANAd5X0Nz6XeVnfX-34">
          <mxGeometry relative="1" as="geometry" />
        </mxCell>
        <mxCell id="6EujANAd5X0Nz6XeVnfX-18" value="แสดงราคาสินค้ารวม" style="shape=parallelogram;perimeter=parallelogramPerimeter;whiteSpace=wrap;html=1;fixedSize=1;" vertex="1" parent="WIyWlLk6GJQsqaUBKTNV-1">
          <mxGeometry x="-460" y="1111" width="120" height="60" as="geometry" />
        </mxCell>
        <mxCell id="6EujANAd5X0Nz6XeVnfX-20" style="edgeStyle=orthogonalEdgeStyle;rounded=0;orthogonalLoop=1;jettySize=auto;html=1;exitX=0.5;exitY=1;exitDx=0;exitDy=0;entryX=0.5;entryY=0;entryDx=0;entryDy=0;" edge="1" parent="WIyWlLk6GJQsqaUBKTNV-1" source="6EujANAd5X0Nz6XeVnfX-21" target="6EujANAd5X0Nz6XeVnfX-23">
          <mxGeometry relative="1" as="geometry" />
        </mxCell>
        <mxCell id="6EujANAd5X0Nz6XeVnfX-21" value="คำนวน" style="shape=process;whiteSpace=wrap;html=1;backgroundOutline=1;" vertex="1" parent="WIyWlLk6GJQsqaUBKTNV-1">
          <mxGeometry x="-460" y="1398" width="120" height="60" as="geometry" />
        </mxCell>
        <mxCell id="6EujANAd5X0Nz6XeVnfX-22" style="edgeStyle=orthogonalEdgeStyle;rounded=0;orthogonalLoop=1;jettySize=auto;html=1;exitX=0.5;exitY=1;exitDx=0;exitDy=0;entryX=0.5;entryY=0;entryDx=0;entryDy=0;" edge="1" parent="WIyWlLk6GJQsqaUBKTNV-1" source="6EujANAd5X0Nz6XeVnfX-23" target="6EujANAd5X0Nz6XeVnfX-25">
          <mxGeometry relative="1" as="geometry" />
        </mxCell>
        <mxCell id="6EujANAd5X0Nz6XeVnfX-23" value="แสดง เงินทอน" style="shape=parallelogram;perimeter=parallelogramPerimeter;whiteSpace=wrap;html=1;fixedSize=1;" vertex="1" parent="WIyWlLk6GJQsqaUBKTNV-1">
          <mxGeometry x="-460" y="1488" width="120" height="60" as="geometry" />
        </mxCell>
        <mxCell id="6EujANAd5X0Nz6XeVnfX-24" style="edgeStyle=orthogonalEdgeStyle;rounded=0;orthogonalLoop=1;jettySize=auto;html=1;exitX=0.5;exitY=1;exitDx=0;exitDy=0;entryX=0.5;entryY=0;entryDx=0;entryDy=0;" edge="1" parent="WIyWlLk6GJQsqaUBKTNV-1" source="6EujANAd5X0Nz6XeVnfX-25" target="6EujANAd5X0Nz6XeVnfX-26">
          <mxGeometry relative="1" as="geometry" />
        </mxCell>
        <mxCell id="6EujANAd5X0Nz6XeVnfX-25" value="แบ็ง1000บาท=a&lt;div&gt;แบ็ง500บาท=b&lt;/div&gt;&lt;div&gt;แบ็ง100บาท=c&lt;/div&gt;&lt;div&gt;แบ็ง50บาท=d&lt;/div&gt;&lt;div&gt;แบ็ง20บาท=e&lt;/div&gt;&lt;div&gt;&lt;span style=&quot;background-color: transparent; color: light-dark(rgb(0, 0, 0), rgb(255, 255, 255));&quot;&gt;เหรียญ10บาท&lt;/span&gt;=f&lt;/div&gt;&lt;div&gt;&lt;span style=&quot;background-color: transparent; color: light-dark(rgb(0, 0, 0), rgb(255, 255, 255));&quot;&gt;เหรียญ5บาท&lt;/span&gt;=g&lt;/div&gt;&lt;div&gt;&lt;span style=&quot;background-color: transparent; color: light-dark(rgb(0, 0, 0), rgb(255, 255, 255));&quot;&gt;เหรียญ2บาท&lt;/span&gt;=h&lt;/div&gt;&lt;div&gt;&lt;span style=&quot;background-color: transparent; color: light-dark(rgb(0, 0, 0), rgb(255, 255, 255));&quot;&gt;เหรียญ1บาท&lt;/span&gt;=i&lt;/div&gt;" style="rounded=0;whiteSpace=wrap;html=1;" vertex="1" parent="WIyWlLk6GJQsqaUBKTNV-1">
          <mxGeometry x="-480" y="1578" width="160" height="180" as="geometry" />
        </mxCell>
        <mxCell id="6EujANAd5X0Nz6XeVnfX-26" value="&lt;font style=&quot;vertical-align: inherit;&quot;&gt;&lt;font style=&quot;vertical-align: inherit;&quot;&gt;&lt;font style=&quot;vertical-align: inherit;&quot;&gt;&lt;font style=&quot;vertical-align: inherit;&quot;&gt;&lt;font style=&quot;vertical-align: inherit;&quot;&gt;&lt;font style=&quot;vertical-align: inherit;&quot;&gt;&lt;font style=&quot;vertical-align: inherit;&quot;&gt;&lt;font style=&quot;vertical-align: inherit;&quot;&gt;แสดงจำนวนแบ็งและเหรียญ&lt;/font&gt;&lt;/font&gt;&lt;/font&gt;&lt;/font&gt;&lt;/font&gt;&lt;/font&gt;&lt;/font&gt;&lt;/font&gt;" style="shape=parallelogram;perimeter=parallelogramPerimeter;whiteSpace=wrap;html=1;fixedSize=1;" vertex="1" parent="WIyWlLk6GJQsqaUBKTNV-1">
          <mxGeometry x="-465" y="1788" width="130" height="60" as="geometry" />
        </mxCell>
        <mxCell id="6EujANAd5X0Nz6XeVnfX-27" style="edgeStyle=orthogonalEdgeStyle;rounded=0;orthogonalLoop=1;jettySize=auto;html=1;exitX=0.5;exitY=1;exitDx=0;exitDy=0;entryX=0.5;entryY=0;entryDx=0;entryDy=0;" edge="1" parent="WIyWlLk6GJQsqaUBKTNV-1" target="6EujANAd5X0Nz6XeVnfX-21">
          <mxGeometry relative="1" as="geometry">
            <mxPoint x="-400" y="1368" as="sourcePoint" />
          </mxGeometry>
        </mxCell>
        <mxCell id="6EujANAd5X0Nz6XeVnfX-28" value="แสดง เงินเข้า" style="shape=parallelogram;perimeter=parallelogramPerimeter;whiteSpace=wrap;html=1;fixedSize=1;" vertex="1" parent="WIyWlLk6GJQsqaUBKTNV-1">
          <mxGeometry x="-460" y="1308" width="120" height="60" as="geometry" />
        </mxCell>
        <mxCell id="6EujANAd5X0Nz6XeVnfX-29" value="&lt;font style=&quot;vertical-align: inherit;&quot;&gt;&lt;font style=&quot;vertical-align: inherit;&quot;&gt;จบ&lt;/font&gt;&lt;/font&gt;" style="ellipse;whiteSpace=wrap;html=1;" vertex="1" parent="WIyWlLk6GJQsqaUBKTNV-1">
          <mxGeometry x="-460.01" y="2079" width="120" height="50" as="geometry" />
        </mxCell>
        <mxCell id="6EujANAd5X0Nz6XeVnfX-477" style="edgeStyle=orthogonalEdgeStyle;rounded=0;orthogonalLoop=1;jettySize=auto;html=1;exitX=0.5;exitY=1;exitDx=0;exitDy=0;entryX=0.5;entryY=0;entryDx=0;entryDy=0;" edge="1" parent="WIyWlLk6GJQsqaUBKTNV-1" source="6EujANAd5X0Nz6XeVnfX-31" target="6EujANAd5X0Nz6XeVnfX-476">
          <mxGeometry relative="1" as="geometry" />
        </mxCell>
        <mxCell id="6EujANAd5X0Nz6XeVnfX-31" value="&#xa;&lt;span style=&quot;color: rgb(0, 0, 0); font-family: Helvetica; font-size: 12px; font-style: normal; font-variant-ligatures: normal; font-variant-caps: normal; font-weight: 400; letter-spacing: normal; orphans: 2; text-align: center; text-indent: 0px; text-transform: none; widows: 2; word-spacing: 0px; -webkit-text-stroke-width: 0px; white-space: normal; background-color: rgb(236, 236, 236); text-decoration-thickness: initial; text-decoration-style: initial; text-decoration-color: initial; display: inline !important; float: none;&quot;&gt;ส่ง สินค้า&lt;/span&gt;&#xa;&#xa;" style="shape=process;whiteSpace=wrap;html=1;backgroundOutline=1;" vertex="1" parent="WIyWlLk6GJQsqaUBKTNV-1">
          <mxGeometry x="-460" y="1891" width="120" height="60" as="geometry" />
        </mxCell>
        <mxCell id="6EujANAd5X0Nz6XeVnfX-34" value="รับ เงินเข้า" style="shape=parallelogram;perimeter=parallelogramPerimeter;whiteSpace=wrap;html=1;fixedSize=1;" vertex="1" parent="WIyWlLk6GJQsqaUBKTNV-1">
          <mxGeometry x="-460" y="1201" width="120" height="60" as="geometry" />
        </mxCell>
        <mxCell id="6EujANAd5X0Nz6XeVnfX-35" style="edgeStyle=orthogonalEdgeStyle;rounded=0;orthogonalLoop=1;jettySize=auto;html=1;exitX=0.5;exitY=1;exitDx=0;exitDy=0;entryX=0.5;entryY=0;entryDx=0;entryDy=0;" edge="1" parent="WIyWlLk6GJQsqaUBKTNV-1" source="6EujANAd5X0Nz6XeVnfX-26" target="6EujANAd5X0Nz6XeVnfX-31">
          <mxGeometry relative="1" as="geometry" />
        </mxCell>
        <mxCell id="6EujANAd5X0Nz6XeVnfX-36" style="edgeStyle=orthogonalEdgeStyle;rounded=0;orthogonalLoop=1;jettySize=auto;html=1;exitX=0.5;exitY=1;exitDx=0;exitDy=0;entryX=0.5;entryY=0;entryDx=0;entryDy=0;" edge="1" parent="WIyWlLk6GJQsqaUBKTNV-1" source="6EujANAd5X0Nz6XeVnfX-34" target="6EujANAd5X0Nz6XeVnfX-28">
          <mxGeometry relative="1" as="geometry" />
        </mxCell>
        <mxCell id="6EujANAd5X0Nz6XeVnfX-273" style="edgeStyle=orthogonalEdgeStyle;rounded=0;orthogonalLoop=1;jettySize=auto;html=1;exitX=0.5;exitY=1;exitDx=0;exitDy=0;entryX=0.5;entryY=0;entryDx=0;entryDy=0;" edge="1" parent="WIyWlLk6GJQsqaUBKTNV-1" source="6EujANAd5X0Nz6XeVnfX-54" target="6EujANAd5X0Nz6XeVnfX-272">
          <mxGeometry relative="1" as="geometry" />
        </mxCell>
        <mxCell id="6EujANAd5X0Nz6XeVnfX-54" value="แสดง&lt;div&gt;&lt;b&gt;&lt;u&gt;น้ำ&lt;/u&gt;&lt;/b&gt;&lt;/div&gt;&lt;div&gt;&lt;span style=&quot;font-family: Sarabun; font-size: 14px; text-align: left; text-wrap-mode: nowrap;&quot;&gt;โค้ก กระป๋องละ 10 บาท&amp;nbsp; หมายเลข 1&lt;/span&gt;&lt;/div&gt;&lt;div&gt;&lt;span style=&quot;font-family: Sarabun; font-size: 14px; text-align: left; text-wrap-mode: nowrap;&quot;&gt;น้ำเขียว กระป๋องละ 12 บาท หมายเลข 2&lt;/span&gt;&lt;span style=&quot;font-family: Sarabun; font-size: 14px; text-align: left; text-wrap-mode: nowrap;&quot;&gt;&lt;/span&gt;&lt;/div&gt;&lt;div&gt;&lt;span style=&quot;font-family: Sarabun; font-size: 14px; text-align: left; text-wrap-mode: nowrap;&quot;&gt;อเมริกาโน่ 30 บาท หมายเลข 3&lt;/span&gt;&lt;span style=&quot;font-family: Sarabun; font-size: 14px; text-align: left; text-wrap-mode: nowrap;&quot;&gt;&lt;/span&gt;&lt;/div&gt;&lt;div&gt;&lt;span style=&quot;font-family: Sarabun; font-size: 14px; text-align: left; text-wrap-mode: nowrap;&quot;&gt;ลาเต้ หวานเจี๊ยบ 35 บาท หมายเลข 4&lt;/span&gt;&lt;span style=&quot;font-family: Sarabun; font-size: 14px; text-align: left; text-wrap-mode: nowrap;&quot;&gt;&lt;/span&gt;&lt;/div&gt;&lt;div&gt;&lt;u style=&quot;font-family: Sarabun; font-size: 14px; text-align: left; text-wrap-mode: nowrap;&quot;&gt;&lt;span style=&quot;white-space-collapse: preserve;&quot;&gt;ข&lt;/span&gt;นม&lt;/u&gt;&lt;span style=&quot;font-family: Sarabun; font-size: 14px; text-align: left; text-wrap-mode: nowrap;&quot;&gt;&lt;/span&gt;&lt;/div&gt;&lt;div&gt;&lt;span style=&quot;font-family: Sarabun; font-size: 14px; text-align: left; text-wrap-mode: nowrap;&quot;&gt;&amp;nbsp;เมล็ดทานตะวัน 13 บาท หมายเลข 5&lt;/span&gt;&lt;u style=&quot;font-family: Sarabun; font-size: 14px; text-align: left; text-wrap-mode: nowrap;&quot;&gt;&lt;/u&gt;&lt;/div&gt;&lt;div&gt;&lt;span style=&quot;font-family: Sarabun; font-size: 14px; text-align: left; text-wrap-mode: nowrap;&quot;&gt;ถั่วแปบ 20 บาท หมายเลข 6&lt;/span&gt;&lt;span style=&quot;font-family: Sarabun; font-size: 14px; text-align: left; text-wrap-mode: nowrap;&quot;&gt;&lt;/span&gt;&lt;/div&gt;&lt;div&gt;&lt;span style=&quot;font-family: Sarabun; font-size: 14px; text-align: left; text-wrap-mode: nowrap;&quot;&gt;จิ้นส้มหมก 15 บาท หมายเลข 7&lt;/span&gt;&lt;span style=&quot;font-family: Sarabun; font-size: 14px; text-align: left; text-wrap-mode: nowrap;&quot;&gt;&lt;/span&gt;&lt;/div&gt;" style="shape=parallelogram;perimeter=parallelogramPerimeter;whiteSpace=wrap;html=1;fixedSize=1;" vertex="1" parent="WIyWlLk6GJQsqaUBKTNV-1">
          <mxGeometry x="-1471.6100000000001" y="436" width="440" height="180" as="geometry" />
        </mxCell>
        <mxCell id="6EujANAd5X0Nz6XeVnfX-240" style="edgeStyle=orthogonalEdgeStyle;rounded=0;orthogonalLoop=1;jettySize=auto;html=1;exitX=0.5;exitY=1;exitDx=0;exitDy=0;entryX=0.5;entryY=0;entryDx=0;entryDy=0;" edge="1" parent="WIyWlLk6GJQsqaUBKTNV-1" source="6EujANAd5X0Nz6XeVnfX-56" target="6EujANAd5X0Nz6XeVnfX-187">
          <mxGeometry relative="1" as="geometry" />
        </mxCell>
        <mxCell id="6EujANAd5X0Nz6XeVnfX-56" value="เริ่ม" style="ellipse;whiteSpace=wrap;html=1;" vertex="1" parent="WIyWlLk6GJQsqaUBKTNV-1">
          <mxGeometry x="-1311.6100000000001" y="45" width="120" height="50" as="geometry" />
        </mxCell>
        <mxCell id="6EujANAd5X0Nz6XeVnfX-57" style="edgeStyle=orthogonalEdgeStyle;rounded=0;orthogonalLoop=1;jettySize=auto;html=1;exitX=0.5;exitY=1;exitDx=0;exitDy=0;entryX=0.5;entryY=0;entryDx=0;entryDy=0;" edge="1" parent="WIyWlLk6GJQsqaUBKTNV-1" source="6EujANAd5X0Nz6XeVnfX-58" target="6EujANAd5X0Nz6XeVnfX-54">
          <mxGeometry relative="1" as="geometry" />
        </mxCell>
        <mxCell id="6EujANAd5X0Nz6XeVnfX-58" value="แสดงน้ำและขนม" style="shape=parallelogram;perimeter=parallelogramPerimeter;whiteSpace=wrap;html=1;fixedSize=1;" vertex="1" parent="WIyWlLk6GJQsqaUBKTNV-1">
          <mxGeometry x="-1311.6100000000001" y="336" width="120" height="60" as="geometry" />
        </mxCell>
        <mxCell id="6EujANAd5X0Nz6XeVnfX-60" value="เท็จ" style="edgeStyle=orthogonalEdgeStyle;rounded=0;orthogonalLoop=1;jettySize=auto;html=1;exitX=0.5;exitY=1;exitDx=0;exitDy=0;entryX=0.5;entryY=0;entryDx=0;entryDy=0;" edge="1" parent="WIyWlLk6GJQsqaUBKTNV-1" source="6EujANAd5X0Nz6XeVnfX-61" target="6EujANAd5X0Nz6XeVnfX-64">
          <mxGeometry relative="1" as="geometry" />
        </mxCell>
        <mxCell id="6EujANAd5X0Nz6XeVnfX-345" value="จริง" style="edgeStyle=orthogonalEdgeStyle;rounded=0;orthogonalLoop=1;jettySize=auto;html=1;exitX=0;exitY=0.5;exitDx=0;exitDy=0;entryX=0.5;entryY=1;entryDx=0;entryDy=0;" edge="1" parent="WIyWlLk6GJQsqaUBKTNV-1" source="6EujANAd5X0Nz6XeVnfX-61" target="6EujANAd5X0Nz6XeVnfX-341">
          <mxGeometry relative="1" as="geometry">
            <mxPoint x="-1610" y="2929" as="targetPoint" />
          </mxGeometry>
        </mxCell>
        <mxCell id="6EujANAd5X0Nz6XeVnfX-61" value="เลือกเพิ่ม" style="rhombus;whiteSpace=wrap;html=1;" vertex="1" parent="WIyWlLk6GJQsqaUBKTNV-1">
          <mxGeometry x="-1289.0000000000002" y="2889" width="80" height="80" as="geometry" />
        </mxCell>
        <mxCell id="6EujANAd5X0Nz6XeVnfX-62" value="จบ" style="ellipse;whiteSpace=wrap;html=1;" vertex="1" parent="WIyWlLk6GJQsqaUBKTNV-1">
          <mxGeometry x="-1309.0000000000002" y="3145" width="120" height="50" as="geometry" />
        </mxCell>
        <mxCell id="6EujANAd5X0Nz6XeVnfX-63" style="edgeStyle=orthogonalEdgeStyle;rounded=0;orthogonalLoop=1;jettySize=auto;html=1;exitX=0.5;exitY=1;exitDx=0;exitDy=0;entryX=0.5;entryY=0;entryDx=0;entryDy=0;" edge="1" parent="WIyWlLk6GJQsqaUBKTNV-1" source="6EujANAd5X0Nz6XeVnfX-64" target="6EujANAd5X0Nz6XeVnfX-62">
          <mxGeometry relative="1" as="geometry" />
        </mxCell>
        <mxCell id="6EujANAd5X0Nz6XeVnfX-64" value="ราคาสินค้ารวม=ราคาสินค้าA1+ราคาสินค้าA2+ราคาสินค้าA3+...+ราคาสินค้าA7" style="rounded=0;whiteSpace=wrap;html=1;" vertex="1" parent="WIyWlLk6GJQsqaUBKTNV-1">
          <mxGeometry x="-1449.0000000000002" y="3035" width="400" height="60" as="geometry" />
        </mxCell>
        <mxCell id="6EujANAd5X0Nz6XeVnfX-69" style="edgeStyle=orthogonalEdgeStyle;rounded=0;orthogonalLoop=1;jettySize=auto;html=1;exitX=0.5;exitY=1;exitDx=0;exitDy=0;entryX=0.5;entryY=0;entryDx=0;entryDy=0;" edge="1" parent="WIyWlLk6GJQsqaUBKTNV-1" source="6EujANAd5X0Nz6XeVnfX-70" target="6EujANAd5X0Nz6XeVnfX-115">
          <mxGeometry relative="1" as="geometry" />
        </mxCell>
        <mxCell id="6EujANAd5X0Nz6XeVnfX-70" value="แสดงเงินทอน" style="shape=parallelogram;perimeter=parallelogramPerimeter;whiteSpace=wrap;html=1;fixedSize=1;" vertex="1" parent="WIyWlLk6GJQsqaUBKTNV-1">
          <mxGeometry x="311.75" y="360" width="120" height="60" as="geometry" />
        </mxCell>
        <mxCell id="6EujANAd5X0Nz6XeVnfX-71" style="edgeStyle=orthogonalEdgeStyle;rounded=0;orthogonalLoop=1;jettySize=auto;html=1;exitX=0.5;exitY=1;exitDx=0;exitDy=0;entryX=0.5;entryY=0;entryDx=0;entryDy=0;" edge="1" parent="WIyWlLk6GJQsqaUBKTNV-1" source="6EujANAd5X0Nz6XeVnfX-72" target="6EujANAd5X0Nz6XeVnfX-73">
          <mxGeometry relative="1" as="geometry" />
        </mxCell>
        <mxCell id="6EujANAd5X0Nz6XeVnfX-72" value="เริ่ม" style="ellipse;whiteSpace=wrap;html=1;" vertex="1" parent="WIyWlLk6GJQsqaUBKTNV-1">
          <mxGeometry x="307.75" y="130" width="120" height="50" as="geometry" />
        </mxCell>
        <mxCell id="6EujANAd5X0Nz6XeVnfX-73" value="ประกาศตัวแปล&lt;div&gt;a=0,b&lt;span style=&quot;background-color: transparent; color: light-dark(rgb(0, 0, 0), rgb(255, 255, 255));&quot;&gt;=0,c=0,d=0,e=0,f=0,g=0,h=0,i=0&lt;/span&gt;&lt;/div&gt;&lt;div&gt;&lt;br&gt;&lt;/div&gt;" style="rounded=0;whiteSpace=wrap;html=1;" vertex="1" parent="WIyWlLk6GJQsqaUBKTNV-1">
          <mxGeometry x="262.25" y="200" width="210" height="60" as="geometry" />
        </mxCell>
        <mxCell id="6EujANAd5X0Nz6XeVnfX-74" style="edgeStyle=orthogonalEdgeStyle;rounded=0;orthogonalLoop=1;jettySize=auto;html=1;exitX=0.5;exitY=1;exitDx=0;exitDy=0;entryX=0.5;entryY=0;entryDx=0;entryDy=0;" edge="1" parent="WIyWlLk6GJQsqaUBKTNV-1" source="6EujANAd5X0Nz6XeVnfX-75" target="6EujANAd5X0Nz6XeVnfX-70">
          <mxGeometry relative="1" as="geometry" />
        </mxCell>
        <mxCell id="6EujANAd5X0Nz6XeVnfX-75" value="เงินทอน=ราคาสินค้ารวม-เงินเข้า" style="rounded=0;whiteSpace=wrap;html=1;" vertex="1" parent="WIyWlLk6GJQsqaUBKTNV-1">
          <mxGeometry x="285" y="280" width="170" height="60" as="geometry" />
        </mxCell>
        <mxCell id="6EujANAd5X0Nz6XeVnfX-76" style="edgeStyle=orthogonalEdgeStyle;rounded=0;orthogonalLoop=1;jettySize=auto;html=1;exitX=0.5;exitY=1;exitDx=0;exitDy=0;entryX=0.5;entryY=0;entryDx=0;entryDy=0;" edge="1" parent="WIyWlLk6GJQsqaUBKTNV-1" source="6EujANAd5X0Nz6XeVnfX-73" target="6EujANAd5X0Nz6XeVnfX-75">
          <mxGeometry relative="1" as="geometry" />
        </mxCell>
        <mxCell id="6EujANAd5X0Nz6XeVnfX-77" value="จริง" style="edgeStyle=orthogonalEdgeStyle;rounded=0;orthogonalLoop=1;jettySize=auto;html=1;exitX=0;exitY=0.5;exitDx=0;exitDy=0;entryX=1;entryY=0.5;entryDx=0;entryDy=0;" edge="1" parent="WIyWlLk6GJQsqaUBKTNV-1" source="6EujANAd5X0Nz6XeVnfX-79" target="6EujANAd5X0Nz6XeVnfX-81">
          <mxGeometry relative="1" as="geometry" />
        </mxCell>
        <mxCell id="6EujANAd5X0Nz6XeVnfX-78" value="เท็จ" style="edgeStyle=orthogonalEdgeStyle;rounded=0;orthogonalLoop=1;jettySize=auto;html=1;exitX=1;exitY=0.5;exitDx=0;exitDy=0;entryX=0.5;entryY=0;entryDx=0;entryDy=0;" edge="1" parent="WIyWlLk6GJQsqaUBKTNV-1" source="6EujANAd5X0Nz6XeVnfX-79" target="6EujANAd5X0Nz6XeVnfX-99">
          <mxGeometry relative="1" as="geometry">
            <mxPoint x="529.5" y="520" as="targetPoint" />
          </mxGeometry>
        </mxCell>
        <mxCell id="6EujANAd5X0Nz6XeVnfX-79" value="เงินทอน&amp;gt;1000" style="rhombus;whiteSpace=wrap;html=1;" vertex="1" parent="WIyWlLk6GJQsqaUBKTNV-1">
          <mxGeometry x="333" y="480" width="77.5" height="80" as="geometry" />
        </mxCell>
        <mxCell id="6EujANAd5X0Nz6XeVnfX-80" style="edgeStyle=orthogonalEdgeStyle;rounded=0;orthogonalLoop=1;jettySize=auto;html=1;exitX=0.5;exitY=1;exitDx=0;exitDy=0;entryX=0.5;entryY=0;entryDx=0;entryDy=0;" edge="1" parent="WIyWlLk6GJQsqaUBKTNV-1" source="6EujANAd5X0Nz6XeVnfX-81" target="6EujANAd5X0Nz6XeVnfX-86">
          <mxGeometry relative="1" as="geometry" />
        </mxCell>
        <mxCell id="6EujANAd5X0Nz6XeVnfX-81" value="เงินทอน-1000" style="rounded=0;whiteSpace=wrap;html=1;" vertex="1" parent="WIyWlLk6GJQsqaUBKTNV-1">
          <mxGeometry x="168" y="490" width="120" height="60" as="geometry" />
        </mxCell>
        <mxCell id="6EujANAd5X0Nz6XeVnfX-82" value="จริง" style="edgeStyle=orthogonalEdgeStyle;rounded=0;orthogonalLoop=1;jettySize=auto;html=1;exitX=0;exitY=0.5;exitDx=0;exitDy=0;entryX=0;entryY=0.5;entryDx=0;entryDy=0;" edge="1" parent="WIyWlLk6GJQsqaUBKTNV-1" source="6EujANAd5X0Nz6XeVnfX-84" target="6EujANAd5X0Nz6XeVnfX-115">
          <mxGeometry relative="1" as="geometry">
            <mxPoint x="369.5" y="410" as="targetPoint" />
            <Array as="points">
              <mxPoint x="90" y="710" />
              <mxPoint x="90" y="450" />
            </Array>
          </mxGeometry>
        </mxCell>
        <mxCell id="6EujANAd5X0Nz6XeVnfX-134" value="เท็จ" style="edgeStyle=orthogonalEdgeStyle;rounded=0;orthogonalLoop=1;jettySize=auto;html=1;exitX=0.5;exitY=1;exitDx=0;exitDy=0;" edge="1" parent="WIyWlLk6GJQsqaUBKTNV-1" source="6EujANAd5X0Nz6XeVnfX-84" target="6EujANAd5X0Nz6XeVnfX-133">
          <mxGeometry relative="1" as="geometry" />
        </mxCell>
        <mxCell id="6EujANAd5X0Nz6XeVnfX-84" value="เงินทอน&amp;gt;1000" style="rhombus;whiteSpace=wrap;html=1;" vertex="1" parent="WIyWlLk6GJQsqaUBKTNV-1">
          <mxGeometry x="188" y="670" width="80" height="80" as="geometry" />
        </mxCell>
        <mxCell id="6EujANAd5X0Nz6XeVnfX-85" style="edgeStyle=orthogonalEdgeStyle;rounded=0;orthogonalLoop=1;jettySize=auto;html=1;exitX=0.5;exitY=1;exitDx=0;exitDy=0;entryX=0.5;entryY=0;entryDx=0;entryDy=0;" edge="1" parent="WIyWlLk6GJQsqaUBKTNV-1" source="6EujANAd5X0Nz6XeVnfX-86" target="6EujANAd5X0Nz6XeVnfX-84">
          <mxGeometry relative="1" as="geometry" />
        </mxCell>
        <mxCell id="6EujANAd5X0Nz6XeVnfX-86" value="a=a+1" style="rounded=0;whiteSpace=wrap;html=1;" vertex="1" parent="WIyWlLk6GJQsqaUBKTNV-1">
          <mxGeometry x="168" y="580" width="120" height="60" as="geometry" />
        </mxCell>
        <mxCell id="6EujANAd5X0Nz6XeVnfX-87" value="จริง" style="edgeStyle=orthogonalEdgeStyle;rounded=0;orthogonalLoop=1;jettySize=auto;html=1;exitX=0;exitY=0.5;exitDx=0;exitDy=0;entryX=1;entryY=0.5;entryDx=0;entryDy=0;" edge="1" parent="WIyWlLk6GJQsqaUBKTNV-1" source="6EujANAd5X0Nz6XeVnfX-89" target="6EujANAd5X0Nz6XeVnfX-91">
          <mxGeometry relative="1" as="geometry" />
        </mxCell>
        <mxCell id="6EujANAd5X0Nz6XeVnfX-88" value="เท็จ" style="edgeStyle=orthogonalEdgeStyle;rounded=0;orthogonalLoop=1;jettySize=auto;html=1;exitX=1;exitY=0.5;exitDx=0;exitDy=0;entryX=0.5;entryY=0;entryDx=0;entryDy=0;" edge="1" parent="WIyWlLk6GJQsqaUBKTNV-1" source="6EujANAd5X0Nz6XeVnfX-89" target="6EujANAd5X0Nz6XeVnfX-111">
          <mxGeometry relative="1" as="geometry">
            <mxPoint x="699.5" y="670" as="targetPoint" />
          </mxGeometry>
        </mxCell>
        <mxCell id="6EujANAd5X0Nz6XeVnfX-89" value="เงินทอน&amp;gt;500" style="rhombus;whiteSpace=wrap;html=1;" vertex="1" parent="WIyWlLk6GJQsqaUBKTNV-1">
          <mxGeometry x="493" y="630" width="80" height="80" as="geometry" />
        </mxCell>
        <mxCell id="6EujANAd5X0Nz6XeVnfX-90" style="edgeStyle=orthogonalEdgeStyle;rounded=0;orthogonalLoop=1;jettySize=auto;html=1;exitX=0.5;exitY=1;exitDx=0;exitDy=0;entryX=0.5;entryY=0;entryDx=0;entryDy=0;" edge="1" parent="WIyWlLk6GJQsqaUBKTNV-1" source="6EujANAd5X0Nz6XeVnfX-91" target="6EujANAd5X0Nz6XeVnfX-96">
          <mxGeometry relative="1" as="geometry" />
        </mxCell>
        <mxCell id="6EujANAd5X0Nz6XeVnfX-91" value="เงินทอน-500" style="rounded=0;whiteSpace=wrap;html=1;" vertex="1" parent="WIyWlLk6GJQsqaUBKTNV-1">
          <mxGeometry x="333" y="640" width="120" height="60" as="geometry" />
        </mxCell>
        <mxCell id="6EujANAd5X0Nz6XeVnfX-92" value="จริง" style="edgeStyle=orthogonalEdgeStyle;rounded=0;orthogonalLoop=1;jettySize=auto;html=1;exitX=0;exitY=0.5;exitDx=0;exitDy=0;entryX=0;entryY=0.5;entryDx=0;entryDy=0;" edge="1" parent="WIyWlLk6GJQsqaUBKTNV-1" source="6EujANAd5X0Nz6XeVnfX-94" target="6EujANAd5X0Nz6XeVnfX-99">
          <mxGeometry relative="1" as="geometry">
            <mxPoint x="549.5" y="590" as="targetPoint" />
            <Array as="points">
              <mxPoint x="313.5" y="860" />
              <mxPoint x="313.5" y="590" />
            </Array>
          </mxGeometry>
        </mxCell>
        <mxCell id="6EujANAd5X0Nz6XeVnfX-135" value="เท็จ" style="edgeStyle=orthogonalEdgeStyle;rounded=0;orthogonalLoop=1;jettySize=auto;html=1;exitX=0.5;exitY=1;exitDx=0;exitDy=0;entryX=0.5;entryY=0;entryDx=0;entryDy=0;" edge="1" parent="WIyWlLk6GJQsqaUBKTNV-1" source="6EujANAd5X0Nz6XeVnfX-94" target="6EujANAd5X0Nz6XeVnfX-132">
          <mxGeometry relative="1" as="geometry" />
        </mxCell>
        <mxCell id="6EujANAd5X0Nz6XeVnfX-94" value="เงินทอน&amp;gt;500" style="rhombus;whiteSpace=wrap;html=1;" vertex="1" parent="WIyWlLk6GJQsqaUBKTNV-1">
          <mxGeometry x="353" y="820" width="80" height="80" as="geometry" />
        </mxCell>
        <mxCell id="6EujANAd5X0Nz6XeVnfX-95" style="edgeStyle=orthogonalEdgeStyle;rounded=0;orthogonalLoop=1;jettySize=auto;html=1;exitX=0.5;exitY=1;exitDx=0;exitDy=0;entryX=0.5;entryY=0;entryDx=0;entryDy=0;" edge="1" parent="WIyWlLk6GJQsqaUBKTNV-1" source="6EujANAd5X0Nz6XeVnfX-96" target="6EujANAd5X0Nz6XeVnfX-94">
          <mxGeometry relative="1" as="geometry" />
        </mxCell>
        <mxCell id="6EujANAd5X0Nz6XeVnfX-96" value="b=b+1" style="rounded=0;whiteSpace=wrap;html=1;" vertex="1" parent="WIyWlLk6GJQsqaUBKTNV-1">
          <mxGeometry x="333" y="730" width="120" height="60" as="geometry" />
        </mxCell>
        <mxCell id="6EujANAd5X0Nz6XeVnfX-97" style="edgeStyle=orthogonalEdgeStyle;rounded=0;orthogonalLoop=1;jettySize=auto;html=1;exitX=0.5;exitY=1;exitDx=0;exitDy=0;entryX=0.5;entryY=0;entryDx=0;entryDy=0;" edge="1" parent="WIyWlLk6GJQsqaUBKTNV-1" source="6EujANAd5X0Nz6XeVnfX-115" target="6EujANAd5X0Nz6XeVnfX-79">
          <mxGeometry relative="1" as="geometry" />
        </mxCell>
        <mxCell id="6EujANAd5X0Nz6XeVnfX-98" style="edgeStyle=orthogonalEdgeStyle;rounded=0;orthogonalLoop=1;jettySize=auto;html=1;exitX=0.5;exitY=1;exitDx=0;exitDy=0;entryX=0.5;entryY=0;entryDx=0;entryDy=0;" edge="1" parent="WIyWlLk6GJQsqaUBKTNV-1" source="6EujANAd5X0Nz6XeVnfX-99" target="6EujANAd5X0Nz6XeVnfX-89">
          <mxGeometry relative="1" as="geometry" />
        </mxCell>
        <mxCell id="6EujANAd5X0Nz6XeVnfX-99" value="" style="ellipse;whiteSpace=wrap;html=1;aspect=fixed;" vertex="1" parent="WIyWlLk6GJQsqaUBKTNV-1">
          <mxGeometry x="523" y="580" width="20" height="20" as="geometry" />
        </mxCell>
        <mxCell id="6EujANAd5X0Nz6XeVnfX-100" value="จริง" style="edgeStyle=orthogonalEdgeStyle;rounded=0;orthogonalLoop=1;jettySize=auto;html=1;exitX=0;exitY=0.5;exitDx=0;exitDy=0;entryX=1;entryY=0.5;entryDx=0;entryDy=0;" edge="1" parent="WIyWlLk6GJQsqaUBKTNV-1" source="6EujANAd5X0Nz6XeVnfX-102" target="6EujANAd5X0Nz6XeVnfX-104">
          <mxGeometry relative="1" as="geometry" />
        </mxCell>
        <mxCell id="6EujANAd5X0Nz6XeVnfX-116" value="เท็จ" style="edgeStyle=orthogonalEdgeStyle;rounded=0;orthogonalLoop=1;jettySize=auto;html=1;exitX=1;exitY=0.5;exitDx=0;exitDy=0;entryX=0.5;entryY=0;entryDx=0;entryDy=0;" edge="1" parent="WIyWlLk6GJQsqaUBKTNV-1" source="6EujANAd5X0Nz6XeVnfX-102" target="MSBUPBAipDb2ATlnMfmg-151">
          <mxGeometry relative="1" as="geometry" />
        </mxCell>
        <mxCell id="6EujANAd5X0Nz6XeVnfX-102" value="เงินทอน&amp;gt;100" style="rhombus;whiteSpace=wrap;html=1;" vertex="1" parent="WIyWlLk6GJQsqaUBKTNV-1">
          <mxGeometry x="659" y="780" width="80" height="80" as="geometry" />
        </mxCell>
        <mxCell id="6EujANAd5X0Nz6XeVnfX-103" style="edgeStyle=orthogonalEdgeStyle;rounded=0;orthogonalLoop=1;jettySize=auto;html=1;exitX=0.5;exitY=1;exitDx=0;exitDy=0;entryX=0.5;entryY=0;entryDx=0;entryDy=0;" edge="1" parent="WIyWlLk6GJQsqaUBKTNV-1" source="6EujANAd5X0Nz6XeVnfX-104" target="6EujANAd5X0Nz6XeVnfX-109">
          <mxGeometry relative="1" as="geometry" />
        </mxCell>
        <mxCell id="6EujANAd5X0Nz6XeVnfX-104" value="เงินทอน-100" style="rounded=0;whiteSpace=wrap;html=1;" vertex="1" parent="WIyWlLk6GJQsqaUBKTNV-1">
          <mxGeometry x="499" y="790" width="120" height="60" as="geometry" />
        </mxCell>
        <mxCell id="6EujANAd5X0Nz6XeVnfX-105" value="จริง" style="edgeStyle=orthogonalEdgeStyle;rounded=0;orthogonalLoop=1;jettySize=auto;html=1;exitX=0;exitY=0.5;exitDx=0;exitDy=0;entryX=0;entryY=0.5;entryDx=0;entryDy=0;" edge="1" parent="WIyWlLk6GJQsqaUBKTNV-1" source="6EujANAd5X0Nz6XeVnfX-107" target="6EujANAd5X0Nz6XeVnfX-111">
          <mxGeometry relative="1" as="geometry">
            <mxPoint x="715.5" y="740" as="targetPoint" />
            <Array as="points">
              <mxPoint x="479.5" y="1010" />
              <mxPoint x="479.5" y="740" />
            </Array>
          </mxGeometry>
        </mxCell>
        <mxCell id="6EujANAd5X0Nz6XeVnfX-136" value="เท็จ" style="edgeStyle=orthogonalEdgeStyle;rounded=0;orthogonalLoop=1;jettySize=auto;html=1;exitX=0.5;exitY=1;exitDx=0;exitDy=0;entryX=0.5;entryY=0;entryDx=0;entryDy=0;" edge="1" parent="WIyWlLk6GJQsqaUBKTNV-1" source="6EujANAd5X0Nz6XeVnfX-107" target="6EujANAd5X0Nz6XeVnfX-131">
          <mxGeometry relative="1" as="geometry">
            <mxPoint x="570" y="1266" as="targetPoint" />
          </mxGeometry>
        </mxCell>
        <mxCell id="6EujANAd5X0Nz6XeVnfX-107" value="เงินทอน&amp;gt;100" style="rhombus;whiteSpace=wrap;html=1;" vertex="1" parent="WIyWlLk6GJQsqaUBKTNV-1">
          <mxGeometry x="519" y="970" width="80" height="80" as="geometry" />
        </mxCell>
        <mxCell id="6EujANAd5X0Nz6XeVnfX-108" style="edgeStyle=orthogonalEdgeStyle;rounded=0;orthogonalLoop=1;jettySize=auto;html=1;exitX=0.5;exitY=1;exitDx=0;exitDy=0;entryX=0.5;entryY=0;entryDx=0;entryDy=0;" edge="1" parent="WIyWlLk6GJQsqaUBKTNV-1" source="6EujANAd5X0Nz6XeVnfX-109" target="6EujANAd5X0Nz6XeVnfX-107">
          <mxGeometry relative="1" as="geometry" />
        </mxCell>
        <mxCell id="6EujANAd5X0Nz6XeVnfX-109" value="c=c+1" style="rounded=0;whiteSpace=wrap;html=1;" vertex="1" parent="WIyWlLk6GJQsqaUBKTNV-1">
          <mxGeometry x="499" y="880" width="120" height="60" as="geometry" />
        </mxCell>
        <mxCell id="6EujANAd5X0Nz6XeVnfX-110" style="edgeStyle=orthogonalEdgeStyle;rounded=0;orthogonalLoop=1;jettySize=auto;html=1;exitX=0.5;exitY=1;exitDx=0;exitDy=0;entryX=0.5;entryY=0;entryDx=0;entryDy=0;" edge="1" parent="WIyWlLk6GJQsqaUBKTNV-1" source="6EujANAd5X0Nz6XeVnfX-111" target="6EujANAd5X0Nz6XeVnfX-102">
          <mxGeometry relative="1" as="geometry" />
        </mxCell>
        <mxCell id="6EujANAd5X0Nz6XeVnfX-111" value="" style="ellipse;whiteSpace=wrap;html=1;aspect=fixed;" vertex="1" parent="WIyWlLk6GJQsqaUBKTNV-1">
          <mxGeometry x="689" y="730" width="20" height="20" as="geometry" />
        </mxCell>
        <mxCell id="6EujANAd5X0Nz6XeVnfX-115" value="" style="ellipse;whiteSpace=wrap;html=1;aspect=fixed;" vertex="1" parent="WIyWlLk6GJQsqaUBKTNV-1">
          <mxGeometry x="361.75" y="440" width="20" height="20" as="geometry" />
        </mxCell>
        <mxCell id="6EujANAd5X0Nz6XeVnfX-129" style="edgeStyle=orthogonalEdgeStyle;rounded=0;orthogonalLoop=1;jettySize=auto;html=1;exitX=1;exitY=0.5;exitDx=0;exitDy=0;entryX=0;entryY=0.5;entryDx=0;entryDy=0;" edge="1" parent="WIyWlLk6GJQsqaUBKTNV-1" source="6EujANAd5X0Nz6XeVnfX-118" target="MSBUPBAipDb2ATlnMfmg-226">
          <mxGeometry relative="1" as="geometry" />
        </mxCell>
        <mxCell id="6EujANAd5X0Nz6XeVnfX-118" value="" style="ellipse;whiteSpace=wrap;html=1;aspect=fixed;" vertex="1" parent="WIyWlLk6GJQsqaUBKTNV-1">
          <mxGeometry x="1363.52" y="1996" width="20" height="20" as="geometry" />
        </mxCell>
        <mxCell id="6EujANAd5X0Nz6XeVnfX-128" style="edgeStyle=orthogonalEdgeStyle;rounded=0;orthogonalLoop=1;jettySize=auto;html=1;exitX=1;exitY=0.5;exitDx=0;exitDy=0;entryX=0;entryY=0.5;entryDx=0;entryDy=0;" edge="1" parent="WIyWlLk6GJQsqaUBKTNV-1" source="6EujANAd5X0Nz6XeVnfX-119" target="6EujANAd5X0Nz6XeVnfX-118">
          <mxGeometry relative="1" as="geometry" />
        </mxCell>
        <mxCell id="6EujANAd5X0Nz6XeVnfX-119" value="" style="ellipse;whiteSpace=wrap;html=1;aspect=fixed;" vertex="1" parent="WIyWlLk6GJQsqaUBKTNV-1">
          <mxGeometry x="1199.52" y="1996" width="20" height="20" as="geometry" />
        </mxCell>
        <mxCell id="6EujANAd5X0Nz6XeVnfX-127" style="edgeStyle=orthogonalEdgeStyle;rounded=0;orthogonalLoop=1;jettySize=auto;html=1;exitX=1;exitY=0.5;exitDx=0;exitDy=0;entryX=0;entryY=0.5;entryDx=0;entryDy=0;" edge="1" parent="WIyWlLk6GJQsqaUBKTNV-1" source="6EujANAd5X0Nz6XeVnfX-120" target="6EujANAd5X0Nz6XeVnfX-119">
          <mxGeometry relative="1" as="geometry" />
        </mxCell>
        <mxCell id="6EujANAd5X0Nz6XeVnfX-120" value="" style="ellipse;whiteSpace=wrap;html=1;aspect=fixed;" vertex="1" parent="WIyWlLk6GJQsqaUBKTNV-1">
          <mxGeometry x="1035.51" y="1996" width="20" height="20" as="geometry" />
        </mxCell>
        <mxCell id="6EujANAd5X0Nz6XeVnfX-126" style="edgeStyle=orthogonalEdgeStyle;rounded=0;orthogonalLoop=1;jettySize=auto;html=1;exitX=1;exitY=0.5;exitDx=0;exitDy=0;entryX=0;entryY=0.5;entryDx=0;entryDy=0;" edge="1" parent="WIyWlLk6GJQsqaUBKTNV-1" source="6EujANAd5X0Nz6XeVnfX-121" target="6EujANAd5X0Nz6XeVnfX-120">
          <mxGeometry relative="1" as="geometry" />
        </mxCell>
        <mxCell id="6EujANAd5X0Nz6XeVnfX-121" value="" style="ellipse;whiteSpace=wrap;html=1;aspect=fixed;" vertex="1" parent="WIyWlLk6GJQsqaUBKTNV-1">
          <mxGeometry x="869.51" y="1996" width="20" height="20" as="geometry" />
        </mxCell>
        <mxCell id="6EujANAd5X0Nz6XeVnfX-141" style="edgeStyle=orthogonalEdgeStyle;rounded=0;orthogonalLoop=1;jettySize=auto;html=1;exitX=0.5;exitY=1;exitDx=0;exitDy=0;entryX=0;entryY=0.5;entryDx=0;entryDy=0;" edge="1" parent="WIyWlLk6GJQsqaUBKTNV-1" source="6EujANAd5X0Nz6XeVnfX-130" target="6EujANAd5X0Nz6XeVnfX-121">
          <mxGeometry relative="1" as="geometry" />
        </mxCell>
        <mxCell id="6EujANAd5X0Nz6XeVnfX-130" value="" style="ellipse;whiteSpace=wrap;html=1;aspect=fixed;" vertex="1" parent="WIyWlLk6GJQsqaUBKTNV-1">
          <mxGeometry x="709.51" y="1316" width="20" height="20" as="geometry" />
        </mxCell>
        <mxCell id="6EujANAd5X0Nz6XeVnfX-140" style="edgeStyle=orthogonalEdgeStyle;rounded=0;orthogonalLoop=1;jettySize=auto;html=1;exitX=1;exitY=0.5;exitDx=0;exitDy=0;entryX=0;entryY=0.5;entryDx=0;entryDy=0;" edge="1" parent="WIyWlLk6GJQsqaUBKTNV-1" source="6EujANAd5X0Nz6XeVnfX-131" target="6EujANAd5X0Nz6XeVnfX-130">
          <mxGeometry relative="1" as="geometry" />
        </mxCell>
        <mxCell id="6EujANAd5X0Nz6XeVnfX-131" value="" style="ellipse;whiteSpace=wrap;html=1;aspect=fixed;" vertex="1" parent="WIyWlLk6GJQsqaUBKTNV-1">
          <mxGeometry x="549" y="1316" width="20" height="20" as="geometry" />
        </mxCell>
        <mxCell id="6EujANAd5X0Nz6XeVnfX-139" style="edgeStyle=orthogonalEdgeStyle;rounded=0;orthogonalLoop=1;jettySize=auto;html=1;exitX=1;exitY=0.5;exitDx=0;exitDy=0;entryX=0;entryY=0.5;entryDx=0;entryDy=0;" edge="1" parent="WIyWlLk6GJQsqaUBKTNV-1" source="6EujANAd5X0Nz6XeVnfX-132" target="6EujANAd5X0Nz6XeVnfX-131">
          <mxGeometry relative="1" as="geometry" />
        </mxCell>
        <mxCell id="6EujANAd5X0Nz6XeVnfX-132" value="" style="ellipse;whiteSpace=wrap;html=1;aspect=fixed;" vertex="1" parent="WIyWlLk6GJQsqaUBKTNV-1">
          <mxGeometry x="383" y="1316" width="20" height="20" as="geometry" />
        </mxCell>
        <mxCell id="6EujANAd5X0Nz6XeVnfX-138" style="edgeStyle=orthogonalEdgeStyle;rounded=0;orthogonalLoop=1;jettySize=auto;html=1;exitX=1;exitY=0.5;exitDx=0;exitDy=0;entryX=0;entryY=0.5;entryDx=0;entryDy=0;" edge="1" parent="WIyWlLk6GJQsqaUBKTNV-1" source="6EujANAd5X0Nz6XeVnfX-133" target="6EujANAd5X0Nz6XeVnfX-132">
          <mxGeometry relative="1" as="geometry" />
        </mxCell>
        <mxCell id="6EujANAd5X0Nz6XeVnfX-133" value="" style="ellipse;whiteSpace=wrap;html=1;aspect=fixed;" vertex="1" parent="WIyWlLk6GJQsqaUBKTNV-1">
          <mxGeometry x="218" y="1316" width="20" height="20" as="geometry" />
        </mxCell>
        <mxCell id="6EujANAd5X0Nz6XeVnfX-143" style="edgeStyle=orthogonalEdgeStyle;rounded=0;orthogonalLoop=1;jettySize=auto;html=1;exitX=0;exitY=0.25;exitDx=0;exitDy=0;entryX=1;entryY=0.5;entryDx=0;entryDy=0;" edge="1" parent="WIyWlLk6GJQsqaUBKTNV-1" source="6EujANAd5X0Nz6XeVnfX-142" target="6EujANAd5X0Nz6XeVnfX-21">
          <mxGeometry relative="1" as="geometry">
            <Array as="points">
              <mxPoint x="-40" y="586" />
              <mxPoint x="-40" y="1428" />
            </Array>
          </mxGeometry>
        </mxCell>
        <mxCell id="6EujANAd5X0Nz6XeVnfX-142" value="" style="swimlane;startSize=0;" vertex="1" parent="WIyWlLk6GJQsqaUBKTNV-1">
          <mxGeometry x="10" y="86" width="1760" height="2000" as="geometry" />
        </mxCell>
        <mxCell id="6EujANAd5X0Nz6XeVnfX-255" value="จริง" style="edgeStyle=orthogonalEdgeStyle;rounded=0;orthogonalLoop=1;jettySize=auto;html=1;exitX=1;exitY=0.5;exitDx=0;exitDy=0;entryX=0;entryY=0.5;entryDx=0;entryDy=0;" edge="1" parent="WIyWlLk6GJQsqaUBKTNV-1" source="6EujANAd5X0Nz6XeVnfX-146" target="6EujANAd5X0Nz6XeVnfX-328">
          <mxGeometry relative="1" as="geometry" />
        </mxCell>
        <mxCell id="6EujANAd5X0Nz6XeVnfX-281" style="edgeStyle=orthogonalEdgeStyle;rounded=0;orthogonalLoop=1;jettySize=auto;html=1;exitX=0.5;exitY=1;exitDx=0;exitDy=0;entryX=0.5;entryY=0;entryDx=0;entryDy=0;" edge="1" parent="WIyWlLk6GJQsqaUBKTNV-1" source="6EujANAd5X0Nz6XeVnfX-146" target="6EujANAd5X0Nz6XeVnfX-149">
          <mxGeometry relative="1" as="geometry" />
        </mxCell>
        <mxCell id="6EujANAd5X0Nz6XeVnfX-146" value="เลือก หมายเลข6" style="rhombus;whiteSpace=wrap;html=1;" vertex="1" parent="WIyWlLk6GJQsqaUBKTNV-1">
          <mxGeometry x="-1290.0000000000002" y="2291" width="80" height="80" as="geometry" />
        </mxCell>
        <mxCell id="6EujANAd5X0Nz6XeVnfX-148" style="edgeStyle=orthogonalEdgeStyle;rounded=0;orthogonalLoop=1;jettySize=auto;html=1;exitX=0.5;exitY=1;exitDx=0;exitDy=0;entryX=0.5;entryY=0;entryDx=0;entryDy=0;" edge="1" parent="WIyWlLk6GJQsqaUBKTNV-1" source="6EujANAd5X0Nz6XeVnfX-149" target="6EujANAd5X0Nz6XeVnfX-165">
          <mxGeometry relative="1" as="geometry" />
        </mxCell>
        <mxCell id="6EujANAd5X0Nz6XeVnfX-254" value="จริง" style="edgeStyle=orthogonalEdgeStyle;rounded=0;orthogonalLoop=1;jettySize=auto;html=1;exitX=0;exitY=0.5;exitDx=0;exitDy=0;entryX=1;entryY=0.5;entryDx=0;entryDy=0;" edge="1" parent="WIyWlLk6GJQsqaUBKTNV-1" source="6EujANAd5X0Nz6XeVnfX-149" target="6EujANAd5X0Nz6XeVnfX-310">
          <mxGeometry relative="1" as="geometry">
            <Array as="points">
              <mxPoint x="-1370" y="2589" />
              <mxPoint x="-1370" y="2589" />
            </Array>
          </mxGeometry>
        </mxCell>
        <mxCell id="6EujANAd5X0Nz6XeVnfX-149" value="เลือก หมายเลข7" style="rhombus;whiteSpace=wrap;html=1;" vertex="1" parent="WIyWlLk6GJQsqaUBKTNV-1">
          <mxGeometry x="-1289.0000000000002" y="2549" width="80" height="80" as="geometry" />
        </mxCell>
        <mxCell id="6EujANAd5X0Nz6XeVnfX-357" style="edgeStyle=orthogonalEdgeStyle;rounded=0;orthogonalLoop=1;jettySize=auto;html=1;exitX=0.5;exitY=1;exitDx=0;exitDy=0;entryX=0.5;entryY=0;entryDx=0;entryDy=0;" edge="1" parent="WIyWlLk6GJQsqaUBKTNV-1" source="6EujANAd5X0Nz6XeVnfX-151" target="6EujANAd5X0Nz6XeVnfX-167">
          <mxGeometry relative="1" as="geometry" />
        </mxCell>
        <mxCell id="6EujANAd5X0Nz6XeVnfX-151" value="จำนวนสินค้าA6=นำนวนสินค้าA6+1" style="whiteSpace=wrap;html=1;" vertex="1" parent="WIyWlLk6GJQsqaUBKTNV-1">
          <mxGeometry x="-1041.5000000000002" y="2409" width="120" height="60" as="geometry" />
        </mxCell>
        <mxCell id="6EujANAd5X0Nz6XeVnfX-356" style="edgeStyle=orthogonalEdgeStyle;rounded=0;orthogonalLoop=1;jettySize=auto;html=1;exitX=0.5;exitY=1;exitDx=0;exitDy=0;entryX=0.5;entryY=0;entryDx=0;entryDy=0;" edge="1" parent="WIyWlLk6GJQsqaUBKTNV-1" source="6EujANAd5X0Nz6XeVnfX-153" target="6EujANAd5X0Nz6XeVnfX-169">
          <mxGeometry relative="1" as="geometry" />
        </mxCell>
        <mxCell id="6EujANAd5X0Nz6XeVnfX-153" value="จำนวนสินค้าA7=จำนวนสินค้าA7+1" style="whiteSpace=wrap;html=1;" vertex="1" parent="WIyWlLk6GJQsqaUBKTNV-1">
          <mxGeometry x="-1522.5000000000002" y="2659" width="120" height="60" as="geometry" />
        </mxCell>
        <mxCell id="6EujANAd5X0Nz6XeVnfX-160" value="" style="ellipse;whiteSpace=wrap;html=1;aspect=fixed;" vertex="1" parent="WIyWlLk6GJQsqaUBKTNV-1">
          <mxGeometry x="-1580.0000000000002" y="2864" width="20" height="20" as="geometry" />
        </mxCell>
        <mxCell id="6EujANAd5X0Nz6XeVnfX-162" value="" style="ellipse;whiteSpace=wrap;html=1;aspect=fixed;" vertex="1" parent="WIyWlLk6GJQsqaUBKTNV-1">
          <mxGeometry x="-891.5" y="2608.5" width="20" height="20" as="geometry" />
        </mxCell>
        <mxCell id="6EujANAd5X0Nz6XeVnfX-250" style="edgeStyle=orthogonalEdgeStyle;rounded=0;orthogonalLoop=1;jettySize=auto;html=1;exitX=0.5;exitY=1;exitDx=0;exitDy=0;entryX=0.5;entryY=0;entryDx=0;entryDy=0;" edge="1" parent="WIyWlLk6GJQsqaUBKTNV-1" source="6EujANAd5X0Nz6XeVnfX-165" target="6EujANAd5X0Nz6XeVnfX-249">
          <mxGeometry relative="1" as="geometry" />
        </mxCell>
        <mxCell id="6EujANAd5X0Nz6XeVnfX-165" value="" style="ellipse;whiteSpace=wrap;html=1;aspect=fixed;" vertex="1" parent="WIyWlLk6GJQsqaUBKTNV-1">
          <mxGeometry x="-1260.0000000000002" y="2699" width="22" height="22" as="geometry" />
        </mxCell>
        <mxCell id="6EujANAd5X0Nz6XeVnfX-256" style="edgeStyle=orthogonalEdgeStyle;rounded=0;orthogonalLoop=1;jettySize=auto;html=1;exitX=1;exitY=0.5;exitDx=0;exitDy=0;entryX=0;entryY=0.5;entryDx=0;entryDy=0;" edge="1" parent="WIyWlLk6GJQsqaUBKTNV-1" source="6EujANAd5X0Nz6XeVnfX-167" target="6EujANAd5X0Nz6XeVnfX-162">
          <mxGeometry relative="1" as="geometry" />
        </mxCell>
        <mxCell id="6EujANAd5X0Nz6XeVnfX-167" value="ราคาสินค้าA6=จำนวนสินค้าA6*20" style="rounded=0;whiteSpace=wrap;html=1;" vertex="1" parent="WIyWlLk6GJQsqaUBKTNV-1">
          <mxGeometry x="-1041.5000000000002" y="2588.5" width="120" height="60" as="geometry" />
        </mxCell>
        <mxCell id="6EujANAd5X0Nz6XeVnfX-257" style="edgeStyle=orthogonalEdgeStyle;rounded=0;orthogonalLoop=1;jettySize=auto;html=1;exitX=0;exitY=0.5;exitDx=0;exitDy=0;" edge="1" parent="WIyWlLk6GJQsqaUBKTNV-1" source="6EujANAd5X0Nz6XeVnfX-169" target="6EujANAd5X0Nz6XeVnfX-160">
          <mxGeometry relative="1" as="geometry" />
        </mxCell>
        <mxCell id="6EujANAd5X0Nz6XeVnfX-169" value="ราคาสินค้าA7=จำนวนสินค้าA7*15" style="rounded=0;whiteSpace=wrap;html=1;" vertex="1" parent="WIyWlLk6GJQsqaUBKTNV-1">
          <mxGeometry x="-1522.5000000000002" y="2844" width="120" height="60" as="geometry" />
        </mxCell>
        <mxCell id="6EujANAd5X0Nz6XeVnfX-172" value="เลือกสินค้า" style="shape=parallelogram;perimeter=parallelogramPerimeter;whiteSpace=wrap;html=1;fixedSize=1;" vertex="1" parent="WIyWlLk6GJQsqaUBKTNV-1">
          <mxGeometry x="-1310.0000000000002" y="683" width="120" height="60" as="geometry" />
        </mxCell>
        <mxCell id="6EujANAd5X0Nz6XeVnfX-173" value="จริง" style="edgeStyle=orthogonalEdgeStyle;rounded=0;orthogonalLoop=1;jettySize=auto;html=1;entryX=1;entryY=0.5;entryDx=0;entryDy=0;" edge="1" parent="WIyWlLk6GJQsqaUBKTNV-1" source="6EujANAd5X0Nz6XeVnfX-175" target="6EujANAd5X0Nz6XeVnfX-258">
          <mxGeometry relative="1" as="geometry">
            <mxPoint x="-1390" y="939" as="targetPoint" />
          </mxGeometry>
        </mxCell>
        <mxCell id="6EujANAd5X0Nz6XeVnfX-174" value="เท็จ" style="edgeStyle=orthogonalEdgeStyle;rounded=0;orthogonalLoop=1;jettySize=auto;html=1;entryX=0.5;entryY=0;entryDx=0;entryDy=0;exitX=0.5;exitY=1;exitDx=0;exitDy=0;" edge="1" parent="WIyWlLk6GJQsqaUBKTNV-1" source="6EujANAd5X0Nz6XeVnfX-175" target="6EujANAd5X0Nz6XeVnfX-178">
          <mxGeometry relative="1" as="geometry">
            <mxPoint x="-1260" y="1049" as="sourcePoint" />
          </mxGeometry>
        </mxCell>
        <mxCell id="6EujANAd5X0Nz6XeVnfX-175" value="เลือก หมายเลข1" style="rhombus;whiteSpace=wrap;html=1;" vertex="1" parent="WIyWlLk6GJQsqaUBKTNV-1">
          <mxGeometry x="-1290.0000000000002" y="899" width="80" height="80" as="geometry" />
        </mxCell>
        <mxCell id="6EujANAd5X0Nz6XeVnfX-177" value="เท็จ" style="edgeStyle=orthogonalEdgeStyle;rounded=0;orthogonalLoop=1;jettySize=auto;html=1;exitX=0.5;exitY=1;exitDx=0;exitDy=0;entryX=0.5;entryY=0;entryDx=0;entryDy=0;" edge="1" parent="WIyWlLk6GJQsqaUBKTNV-1" source="6EujANAd5X0Nz6XeVnfX-178" target="6EujANAd5X0Nz6XeVnfX-181">
          <mxGeometry relative="1" as="geometry" />
        </mxCell>
        <mxCell id="6EujANAd5X0Nz6XeVnfX-284" style="edgeStyle=orthogonalEdgeStyle;rounded=0;orthogonalLoop=1;jettySize=auto;html=1;exitX=1;exitY=0.5;exitDx=0;exitDy=0;entryX=0;entryY=0.5;entryDx=0;entryDy=0;" edge="1" parent="WIyWlLk6GJQsqaUBKTNV-1" source="6EujANAd5X0Nz6XeVnfX-178" target="6EujANAd5X0Nz6XeVnfX-282">
          <mxGeometry relative="1" as="geometry" />
        </mxCell>
        <mxCell id="6EujANAd5X0Nz6XeVnfX-178" value="เลือก หมายเลข2" style="rhombus;whiteSpace=wrap;html=1;" vertex="1" parent="WIyWlLk6GJQsqaUBKTNV-1">
          <mxGeometry x="-1290.0000000000002" y="1155" width="80" height="80" as="geometry" />
        </mxCell>
        <mxCell id="6EujANAd5X0Nz6XeVnfX-179" value="จริง" style="edgeStyle=orthogonalEdgeStyle;rounded=0;orthogonalLoop=1;jettySize=auto;html=1;exitX=0;exitY=0.5;exitDx=0;exitDy=0;entryX=1;entryY=0.5;entryDx=0;entryDy=0;" edge="1" parent="WIyWlLk6GJQsqaUBKTNV-1" source="6EujANAd5X0Nz6XeVnfX-181" target="6EujANAd5X0Nz6XeVnfX-291">
          <mxGeometry relative="1" as="geometry">
            <mxPoint x="-1400" y="1561" as="targetPoint" />
          </mxGeometry>
        </mxCell>
        <mxCell id="6EujANAd5X0Nz6XeVnfX-180" value="เท็จ" style="edgeStyle=orthogonalEdgeStyle;rounded=0;orthogonalLoop=1;jettySize=auto;html=1;exitX=0.5;exitY=1;exitDx=0;exitDy=0;entryX=0.5;entryY=0;entryDx=0;entryDy=0;" edge="1" parent="WIyWlLk6GJQsqaUBKTNV-1" source="6EujANAd5X0Nz6XeVnfX-181" target="6EujANAd5X0Nz6XeVnfX-195">
          <mxGeometry relative="1" as="geometry" />
        </mxCell>
        <mxCell id="6EujANAd5X0Nz6XeVnfX-181" value="เลือก หมายเลข3" style="rhombus;whiteSpace=wrap;html=1;" vertex="1" parent="WIyWlLk6GJQsqaUBKTNV-1">
          <mxGeometry x="-1290.0000000000002" y="1429" width="80" height="80" as="geometry" />
        </mxCell>
        <mxCell id="6EujANAd5X0Nz6XeVnfX-262" style="edgeStyle=orthogonalEdgeStyle;rounded=0;orthogonalLoop=1;jettySize=auto;html=1;exitX=1;exitY=1;exitDx=0;exitDy=0;" edge="1" parent="WIyWlLk6GJQsqaUBKTNV-1" source="6EujANAd5X0Nz6XeVnfX-183">
          <mxGeometry relative="1" as="geometry">
            <mxPoint x="-1409.888888888889" y="1065.888888888889" as="targetPoint" />
          </mxGeometry>
        </mxCell>
        <mxCell id="6EujANAd5X0Nz6XeVnfX-353" style="edgeStyle=orthogonalEdgeStyle;rounded=0;orthogonalLoop=1;jettySize=auto;html=1;exitX=0.5;exitY=1;exitDx=0;exitDy=0;entryX=0.5;entryY=0;entryDx=0;entryDy=0;" edge="1" parent="WIyWlLk6GJQsqaUBKTNV-1" source="6EujANAd5X0Nz6XeVnfX-183" target="6EujANAd5X0Nz6XeVnfX-211">
          <mxGeometry relative="1" as="geometry" />
        </mxCell>
        <mxCell id="6EujANAd5X0Nz6XeVnfX-183" value="จำนวนสินค้าA1=จำนวนสินค้าA1+1" style="whiteSpace=wrap;html=1;" vertex="1" parent="WIyWlLk6GJQsqaUBKTNV-1">
          <mxGeometry x="-1530.0000000000002" y="1009" width="120" height="60" as="geometry" />
        </mxCell>
        <mxCell id="6EujANAd5X0Nz6XeVnfX-184" style="edgeStyle=orthogonalEdgeStyle;rounded=0;orthogonalLoop=1;jettySize=auto;html=1;exitX=0.5;exitY=1;exitDx=0;exitDy=0;entryX=0.5;entryY=0;entryDx=0;entryDy=0;" edge="1" parent="WIyWlLk6GJQsqaUBKTNV-1" source="6EujANAd5X0Nz6XeVnfX-185" target="6EujANAd5X0Nz6XeVnfX-175">
          <mxGeometry relative="1" as="geometry" />
        </mxCell>
        <mxCell id="6EujANAd5X0Nz6XeVnfX-185" value="รับข้อมูลตัวเลข&lt;div&gt;1,2,3,4,5,6,7,8&lt;/div&gt;&lt;div&gt;,9,0,&lt;/div&gt;&lt;div&gt;ยืนยัน,ยกเลิก&lt;/div&gt;" style="shape=manualInput;whiteSpace=wrap;html=1;" vertex="1" parent="WIyWlLk6GJQsqaUBKTNV-1">
          <mxGeometry x="-1335.0000000000002" y="769" width="170" height="103" as="geometry" />
        </mxCell>
        <mxCell id="6EujANAd5X0Nz6XeVnfX-247" style="edgeStyle=orthogonalEdgeStyle;rounded=0;orthogonalLoop=1;jettySize=auto;html=1;exitX=0.5;exitY=1;exitDx=0;exitDy=0;entryX=0.5;entryY=0;entryDx=0;entryDy=0;" edge="1" parent="WIyWlLk6GJQsqaUBKTNV-1" source="6EujANAd5X0Nz6XeVnfX-187" target="6EujANAd5X0Nz6XeVnfX-246">
          <mxGeometry relative="1" as="geometry" />
        </mxCell>
        <mxCell id="6EujANAd5X0Nz6XeVnfX-187" value="&lt;div&gt;ประกาศตัวแปล&lt;/div&gt;จำนวนสินค้าA1 = 0&lt;div&gt;จำนวนสินค้าA2 = 0&lt;/div&gt;&lt;div&gt;จำนวนสินค้าA3 = 0&lt;/div&gt;&lt;div&gt;จำนวนสินค้าA4 = 0&lt;/div&gt;&lt;div&gt;จำนวนสินค้าA5 = 0&lt;/div&gt;&lt;div&gt;จำนวนสินค้าA6 = 0&lt;/div&gt;&lt;div&gt;จำนวนสินค้าA7 = 0&lt;/div&gt;" style="rounded=0;whiteSpace=wrap;html=1;" vertex="1" parent="WIyWlLk6GJQsqaUBKTNV-1">
          <mxGeometry x="-1346.6100000000001" y="129" width="190" height="130" as="geometry" />
        </mxCell>
        <mxCell id="6EujANAd5X0Nz6XeVnfX-359" style="edgeStyle=orthogonalEdgeStyle;rounded=0;orthogonalLoop=1;jettySize=auto;html=1;exitX=0.5;exitY=1;exitDx=0;exitDy=0;entryX=0.5;entryY=0;entryDx=0;entryDy=0;" edge="1" parent="WIyWlLk6GJQsqaUBKTNV-1" source="6EujANAd5X0Nz6XeVnfX-189" target="6EujANAd5X0Nz6XeVnfX-213">
          <mxGeometry relative="1" as="geometry" />
        </mxCell>
        <mxCell id="6EujANAd5X0Nz6XeVnfX-189" value="จำนวนสินค้าA2=จำนวนสินค้าA2+1" style="whiteSpace=wrap;html=1;" vertex="1" parent="WIyWlLk6GJQsqaUBKTNV-1">
          <mxGeometry x="-1036.5000000000002" y="1271.5" width="120" height="60" as="geometry" />
        </mxCell>
        <mxCell id="6EujANAd5X0Nz6XeVnfX-354" style="edgeStyle=orthogonalEdgeStyle;rounded=0;orthogonalLoop=1;jettySize=auto;html=1;exitX=0.5;exitY=1;exitDx=0;exitDy=0;entryX=0.5;entryY=0;entryDx=0;entryDy=0;" edge="1" parent="WIyWlLk6GJQsqaUBKTNV-1" source="6EujANAd5X0Nz6XeVnfX-191" target="6EujANAd5X0Nz6XeVnfX-215">
          <mxGeometry relative="1" as="geometry" />
        </mxCell>
        <mxCell id="6EujANAd5X0Nz6XeVnfX-191" value="จำนวนสินค้าA3=จำนวนสินค้าA3+1" style="whiteSpace=wrap;html=1;" vertex="1" parent="WIyWlLk6GJQsqaUBKTNV-1">
          <mxGeometry x="-1530.0000000000002" y="1539" width="120" height="60" as="geometry" />
        </mxCell>
        <mxCell id="6EujANAd5X0Nz6XeVnfX-192" style="edgeStyle=orthogonalEdgeStyle;rounded=0;orthogonalLoop=1;jettySize=auto;html=1;exitX=0.5;exitY=1;exitDx=0;exitDy=0;entryX=0.499;entryY=0.154;entryDx=0;entryDy=0;entryPerimeter=0;" edge="1" parent="WIyWlLk6GJQsqaUBKTNV-1" source="6EujANAd5X0Nz6XeVnfX-172" target="6EujANAd5X0Nz6XeVnfX-185">
          <mxGeometry relative="1" as="geometry" />
        </mxCell>
        <mxCell id="6EujANAd5X0Nz6XeVnfX-194" value="จริง" style="edgeStyle=orthogonalEdgeStyle;rounded=0;orthogonalLoop=1;jettySize=auto;html=1;exitX=1;exitY=0.5;exitDx=0;exitDy=0;entryX=0;entryY=0.5;entryDx=0;entryDy=0;" edge="1" parent="WIyWlLk6GJQsqaUBKTNV-1" source="6EujANAd5X0Nz6XeVnfX-195" target="6EujANAd5X0Nz6XeVnfX-319">
          <mxGeometry relative="1" as="geometry">
            <mxPoint x="-1060" y="1749" as="targetPoint" />
          </mxGeometry>
        </mxCell>
        <mxCell id="6EujANAd5X0Nz6XeVnfX-279" style="edgeStyle=orthogonalEdgeStyle;rounded=0;orthogonalLoop=1;jettySize=auto;html=1;exitX=0.5;exitY=1;exitDx=0;exitDy=0;entryX=0.5;entryY=0;entryDx=0;entryDy=0;" edge="1" parent="WIyWlLk6GJQsqaUBKTNV-1" source="6EujANAd5X0Nz6XeVnfX-195" target="6EujANAd5X0Nz6XeVnfX-198">
          <mxGeometry relative="1" as="geometry" />
        </mxCell>
        <mxCell id="6EujANAd5X0Nz6XeVnfX-195" value="เลือก หมายเลข4" style="rhombus;whiteSpace=wrap;html=1;" vertex="1" parent="WIyWlLk6GJQsqaUBKTNV-1">
          <mxGeometry x="-1289.0000000000002" y="1709" width="80" height="80" as="geometry" />
        </mxCell>
        <mxCell id="6EujANAd5X0Nz6XeVnfX-196" value="จริง" style="edgeStyle=orthogonalEdgeStyle;rounded=0;orthogonalLoop=1;jettySize=auto;html=1;exitX=0;exitY=0.5;exitDx=0;exitDy=0;entryX=1;entryY=0.5;entryDx=0;entryDy=0;" edge="1" parent="WIyWlLk6GJQsqaUBKTNV-1" source="6EujANAd5X0Nz6XeVnfX-198" target="6EujANAd5X0Nz6XeVnfX-299">
          <mxGeometry relative="1" as="geometry" />
        </mxCell>
        <mxCell id="6EujANAd5X0Nz6XeVnfX-280" style="edgeStyle=orthogonalEdgeStyle;rounded=0;orthogonalLoop=1;jettySize=auto;html=1;exitX=0.5;exitY=1;exitDx=0;exitDy=0;entryX=0.5;entryY=0;entryDx=0;entryDy=0;" edge="1" parent="WIyWlLk6GJQsqaUBKTNV-1" source="6EujANAd5X0Nz6XeVnfX-198" target="6EujANAd5X0Nz6XeVnfX-146">
          <mxGeometry relative="1" as="geometry" />
        </mxCell>
        <mxCell id="6EujANAd5X0Nz6XeVnfX-198" value="เลือก หมายเลข5" style="rhombus;whiteSpace=wrap;html=1;" vertex="1" parent="WIyWlLk6GJQsqaUBKTNV-1">
          <mxGeometry x="-1289.0000000000002" y="1959" width="80" height="80" as="geometry" />
        </mxCell>
        <mxCell id="6EujANAd5X0Nz6XeVnfX-358" style="edgeStyle=orthogonalEdgeStyle;rounded=0;orthogonalLoop=1;jettySize=auto;html=1;exitX=0.5;exitY=1;exitDx=0;exitDy=0;entryX=0.5;entryY=0;entryDx=0;entryDy=0;" edge="1" parent="WIyWlLk6GJQsqaUBKTNV-1" source="6EujANAd5X0Nz6XeVnfX-201" target="6EujANAd5X0Nz6XeVnfX-217">
          <mxGeometry relative="1" as="geometry" />
        </mxCell>
        <mxCell id="6EujANAd5X0Nz6XeVnfX-201" value="จำนวนสินค้าA4=จำนวนสินค้าA4+1" style="whiteSpace=wrap;html=1;" vertex="1" parent="WIyWlLk6GJQsqaUBKTNV-1">
          <mxGeometry x="-1041.5000000000002" y="1819" width="120" height="60" as="geometry" />
        </mxCell>
        <mxCell id="6EujANAd5X0Nz6XeVnfX-355" style="edgeStyle=orthogonalEdgeStyle;rounded=0;orthogonalLoop=1;jettySize=auto;html=1;exitX=0.5;exitY=1;exitDx=0;exitDy=0;entryX=0.5;entryY=0;entryDx=0;entryDy=0;" edge="1" parent="WIyWlLk6GJQsqaUBKTNV-1" source="6EujANAd5X0Nz6XeVnfX-203" target="6EujANAd5X0Nz6XeVnfX-219">
          <mxGeometry relative="1" as="geometry" />
        </mxCell>
        <mxCell id="6EujANAd5X0Nz6XeVnfX-203" value="จำนวนสินค้าA5=จำนวนสินค้าA5+1" style="whiteSpace=wrap;html=1;" vertex="1" parent="WIyWlLk6GJQsqaUBKTNV-1">
          <mxGeometry x="-1520.0000000000002" y="2079" width="120" height="60" as="geometry" />
        </mxCell>
        <mxCell id="6EujANAd5X0Nz6XeVnfX-223" style="edgeStyle=orthogonalEdgeStyle;rounded=0;orthogonalLoop=1;jettySize=auto;html=1;exitX=0.5;exitY=1;exitDx=0;exitDy=0;entryX=0.5;entryY=0;entryDx=0;entryDy=0;" edge="1" parent="WIyWlLk6GJQsqaUBKTNV-1" source="6EujANAd5X0Nz6XeVnfX-205" target="6EujANAd5X0Nz6XeVnfX-160">
          <mxGeometry relative="1" as="geometry" />
        </mxCell>
        <mxCell id="6EujANAd5X0Nz6XeVnfX-205" value="" style="ellipse;whiteSpace=wrap;html=1;aspect=fixed;" vertex="1" parent="WIyWlLk6GJQsqaUBKTNV-1">
          <mxGeometry x="-1580.0000000000002" y="2279" width="20" height="20" as="geometry" />
        </mxCell>
        <mxCell id="6EujANAd5X0Nz6XeVnfX-206" style="edgeStyle=orthogonalEdgeStyle;rounded=0;orthogonalLoop=1;jettySize=auto;html=1;exitX=0.5;exitY=1;exitDx=0;exitDy=0;entryX=0.5;entryY=0;entryDx=0;entryDy=0;" edge="1" parent="WIyWlLk6GJQsqaUBKTNV-1" source="6EujANAd5X0Nz6XeVnfX-207" target="6EujANAd5X0Nz6XeVnfX-205">
          <mxGeometry relative="1" as="geometry" />
        </mxCell>
        <mxCell id="6EujANAd5X0Nz6XeVnfX-207" value="" style="ellipse;whiteSpace=wrap;html=1;aspect=fixed;" vertex="1" parent="WIyWlLk6GJQsqaUBKTNV-1">
          <mxGeometry x="-1580.0000000000002" y="1739" width="20" height="20" as="geometry" />
        </mxCell>
        <mxCell id="6EujANAd5X0Nz6XeVnfX-224" style="edgeStyle=orthogonalEdgeStyle;rounded=0;orthogonalLoop=1;jettySize=auto;html=1;exitX=0.5;exitY=1;exitDx=0;exitDy=0;entryX=0.5;entryY=0;entryDx=0;entryDy=0;" edge="1" parent="WIyWlLk6GJQsqaUBKTNV-1" source="6EujANAd5X0Nz6XeVnfX-209" target="6EujANAd5X0Nz6XeVnfX-162">
          <mxGeometry relative="1" as="geometry" />
        </mxCell>
        <mxCell id="6EujANAd5X0Nz6XeVnfX-209" value="" style="ellipse;whiteSpace=wrap;html=1;aspect=fixed;" vertex="1" parent="WIyWlLk6GJQsqaUBKTNV-1">
          <mxGeometry x="-891.5" y="2019" width="20" height="20" as="geometry" />
        </mxCell>
        <mxCell id="6EujANAd5X0Nz6XeVnfX-210" style="edgeStyle=orthogonalEdgeStyle;rounded=0;orthogonalLoop=1;jettySize=auto;html=1;exitX=0;exitY=0.5;exitDx=0;exitDy=0;entryX=0.5;entryY=0;entryDx=0;entryDy=0;" edge="1" parent="WIyWlLk6GJQsqaUBKTNV-1" source="6EujANAd5X0Nz6XeVnfX-211" target="6EujANAd5X0Nz6XeVnfX-207">
          <mxGeometry relative="1" as="geometry" />
        </mxCell>
        <mxCell id="6EujANAd5X0Nz6XeVnfX-211" value="ราคาสินค้าA1=จำนวนสินค้าA1*10" style="rounded=0;whiteSpace=wrap;html=1;" vertex="1" parent="WIyWlLk6GJQsqaUBKTNV-1">
          <mxGeometry x="-1530" y="1187" width="120" height="62" as="geometry" />
        </mxCell>
        <mxCell id="6EujANAd5X0Nz6XeVnfX-212" style="edgeStyle=orthogonalEdgeStyle;rounded=0;orthogonalLoop=1;jettySize=auto;html=1;exitX=1;exitY=0.5;exitDx=0;exitDy=0;entryX=0.5;entryY=0;entryDx=0;entryDy=0;" edge="1" parent="WIyWlLk6GJQsqaUBKTNV-1" source="6EujANAd5X0Nz6XeVnfX-213" target="6EujANAd5X0Nz6XeVnfX-209">
          <mxGeometry relative="1" as="geometry" />
        </mxCell>
        <mxCell id="6EujANAd5X0Nz6XeVnfX-213" value="ราคาสินค้าA2=จำนวนสินค้าA2*12" style="rounded=0;whiteSpace=wrap;html=1;" vertex="1" parent="WIyWlLk6GJQsqaUBKTNV-1">
          <mxGeometry x="-1036.5000000000002" y="1449.5" width="120" height="60" as="geometry" />
        </mxCell>
        <mxCell id="6EujANAd5X0Nz6XeVnfX-214" style="edgeStyle=orthogonalEdgeStyle;rounded=0;orthogonalLoop=1;jettySize=auto;html=1;exitX=0;exitY=0.5;exitDx=0;exitDy=0;entryX=1;entryY=0.5;entryDx=0;entryDy=0;" edge="1" parent="WIyWlLk6GJQsqaUBKTNV-1" source="6EujANAd5X0Nz6XeVnfX-215" target="6EujANAd5X0Nz6XeVnfX-207">
          <mxGeometry relative="1" as="geometry" />
        </mxCell>
        <mxCell id="6EujANAd5X0Nz6XeVnfX-215" value="ราคาสินค้าA3=จำนวนสินค้าA3*30" style="rounded=0;whiteSpace=wrap;html=1;" vertex="1" parent="WIyWlLk6GJQsqaUBKTNV-1">
          <mxGeometry x="-1530.0000000000002" y="1719" width="120" height="60" as="geometry" />
        </mxCell>
        <mxCell id="6EujANAd5X0Nz6XeVnfX-216" style="edgeStyle=orthogonalEdgeStyle;rounded=0;orthogonalLoop=1;jettySize=auto;html=1;exitX=1;exitY=0.5;exitDx=0;exitDy=0;entryX=0;entryY=0.5;entryDx=0;entryDy=0;" edge="1" parent="WIyWlLk6GJQsqaUBKTNV-1" source="6EujANAd5X0Nz6XeVnfX-217" target="6EujANAd5X0Nz6XeVnfX-209">
          <mxGeometry relative="1" as="geometry" />
        </mxCell>
        <mxCell id="6EujANAd5X0Nz6XeVnfX-217" value="ราคาสินค้าA4=จำนวนสินค้าA4*35" style="rounded=0;whiteSpace=wrap;html=1;" vertex="1" parent="WIyWlLk6GJQsqaUBKTNV-1">
          <mxGeometry x="-1041.5000000000002" y="1999" width="120" height="60" as="geometry" />
        </mxCell>
        <mxCell id="6EujANAd5X0Nz6XeVnfX-218" style="edgeStyle=orthogonalEdgeStyle;rounded=0;orthogonalLoop=1;jettySize=auto;html=1;exitX=0;exitY=0.5;exitDx=0;exitDy=0;entryX=1;entryY=0.5;entryDx=0;entryDy=0;" edge="1" parent="WIyWlLk6GJQsqaUBKTNV-1" source="6EujANAd5X0Nz6XeVnfX-219" target="6EujANAd5X0Nz6XeVnfX-205">
          <mxGeometry relative="1" as="geometry" />
        </mxCell>
        <mxCell id="6EujANAd5X0Nz6XeVnfX-219" value="ราคาสินค้าA5=จำนวนสินค้าA5*13" style="rounded=0;whiteSpace=wrap;html=1;" vertex="1" parent="WIyWlLk6GJQsqaUBKTNV-1">
          <mxGeometry x="-1520.0000000000002" y="2259" width="120" height="60" as="geometry" />
        </mxCell>
        <mxCell id="6EujANAd5X0Nz6XeVnfX-246" value="" style="ellipse;whiteSpace=wrap;html=1;aspect=fixed;" vertex="1" parent="WIyWlLk6GJQsqaUBKTNV-1">
          <mxGeometry x="-1259" y="289" width="20" height="20" as="geometry" />
        </mxCell>
        <mxCell id="6EujANAd5X0Nz6XeVnfX-248" style="edgeStyle=orthogonalEdgeStyle;rounded=0;orthogonalLoop=1;jettySize=auto;html=1;exitX=0.5;exitY=1;exitDx=0;exitDy=0;entryX=0.54;entryY=0;entryDx=0;entryDy=0;entryPerimeter=0;" edge="1" parent="WIyWlLk6GJQsqaUBKTNV-1" source="6EujANAd5X0Nz6XeVnfX-246" target="6EujANAd5X0Nz6XeVnfX-58">
          <mxGeometry relative="1" as="geometry" />
        </mxCell>
        <mxCell id="6EujANAd5X0Nz6XeVnfX-251" style="edgeStyle=orthogonalEdgeStyle;rounded=0;orthogonalLoop=1;jettySize=auto;html=1;exitX=0.5;exitY=1;exitDx=0;exitDy=0;entryX=0.5;entryY=0;entryDx=0;entryDy=0;" edge="1" parent="WIyWlLk6GJQsqaUBKTNV-1" source="6EujANAd5X0Nz6XeVnfX-249" target="6EujANAd5X0Nz6XeVnfX-61">
          <mxGeometry relative="1" as="geometry" />
        </mxCell>
        <mxCell id="6EujANAd5X0Nz6XeVnfX-249" value="แสดงเลือกเพิ่มหรือไม่" style="shape=parallelogram;perimeter=parallelogramPerimeter;whiteSpace=wrap;html=1;fixedSize=1;" vertex="1" parent="WIyWlLk6GJQsqaUBKTNV-1">
          <mxGeometry x="-1314.81" y="2739" width="131.61" height="70" as="geometry" />
        </mxCell>
        <mxCell id="6EujANAd5X0Nz6XeVnfX-260" style="edgeStyle=orthogonalEdgeStyle;rounded=0;orthogonalLoop=1;jettySize=auto;html=1;exitX=0.5;exitY=1;exitDx=0;exitDy=0;" edge="1" parent="WIyWlLk6GJQsqaUBKTNV-1" source="6EujANAd5X0Nz6XeVnfX-258">
          <mxGeometry relative="1" as="geometry">
            <mxPoint x="-1469.888888888889" y="979.2222222222222" as="targetPoint" />
          </mxGeometry>
        </mxCell>
        <mxCell id="6EujANAd5X0Nz6XeVnfX-261" value="จริง" style="edgeStyle=orthogonalEdgeStyle;rounded=0;orthogonalLoop=1;jettySize=auto;html=1;exitX=0.5;exitY=1;exitDx=0;exitDy=0;entryX=0.5;entryY=0;entryDx=0;entryDy=0;" edge="1" parent="WIyWlLk6GJQsqaUBKTNV-1" source="6EujANAd5X0Nz6XeVnfX-258" target="6EujANAd5X0Nz6XeVnfX-183">
          <mxGeometry relative="1" as="geometry" />
        </mxCell>
        <mxCell id="6EujANAd5X0Nz6XeVnfX-268" style="edgeStyle=orthogonalEdgeStyle;rounded=0;orthogonalLoop=1;jettySize=auto;html=1;exitX=0.5;exitY=0;exitDx=0;exitDy=0;" edge="1" parent="WIyWlLk6GJQsqaUBKTNV-1" source="6EujANAd5X0Nz6XeVnfX-258">
          <mxGeometry relative="1" as="geometry">
            <mxPoint x="-1470" y="863" as="targetPoint" />
          </mxGeometry>
        </mxCell>
        <mxCell id="6EujANAd5X0Nz6XeVnfX-269" value="เท็จ" style="edgeLabel;html=1;align=center;verticalAlign=middle;resizable=0;points=[];" vertex="1" connectable="0" parent="6EujANAd5X0Nz6XeVnfX-268">
          <mxGeometry x="-0.1141" y="1" relative="1" as="geometry">
            <mxPoint as="offset" />
          </mxGeometry>
        </mxCell>
        <mxCell id="6EujANAd5X0Nz6XeVnfX-258" value="&lt;span style=&quot;color: rgb(0, 29, 53); font-family: Arial, sans-serif; text-align: start; background-color: rgb(255, 255, 255);&quot;&gt;&lt;font style=&quot;font-size: 12px;&quot;&gt;Stock_A1&amp;gt;0&lt;/font&gt;&lt;/span&gt;" style="rhombus;whiteSpace=wrap;html=1;" vertex="1" parent="WIyWlLk6GJQsqaUBKTNV-1">
          <mxGeometry x="-1510" y="899" width="80" height="80" as="geometry" />
        </mxCell>
        <mxCell id="6EujANAd5X0Nz6XeVnfX-297" style="edgeStyle=orthogonalEdgeStyle;rounded=0;orthogonalLoop=1;jettySize=auto;html=1;exitX=0;exitY=0.5;exitDx=0;exitDy=0;" edge="1" parent="WIyWlLk6GJQsqaUBKTNV-1" source="6EujANAd5X0Nz6XeVnfX-270">
          <mxGeometry relative="1" as="geometry">
            <mxPoint x="-1620" y="833.4000000000001" as="targetPoint" />
          </mxGeometry>
        </mxCell>
        <mxCell id="6EujANAd5X0Nz6XeVnfX-270" value="แสดงขออภัยสินค้าหมด" style="shape=parallelogram;perimeter=parallelogramPerimeter;whiteSpace=wrap;html=1;fixedSize=1;" vertex="1" parent="WIyWlLk6GJQsqaUBKTNV-1">
          <mxGeometry x="-1542.5" y="803" width="145" height="60" as="geometry" />
        </mxCell>
        <mxCell id="6EujANAd5X0Nz6XeVnfX-274" style="edgeStyle=orthogonalEdgeStyle;rounded=0;orthogonalLoop=1;jettySize=auto;html=1;exitX=0.5;exitY=1;exitDx=0;exitDy=0;entryX=0.5;entryY=0;entryDx=0;entryDy=0;" edge="1" parent="WIyWlLk6GJQsqaUBKTNV-1" source="6EujANAd5X0Nz6XeVnfX-272" target="6EujANAd5X0Nz6XeVnfX-172">
          <mxGeometry relative="1" as="geometry" />
        </mxCell>
        <mxCell id="6EujANAd5X0Nz6XeVnfX-272" value="" style="ellipse;whiteSpace=wrap;html=1;aspect=fixed;" vertex="1" parent="WIyWlLk6GJQsqaUBKTNV-1">
          <mxGeometry x="-1259" y="639" width="20" height="20" as="geometry" />
        </mxCell>
        <mxCell id="6EujANAd5X0Nz6XeVnfX-285" style="edgeStyle=orthogonalEdgeStyle;rounded=0;orthogonalLoop=1;jettySize=auto;html=1;exitX=0.5;exitY=0;exitDx=0;exitDy=0;entryX=0.5;entryY=1;entryDx=0;entryDy=0;" edge="1" parent="WIyWlLk6GJQsqaUBKTNV-1" source="6EujANAd5X0Nz6XeVnfX-282" target="6EujANAd5X0Nz6XeVnfX-283">
          <mxGeometry relative="1" as="geometry" />
        </mxCell>
        <mxCell id="6EujANAd5X0Nz6XeVnfX-286" style="edgeStyle=orthogonalEdgeStyle;rounded=0;orthogonalLoop=1;jettySize=auto;html=1;exitX=0.5;exitY=1;exitDx=0;exitDy=0;" edge="1" parent="WIyWlLk6GJQsqaUBKTNV-1" source="6EujANAd5X0Nz6XeVnfX-282" target="6EujANAd5X0Nz6XeVnfX-189">
          <mxGeometry relative="1" as="geometry" />
        </mxCell>
        <mxCell id="6EujANAd5X0Nz6XeVnfX-282" value="&lt;span style=&quot;color: rgb(0, 29, 53); font-family: Arial, sans-serif; text-align: start; background-color: rgb(255, 255, 255);&quot;&gt;&lt;font style=&quot;font-size: 12px;&quot;&gt;Stock_A2&amp;gt;0&lt;/font&gt;&lt;/span&gt;" style="rhombus;whiteSpace=wrap;html=1;" vertex="1" parent="WIyWlLk6GJQsqaUBKTNV-1">
          <mxGeometry x="-1016.5" y="1155.5" width="80" height="80" as="geometry" />
        </mxCell>
        <mxCell id="6EujANAd5X0Nz6XeVnfX-339" style="edgeStyle=orthogonalEdgeStyle;rounded=0;orthogonalLoop=1;jettySize=auto;html=1;exitX=1;exitY=0.5;exitDx=0;exitDy=0;" edge="1" parent="WIyWlLk6GJQsqaUBKTNV-1" source="6EujANAd5X0Nz6XeVnfX-283" target="6EujANAd5X0Nz6XeVnfX-337">
          <mxGeometry relative="1" as="geometry" />
        </mxCell>
        <mxCell id="6EujANAd5X0Nz6XeVnfX-283" value="แสดงขออภัยสินค้าหมด" style="shape=parallelogram;perimeter=parallelogramPerimeter;whiteSpace=wrap;html=1;fixedSize=1;" vertex="1" parent="WIyWlLk6GJQsqaUBKTNV-1">
          <mxGeometry x="-1049" y="1058.5" width="145" height="60" as="geometry" />
        </mxCell>
        <mxCell id="6EujANAd5X0Nz6XeVnfX-293" value="จริง" style="edgeStyle=orthogonalEdgeStyle;rounded=0;orthogonalLoop=1;jettySize=auto;html=1;exitX=0.5;exitY=1;exitDx=0;exitDy=0;entryX=0.5;entryY=0;entryDx=0;entryDy=0;" edge="1" parent="WIyWlLk6GJQsqaUBKTNV-1" source="6EujANAd5X0Nz6XeVnfX-291" target="6EujANAd5X0Nz6XeVnfX-191">
          <mxGeometry relative="1" as="geometry">
            <mxPoint x="-1470.2413793103447" y="1528.9999999999998" as="targetPoint" />
          </mxGeometry>
        </mxCell>
        <mxCell id="6EujANAd5X0Nz6XeVnfX-294" value="เท็จ" style="edgeStyle=orthogonalEdgeStyle;rounded=0;orthogonalLoop=1;jettySize=auto;html=1;exitX=0.5;exitY=0;exitDx=0;exitDy=0;" edge="1" parent="WIyWlLk6GJQsqaUBKTNV-1" source="6EujANAd5X0Nz6XeVnfX-291" target="6EujANAd5X0Nz6XeVnfX-292">
          <mxGeometry relative="1" as="geometry" />
        </mxCell>
        <mxCell id="6EujANAd5X0Nz6XeVnfX-291" value="&lt;span style=&quot;color: rgb(0, 29, 53); font-family: Arial, sans-serif; text-align: start; background-color: rgb(255, 255, 255);&quot;&gt;&lt;font style=&quot;font-size: 12px;&quot;&gt;Stock_A3&amp;gt;0&lt;/font&gt;&lt;/span&gt;" style="rhombus;whiteSpace=wrap;html=1;" vertex="1" parent="WIyWlLk6GJQsqaUBKTNV-1">
          <mxGeometry x="-1510" y="1429" width="80" height="80" as="geometry" />
        </mxCell>
        <mxCell id="6EujANAd5X0Nz6XeVnfX-298" style="edgeStyle=orthogonalEdgeStyle;rounded=0;orthogonalLoop=1;jettySize=auto;html=1;exitX=0;exitY=0.5;exitDx=0;exitDy=0;" edge="1" parent="WIyWlLk6GJQsqaUBKTNV-1" source="6EujANAd5X0Nz6XeVnfX-292">
          <mxGeometry relative="1" as="geometry">
            <mxPoint x="-1620" y="1373.4" as="targetPoint" />
          </mxGeometry>
        </mxCell>
        <mxCell id="6EujANAd5X0Nz6XeVnfX-292" value="แสดงขออภัยสินค้าหมด" style="shape=parallelogram;perimeter=parallelogramPerimeter;whiteSpace=wrap;html=1;fixedSize=1;" vertex="1" parent="WIyWlLk6GJQsqaUBKTNV-1">
          <mxGeometry x="-1542.5" y="1343" width="145" height="60" as="geometry" />
        </mxCell>
        <mxCell id="6EujANAd5X0Nz6XeVnfX-300" value="จริง" style="edgeStyle=orthogonalEdgeStyle;rounded=0;orthogonalLoop=1;jettySize=auto;html=1;exitX=0.5;exitY=1;exitDx=0;exitDy=0;entryX=0.5;entryY=0;entryDx=0;entryDy=0;" edge="1" parent="WIyWlLk6GJQsqaUBKTNV-1" source="6EujANAd5X0Nz6XeVnfX-299" target="6EujANAd5X0Nz6XeVnfX-203">
          <mxGeometry relative="1" as="geometry" />
        </mxCell>
        <mxCell id="6EujANAd5X0Nz6XeVnfX-303" value="เท็จ" style="edgeStyle=orthogonalEdgeStyle;rounded=0;orthogonalLoop=1;jettySize=auto;html=1;exitX=0.5;exitY=0;exitDx=0;exitDy=0;entryX=0.5;entryY=1;entryDx=0;entryDy=0;" edge="1" parent="WIyWlLk6GJQsqaUBKTNV-1" source="6EujANAd5X0Nz6XeVnfX-299" target="6EujANAd5X0Nz6XeVnfX-301">
          <mxGeometry relative="1" as="geometry" />
        </mxCell>
        <mxCell id="6EujANAd5X0Nz6XeVnfX-299" value="&lt;span style=&quot;color: rgb(0, 29, 53); font-family: Arial, sans-serif; text-align: start; background-color: rgb(255, 255, 255);&quot;&gt;&lt;font style=&quot;font-size: 12px;&quot;&gt;Stock_A5&amp;gt;0&lt;/font&gt;&lt;/span&gt;" style="rhombus;whiteSpace=wrap;html=1;" vertex="1" parent="WIyWlLk6GJQsqaUBKTNV-1">
          <mxGeometry x="-1500" y="1959" width="80" height="80" as="geometry" />
        </mxCell>
        <mxCell id="6EujANAd5X0Nz6XeVnfX-302" style="edgeStyle=orthogonalEdgeStyle;rounded=0;orthogonalLoop=1;jettySize=auto;html=1;exitX=0;exitY=0.5;exitDx=0;exitDy=0;" edge="1" parent="WIyWlLk6GJQsqaUBKTNV-1" source="6EujANAd5X0Nz6XeVnfX-301">
          <mxGeometry relative="1" as="geometry">
            <mxPoint x="-1620" y="1899" as="targetPoint" />
          </mxGeometry>
        </mxCell>
        <mxCell id="6EujANAd5X0Nz6XeVnfX-301" value="แสดงขออภัยสินค้าหมด" style="shape=parallelogram;perimeter=parallelogramPerimeter;whiteSpace=wrap;html=1;fixedSize=1;" vertex="1" parent="WIyWlLk6GJQsqaUBKTNV-1">
          <mxGeometry x="-1535" y="1869" width="145" height="60" as="geometry" />
        </mxCell>
        <mxCell id="6EujANAd5X0Nz6XeVnfX-312" value="จริง" style="edgeStyle=orthogonalEdgeStyle;rounded=0;orthogonalLoop=1;jettySize=auto;html=1;exitX=0.5;exitY=1;exitDx=0;exitDy=0;entryX=0.5;entryY=0;entryDx=0;entryDy=0;" edge="1" parent="WIyWlLk6GJQsqaUBKTNV-1" source="6EujANAd5X0Nz6XeVnfX-310" target="6EujANAd5X0Nz6XeVnfX-153">
          <mxGeometry relative="1" as="geometry" />
        </mxCell>
        <mxCell id="6EujANAd5X0Nz6XeVnfX-314" value="เท็จ" style="edgeStyle=orthogonalEdgeStyle;rounded=0;orthogonalLoop=1;jettySize=auto;html=1;exitX=0.5;exitY=0;exitDx=0;exitDy=0;entryX=0.5;entryY=1;entryDx=0;entryDy=0;" edge="1" parent="WIyWlLk6GJQsqaUBKTNV-1" source="6EujANAd5X0Nz6XeVnfX-310" target="6EujANAd5X0Nz6XeVnfX-313">
          <mxGeometry relative="1" as="geometry" />
        </mxCell>
        <mxCell id="6EujANAd5X0Nz6XeVnfX-310" value="&lt;span style=&quot;color: rgb(0, 29, 53); font-family: Arial, sans-serif; text-align: start; background-color: rgb(255, 255, 255);&quot;&gt;&lt;font style=&quot;font-size: 12px;&quot;&gt;Stock_A7&amp;gt;0&lt;/font&gt;&lt;/span&gt;" style="rhombus;whiteSpace=wrap;html=1;" vertex="1" parent="WIyWlLk6GJQsqaUBKTNV-1">
          <mxGeometry x="-1502.5" y="2549" width="80" height="80" as="geometry" />
        </mxCell>
        <mxCell id="6EujANAd5X0Nz6XeVnfX-315" style="edgeStyle=orthogonalEdgeStyle;rounded=0;orthogonalLoop=1;jettySize=auto;html=1;exitX=0;exitY=0.5;exitDx=0;exitDy=0;" edge="1" parent="WIyWlLk6GJQsqaUBKTNV-1" source="6EujANAd5X0Nz6XeVnfX-313">
          <mxGeometry relative="1" as="geometry">
            <mxPoint x="-1620" y="2489" as="targetPoint" />
            <Array as="points">
              <mxPoint x="-1600" y="2489" />
              <mxPoint x="-1600" y="2489" />
            </Array>
          </mxGeometry>
        </mxCell>
        <mxCell id="6EujANAd5X0Nz6XeVnfX-313" value="แสดงขออภัยสินค้าหมด" style="shape=parallelogram;perimeter=parallelogramPerimeter;whiteSpace=wrap;html=1;fixedSize=1;" vertex="1" parent="WIyWlLk6GJQsqaUBKTNV-1">
          <mxGeometry x="-1535" y="2459" width="145" height="60" as="geometry" />
        </mxCell>
        <mxCell id="6EujANAd5X0Nz6XeVnfX-320" style="edgeStyle=orthogonalEdgeStyle;rounded=0;orthogonalLoop=1;jettySize=auto;html=1;exitX=0.5;exitY=1;exitDx=0;exitDy=0;entryX=0.5;entryY=0;entryDx=0;entryDy=0;" edge="1" parent="WIyWlLk6GJQsqaUBKTNV-1" source="6EujANAd5X0Nz6XeVnfX-319" target="6EujANAd5X0Nz6XeVnfX-201">
          <mxGeometry relative="1" as="geometry" />
        </mxCell>
        <mxCell id="6EujANAd5X0Nz6XeVnfX-323" style="edgeStyle=orthogonalEdgeStyle;rounded=0;orthogonalLoop=1;jettySize=auto;html=1;exitX=0.5;exitY=0;exitDx=0;exitDy=0;entryX=0.5;entryY=1;entryDx=0;entryDy=0;" edge="1" parent="WIyWlLk6GJQsqaUBKTNV-1" source="6EujANAd5X0Nz6XeVnfX-319" target="6EujANAd5X0Nz6XeVnfX-321">
          <mxGeometry relative="1" as="geometry" />
        </mxCell>
        <mxCell id="6EujANAd5X0Nz6XeVnfX-319" value="&lt;span style=&quot;color: rgb(0, 29, 53); font-family: Arial, sans-serif; text-align: start; background-color: rgb(255, 255, 255);&quot;&gt;&lt;font style=&quot;font-size: 12px;&quot;&gt;Stock_A4&amp;gt;0&lt;/font&gt;&lt;/span&gt;" style="rhombus;whiteSpace=wrap;html=1;" vertex="1" parent="WIyWlLk6GJQsqaUBKTNV-1">
          <mxGeometry x="-1021.5" y="1709" width="80" height="80" as="geometry" />
        </mxCell>
        <mxCell id="6EujANAd5X0Nz6XeVnfX-324" style="edgeStyle=orthogonalEdgeStyle;rounded=0;orthogonalLoop=1;jettySize=auto;html=1;exitX=1;exitY=0.5;exitDx=0;exitDy=0;" edge="1" parent="WIyWlLk6GJQsqaUBKTNV-1" source="6EujANAd5X0Nz6XeVnfX-321">
          <mxGeometry relative="1" as="geometry">
            <mxPoint x="-860" y="1649" as="targetPoint" />
          </mxGeometry>
        </mxCell>
        <mxCell id="6EujANAd5X0Nz6XeVnfX-321" value="แสดงขออภัยสินค้าหมด" style="shape=parallelogram;perimeter=parallelogramPerimeter;whiteSpace=wrap;html=1;fixedSize=1;" vertex="1" parent="WIyWlLk6GJQsqaUBKTNV-1">
          <mxGeometry x="-1054" y="1619" width="145" height="60" as="geometry" />
        </mxCell>
        <mxCell id="6EujANAd5X0Nz6XeVnfX-329" style="edgeStyle=orthogonalEdgeStyle;rounded=0;orthogonalLoop=1;jettySize=auto;html=1;exitX=0.5;exitY=1;exitDx=0;exitDy=0;entryX=0.5;entryY=0;entryDx=0;entryDy=0;" edge="1" parent="WIyWlLk6GJQsqaUBKTNV-1" source="6EujANAd5X0Nz6XeVnfX-328" target="6EujANAd5X0Nz6XeVnfX-151">
          <mxGeometry relative="1" as="geometry" />
        </mxCell>
        <mxCell id="6EujANAd5X0Nz6XeVnfX-331" style="edgeStyle=orthogonalEdgeStyle;rounded=0;orthogonalLoop=1;jettySize=auto;html=1;exitX=0.5;exitY=0;exitDx=0;exitDy=0;entryX=0.5;entryY=1;entryDx=0;entryDy=0;" edge="1" parent="WIyWlLk6GJQsqaUBKTNV-1" source="6EujANAd5X0Nz6XeVnfX-328" target="6EujANAd5X0Nz6XeVnfX-330">
          <mxGeometry relative="1" as="geometry" />
        </mxCell>
        <mxCell id="6EujANAd5X0Nz6XeVnfX-328" value="&lt;span style=&quot;color: rgb(0, 29, 53); font-family: Arial, sans-serif; text-align: start; background-color: rgb(255, 255, 255);&quot;&gt;&lt;font style=&quot;font-size: 12px;&quot;&gt;Stock_A6&amp;gt;0&lt;/font&gt;&lt;/span&gt;" style="rhombus;whiteSpace=wrap;html=1;" vertex="1" parent="WIyWlLk6GJQsqaUBKTNV-1">
          <mxGeometry x="-1021.5" y="2291" width="80" height="80" as="geometry" />
        </mxCell>
        <mxCell id="6EujANAd5X0Nz6XeVnfX-332" style="edgeStyle=orthogonalEdgeStyle;rounded=0;orthogonalLoop=1;jettySize=auto;html=1;exitX=1;exitY=0.5;exitDx=0;exitDy=0;" edge="1" parent="WIyWlLk6GJQsqaUBKTNV-1" source="6EujANAd5X0Nz6XeVnfX-330">
          <mxGeometry relative="1" as="geometry">
            <mxPoint x="-860" y="2229" as="targetPoint" />
          </mxGeometry>
        </mxCell>
        <mxCell id="6EujANAd5X0Nz6XeVnfX-330" value="แสดงขออภัยสินค้าหมด" style="shape=parallelogram;perimeter=parallelogramPerimeter;whiteSpace=wrap;html=1;fixedSize=1;" vertex="1" parent="WIyWlLk6GJQsqaUBKTNV-1">
          <mxGeometry x="-1054" y="2199" width="145" height="60" as="geometry" />
        </mxCell>
        <mxCell id="6EujANAd5X0Nz6XeVnfX-334" style="edgeStyle=orthogonalEdgeStyle;rounded=0;orthogonalLoop=1;jettySize=auto;html=1;exitX=0.5;exitY=0;exitDx=0;exitDy=0;" edge="1" parent="WIyWlLk6GJQsqaUBKTNV-1" source="6EujANAd5X0Nz6XeVnfX-333">
          <mxGeometry relative="1" as="geometry">
            <mxPoint x="-850" y="1659" as="targetPoint" />
          </mxGeometry>
        </mxCell>
        <mxCell id="6EujANAd5X0Nz6XeVnfX-333" value="" style="ellipse;whiteSpace=wrap;html=1;aspect=fixed;" vertex="1" parent="WIyWlLk6GJQsqaUBKTNV-1">
          <mxGeometry x="-860" y="2219" width="20" height="20" as="geometry" />
        </mxCell>
        <mxCell id="6EujANAd5X0Nz6XeVnfX-338" style="edgeStyle=orthogonalEdgeStyle;rounded=0;orthogonalLoop=1;jettySize=auto;html=1;exitX=0.5;exitY=0;exitDx=0;exitDy=0;" edge="1" parent="WIyWlLk6GJQsqaUBKTNV-1" source="6EujANAd5X0Nz6XeVnfX-335" target="6EujANAd5X0Nz6XeVnfX-337">
          <mxGeometry relative="1" as="geometry" />
        </mxCell>
        <mxCell id="6EujANAd5X0Nz6XeVnfX-335" value="" style="ellipse;whiteSpace=wrap;html=1;aspect=fixed;" vertex="1" parent="WIyWlLk6GJQsqaUBKTNV-1">
          <mxGeometry x="-860" y="1639" width="20" height="20" as="geometry" />
        </mxCell>
        <mxCell id="6EujANAd5X0Nz6XeVnfX-340" style="edgeStyle=orthogonalEdgeStyle;rounded=0;orthogonalLoop=1;jettySize=auto;html=1;exitX=0.5;exitY=0;exitDx=0;exitDy=0;entryX=1;entryY=0.5;entryDx=0;entryDy=0;" edge="1" parent="WIyWlLk6GJQsqaUBKTNV-1" source="6EujANAd5X0Nz6XeVnfX-337" target="6EujANAd5X0Nz6XeVnfX-246">
          <mxGeometry relative="1" as="geometry" />
        </mxCell>
        <mxCell id="6EujANAd5X0Nz6XeVnfX-337" value="" style="ellipse;whiteSpace=wrap;html=1;aspect=fixed;" vertex="1" parent="WIyWlLk6GJQsqaUBKTNV-1">
          <mxGeometry x="-860" y="1078.5" width="20" height="20" as="geometry" />
        </mxCell>
        <mxCell id="6EujANAd5X0Nz6XeVnfX-346" style="edgeStyle=orthogonalEdgeStyle;rounded=0;orthogonalLoop=1;jettySize=auto;html=1;exitX=0.5;exitY=0;exitDx=0;exitDy=0;entryX=0.5;entryY=1;entryDx=0;entryDy=0;" edge="1" parent="WIyWlLk6GJQsqaUBKTNV-1" source="6EujANAd5X0Nz6XeVnfX-341" target="6EujANAd5X0Nz6XeVnfX-342">
          <mxGeometry relative="1" as="geometry" />
        </mxCell>
        <mxCell id="6EujANAd5X0Nz6XeVnfX-341" value="" style="ellipse;whiteSpace=wrap;html=1;aspect=fixed;" vertex="1" parent="WIyWlLk6GJQsqaUBKTNV-1">
          <mxGeometry x="-1640" y="2479" width="20" height="20" as="geometry" />
        </mxCell>
        <mxCell id="6EujANAd5X0Nz6XeVnfX-347" style="edgeStyle=orthogonalEdgeStyle;rounded=0;orthogonalLoop=1;jettySize=auto;html=1;exitX=0.5;exitY=0;exitDx=0;exitDy=0;entryX=0.5;entryY=1;entryDx=0;entryDy=0;" edge="1" parent="WIyWlLk6GJQsqaUBKTNV-1" source="6EujANAd5X0Nz6XeVnfX-342" target="6EujANAd5X0Nz6XeVnfX-343">
          <mxGeometry relative="1" as="geometry" />
        </mxCell>
        <mxCell id="6EujANAd5X0Nz6XeVnfX-342" value="" style="ellipse;whiteSpace=wrap;html=1;aspect=fixed;" vertex="1" parent="WIyWlLk6GJQsqaUBKTNV-1">
          <mxGeometry x="-1640" y="1889" width="20" height="20" as="geometry" />
        </mxCell>
        <mxCell id="6EujANAd5X0Nz6XeVnfX-348" style="edgeStyle=orthogonalEdgeStyle;rounded=0;orthogonalLoop=1;jettySize=auto;html=1;exitX=0.5;exitY=0;exitDx=0;exitDy=0;entryX=0.5;entryY=1;entryDx=0;entryDy=0;" edge="1" parent="WIyWlLk6GJQsqaUBKTNV-1" source="6EujANAd5X0Nz6XeVnfX-343" target="6EujANAd5X0Nz6XeVnfX-344">
          <mxGeometry relative="1" as="geometry" />
        </mxCell>
        <mxCell id="6EujANAd5X0Nz6XeVnfX-343" value="" style="ellipse;whiteSpace=wrap;html=1;aspect=fixed;" vertex="1" parent="WIyWlLk6GJQsqaUBKTNV-1">
          <mxGeometry x="-1640" y="1364" width="20" height="20" as="geometry" />
        </mxCell>
        <mxCell id="6EujANAd5X0Nz6XeVnfX-349" style="edgeStyle=orthogonalEdgeStyle;rounded=0;orthogonalLoop=1;jettySize=auto;html=1;exitX=0.5;exitY=0;exitDx=0;exitDy=0;entryX=0;entryY=0.5;entryDx=0;entryDy=0;" edge="1" parent="WIyWlLk6GJQsqaUBKTNV-1" source="6EujANAd5X0Nz6XeVnfX-344" target="6EujANAd5X0Nz6XeVnfX-246">
          <mxGeometry relative="1" as="geometry" />
        </mxCell>
        <mxCell id="6EujANAd5X0Nz6XeVnfX-344" value="" style="ellipse;whiteSpace=wrap;html=1;aspect=fixed;" vertex="1" parent="WIyWlLk6GJQsqaUBKTNV-1">
          <mxGeometry x="-1640" y="823" width="20" height="20" as="geometry" />
        </mxCell>
        <mxCell id="6EujANAd5X0Nz6XeVnfX-362" style="edgeStyle=orthogonalEdgeStyle;rounded=0;orthogonalLoop=1;jettySize=auto;html=1;exitX=1;exitY=0.25;exitDx=0;exitDy=0;" edge="1" parent="WIyWlLk6GJQsqaUBKTNV-1" source="6EujANAd5X0Nz6XeVnfX-361" target="6EujANAd5X0Nz6XeVnfX-14">
          <mxGeometry relative="1" as="geometry" />
        </mxCell>
        <mxCell id="6EujANAd5X0Nz6XeVnfX-361" value="" style="swimlane;startSize=0;" vertex="1" parent="WIyWlLk6GJQsqaUBKTNV-1">
          <mxGeometry x="-1654" width="824" height="3240" as="geometry" />
        </mxCell>
        <mxCell id="6EujANAd5X0Nz6XeVnfX-396" style="edgeStyle=orthogonalEdgeStyle;rounded=0;orthogonalLoop=1;jettySize=auto;html=1;exitX=0.5;exitY=1;exitDx=0;exitDy=0;" edge="1" parent="WIyWlLk6GJQsqaUBKTNV-1" source="6EujANAd5X0Nz6XeVnfX-364">
          <mxGeometry relative="1" as="geometry">
            <mxPoint x="-162.03571428571422" y="2298" as="targetPoint" />
          </mxGeometry>
        </mxCell>
        <mxCell id="6EujANAd5X0Nz6XeVnfX-364" value="เริ่ม" style="ellipse;whiteSpace=wrap;html=1;" vertex="1" parent="WIyWlLk6GJQsqaUBKTNV-1">
          <mxGeometry x="-222" y="2219" width="120" height="50" as="geometry" />
        </mxCell>
        <mxCell id="6EujANAd5X0Nz6XeVnfX-367" style="edgeStyle=orthogonalEdgeStyle;rounded=0;orthogonalLoop=1;jettySize=auto;html=1;exitX=0.5;exitY=1;exitDx=0;exitDy=0;entryX=0.5;entryY=0;entryDx=0;entryDy=0;" edge="1" parent="WIyWlLk6GJQsqaUBKTNV-1" source="6EujANAd5X0Nz6XeVnfX-365" target="6EujANAd5X0Nz6XeVnfX-14">
          <mxGeometry relative="1" as="geometry" />
        </mxCell>
        <mxCell id="6EujANAd5X0Nz6XeVnfX-365" value="&lt;div&gt;&lt;span style=&quot;color: rgb(0, 29, 53); font-family: Arial, sans-serif; text-align: start; background-color: rgb(255, 255, 255);&quot;&gt;ประกาศตัวแปล&lt;/span&gt;&lt;/div&gt;&lt;span style=&quot;color: rgb(0, 29, 53); font-family: Arial, sans-serif; text-align: start; background-color: rgb(255, 255, 255);&quot;&gt;Stock_A1 = 25&lt;/span&gt;&lt;div&gt;&lt;span style=&quot;color: rgb(0, 29, 53); font-family: Arial, sans-serif; text-align: start; background-color: rgb(255, 255, 255);&quot;&gt;Stock_A2 = 25&lt;/span&gt;&lt;/div&gt;&lt;div&gt;&lt;span style=&quot;color: rgb(0, 29, 53); font-family: Arial, sans-serif; text-align: start; background-color: rgb(255, 255, 255);&quot;&gt;Stock_A3 = 25&lt;/span&gt;&lt;/div&gt;&lt;div&gt;&lt;span style=&quot;color: rgb(0, 29, 53); font-family: Arial, sans-serif; text-align: start; background-color: rgb(255, 255, 255);&quot;&gt;Stock_A4 = 25&lt;/span&gt;&lt;/div&gt;&lt;div&gt;&lt;span style=&quot;color: rgb(0, 29, 53); font-family: Arial, sans-serif; text-align: start; background-color: rgb(255, 255, 255);&quot;&gt;Stock_A5 = 25&lt;/span&gt;&lt;/div&gt;&lt;div&gt;&lt;span style=&quot;color: rgb(0, 29, 53); font-family: Arial, sans-serif; text-align: start; background-color: rgb(255, 255, 255);&quot;&gt;Stock_A6 = 25&lt;/span&gt;&lt;/div&gt;&lt;div&gt;&lt;span style=&quot;color: rgb(0, 29, 53); font-family: Arial, sans-serif; text-align: start; background-color: rgb(255, 255, 255);&quot;&gt;Stock_A7 = 25&lt;/span&gt;&lt;/div&gt;" style="rounded=0;whiteSpace=wrap;html=1;" vertex="1" parent="WIyWlLk6GJQsqaUBKTNV-1">
          <mxGeometry x="-499.13" y="850" width="198.25" height="141" as="geometry" />
        </mxCell>
        <mxCell id="6EujANAd5X0Nz6XeVnfX-398" style="edgeStyle=orthogonalEdgeStyle;rounded=0;orthogonalLoop=1;jettySize=auto;html=1;exitX=0.5;exitY=1;exitDx=0;exitDy=0;entryX=0.5;entryY=0;entryDx=0;entryDy=0;" edge="1" parent="WIyWlLk6GJQsqaUBKTNV-1" source="6EujANAd5X0Nz6XeVnfX-370" target="6EujANAd5X0Nz6XeVnfX-378">
          <mxGeometry relative="1" as="geometry" />
        </mxCell>
        <mxCell id="6EujANAd5X0Nz6XeVnfX-370" value="แสดง รอสักครู่" style="shape=parallelogram;perimeter=parallelogramPerimeter;whiteSpace=wrap;html=1;fixedSize=1;" vertex="1" parent="WIyWlLk6GJQsqaUBKTNV-1">
          <mxGeometry x="-229.13" y="2298" width="120" height="60" as="geometry" />
        </mxCell>
        <mxCell id="6EujANAd5X0Nz6XeVnfX-399" value="เท็จ" style="edgeStyle=orthogonalEdgeStyle;rounded=0;orthogonalLoop=1;jettySize=auto;html=1;exitX=0.5;exitY=1;exitDx=0;exitDy=0;entryX=0.5;entryY=0;entryDx=0;entryDy=0;" edge="1" parent="WIyWlLk6GJQsqaUBKTNV-1" source="6EujANAd5X0Nz6XeVnfX-378" target="6EujANAd5X0Nz6XeVnfX-384">
          <mxGeometry relative="1" as="geometry" />
        </mxCell>
        <mxCell id="6EujANAd5X0Nz6XeVnfX-403" value="จริง" style="edgeStyle=orthogonalEdgeStyle;rounded=0;orthogonalLoop=1;jettySize=auto;html=1;exitX=0;exitY=0.5;exitDx=0;exitDy=0;entryX=1;entryY=0.5;entryDx=0;entryDy=0;" edge="1" parent="WIyWlLk6GJQsqaUBKTNV-1" source="6EujANAd5X0Nz6XeVnfX-378" target="6EujANAd5X0Nz6XeVnfX-380">
          <mxGeometry relative="1" as="geometry" />
        </mxCell>
        <mxCell id="6EujANAd5X0Nz6XeVnfX-378" value="จำนวนสินค้าA1&amp;gt;=1" style="rhombus;whiteSpace=wrap;html=1;" vertex="1" parent="WIyWlLk6GJQsqaUBKTNV-1">
          <mxGeometry x="-209.25" y="2387.37" width="80" height="80" as="geometry" />
        </mxCell>
        <mxCell id="6EujANAd5X0Nz6XeVnfX-413" style="edgeStyle=orthogonalEdgeStyle;rounded=0;orthogonalLoop=1;jettySize=auto;html=1;exitX=0.5;exitY=1;exitDx=0;exitDy=0;entryX=0.5;entryY=0;entryDx=0;entryDy=0;" edge="1" parent="WIyWlLk6GJQsqaUBKTNV-1" source="6EujANAd5X0Nz6XeVnfX-380">
          <mxGeometry relative="1" as="geometry">
            <mxPoint x="-391" y="2481.5" as="targetPoint" />
          </mxGeometry>
        </mxCell>
        <mxCell id="6EujANAd5X0Nz6XeVnfX-380" value="จำนวนสินค้าA1=จำนวนสินค้าA1-1" style="rounded=0;whiteSpace=wrap;html=1;" vertex="1" parent="WIyWlLk6GJQsqaUBKTNV-1">
          <mxGeometry x="-500" y="2399.5" width="218" height="55.75" as="geometry" />
        </mxCell>
        <mxCell id="6EujANAd5X0Nz6XeVnfX-400" value="เท็จ" style="edgeStyle=orthogonalEdgeStyle;rounded=0;orthogonalLoop=1;jettySize=auto;html=1;exitX=0.5;exitY=1;exitDx=0;exitDy=0;entryX=0.5;entryY=0;entryDx=0;entryDy=0;" edge="1" parent="WIyWlLk6GJQsqaUBKTNV-1" source="6EujANAd5X0Nz6XeVnfX-384" target="6EujANAd5X0Nz6XeVnfX-387">
          <mxGeometry relative="1" as="geometry" />
        </mxCell>
        <mxCell id="6EujANAd5X0Nz6XeVnfX-404" value="จริง" style="edgeStyle=orthogonalEdgeStyle;rounded=0;orthogonalLoop=1;jettySize=auto;html=1;exitX=1;exitY=0.5;exitDx=0;exitDy=0;entryX=0;entryY=0.5;entryDx=0;entryDy=0;" edge="1" parent="WIyWlLk6GJQsqaUBKTNV-1" source="6EujANAd5X0Nz6XeVnfX-384" target="6EujANAd5X0Nz6XeVnfX-385">
          <mxGeometry relative="1" as="geometry" />
        </mxCell>
        <mxCell id="6EujANAd5X0Nz6XeVnfX-384" value="จำนวนสินค้าA2&amp;gt;=1" style="rhombus;whiteSpace=wrap;html=1;" vertex="1" parent="WIyWlLk6GJQsqaUBKTNV-1">
          <mxGeometry x="-209.25" y="2509.5" width="80" height="80" as="geometry" />
        </mxCell>
        <mxCell id="6EujANAd5X0Nz6XeVnfX-409" style="edgeStyle=orthogonalEdgeStyle;rounded=0;orthogonalLoop=1;jettySize=auto;html=1;exitX=0.5;exitY=1;exitDx=0;exitDy=0;" edge="1" parent="WIyWlLk6GJQsqaUBKTNV-1" source="6EujANAd5X0Nz6XeVnfX-385">
          <mxGeometry relative="1" as="geometry">
            <mxPoint x="67" y="2597.5" as="targetPoint" />
          </mxGeometry>
        </mxCell>
        <mxCell id="6EujANAd5X0Nz6XeVnfX-385" value="จำนวนสินค้าA2=จำนวนสินค้าA2-1" style="rounded=0;whiteSpace=wrap;html=1;" vertex="1" parent="WIyWlLk6GJQsqaUBKTNV-1">
          <mxGeometry x="-42" y="2521.5" width="218" height="55.75" as="geometry" />
        </mxCell>
        <mxCell id="6EujANAd5X0Nz6XeVnfX-401" value="เท็จ" style="edgeStyle=orthogonalEdgeStyle;rounded=0;orthogonalLoop=1;jettySize=auto;html=1;exitX=0.5;exitY=1;exitDx=0;exitDy=0;entryX=0.5;entryY=0;entryDx=0;entryDy=0;" edge="1" parent="WIyWlLk6GJQsqaUBKTNV-1" source="6EujANAd5X0Nz6XeVnfX-387" target="6EujANAd5X0Nz6XeVnfX-393">
          <mxGeometry relative="1" as="geometry" />
        </mxCell>
        <mxCell id="6EujANAd5X0Nz6XeVnfX-405" value="จริง" style="edgeStyle=orthogonalEdgeStyle;rounded=0;orthogonalLoop=1;jettySize=auto;html=1;exitX=0;exitY=0.5;exitDx=0;exitDy=0;entryX=1;entryY=0.5;entryDx=0;entryDy=0;" edge="1" parent="WIyWlLk6GJQsqaUBKTNV-1" source="6EujANAd5X0Nz6XeVnfX-387" target="6EujANAd5X0Nz6XeVnfX-388">
          <mxGeometry relative="1" as="geometry" />
        </mxCell>
        <mxCell id="6EujANAd5X0Nz6XeVnfX-387" value="จำนวนสินค้าA3&amp;gt;=1" style="rhombus;whiteSpace=wrap;html=1;" vertex="1" parent="WIyWlLk6GJQsqaUBKTNV-1">
          <mxGeometry x="-209.25" y="2632.37" width="80" height="80" as="geometry" />
        </mxCell>
        <mxCell id="6EujANAd5X0Nz6XeVnfX-410" style="edgeStyle=orthogonalEdgeStyle;rounded=0;orthogonalLoop=1;jettySize=auto;html=1;exitX=0.5;exitY=1;exitDx=0;exitDy=0;entryX=0.5;entryY=0;entryDx=0;entryDy=0;" edge="1" parent="WIyWlLk6GJQsqaUBKTNV-1" source="6EujANAd5X0Nz6XeVnfX-388">
          <mxGeometry relative="1" as="geometry">
            <mxPoint x="-391" y="2724.5" as="targetPoint" />
          </mxGeometry>
        </mxCell>
        <mxCell id="6EujANAd5X0Nz6XeVnfX-388" value="จำนวนสินค้าA3=จำนวนสินค้าA3-1" style="rounded=0;whiteSpace=wrap;html=1;" vertex="1" parent="WIyWlLk6GJQsqaUBKTNV-1">
          <mxGeometry x="-500" y="2644.5" width="218" height="55.75" as="geometry" />
        </mxCell>
        <mxCell id="6EujANAd5X0Nz6XeVnfX-407" value="จริง" style="edgeStyle=orthogonalEdgeStyle;rounded=0;orthogonalLoop=1;jettySize=auto;html=1;exitX=0;exitY=0.5;exitDx=0;exitDy=0;entryX=1;entryY=0.5;entryDx=0;entryDy=0;" edge="1" parent="WIyWlLk6GJQsqaUBKTNV-1" source="6EujANAd5X0Nz6XeVnfX-390" target="6EujANAd5X0Nz6XeVnfX-391">
          <mxGeometry relative="1" as="geometry" />
        </mxCell>
        <mxCell id="6EujANAd5X0Nz6XeVnfX-442" value="เท็จ" style="edgeStyle=orthogonalEdgeStyle;rounded=0;orthogonalLoop=1;jettySize=auto;html=1;exitX=0.5;exitY=1;exitDx=0;exitDy=0;entryX=0.5;entryY=0;entryDx=0;entryDy=0;" edge="1" parent="WIyWlLk6GJQsqaUBKTNV-1" source="6EujANAd5X0Nz6XeVnfX-390" target="6EujANAd5X0Nz6XeVnfX-430">
          <mxGeometry relative="1" as="geometry" />
        </mxCell>
        <mxCell id="6EujANAd5X0Nz6XeVnfX-390" value="จำนวนสินค้าA5&amp;gt;=1" style="rhombus;whiteSpace=wrap;html=1;" vertex="1" parent="WIyWlLk6GJQsqaUBKTNV-1">
          <mxGeometry x="-209.25" y="2899.5" width="80" height="80" as="geometry" />
        </mxCell>
        <mxCell id="6EujANAd5X0Nz6XeVnfX-412" style="edgeStyle=orthogonalEdgeStyle;rounded=0;orthogonalLoop=1;jettySize=auto;html=1;exitX=0.5;exitY=1;exitDx=0;exitDy=0;entryX=0.5;entryY=0;entryDx=0;entryDy=0;" edge="1" parent="WIyWlLk6GJQsqaUBKTNV-1" source="6EujANAd5X0Nz6XeVnfX-391">
          <mxGeometry relative="1" as="geometry">
            <mxPoint x="-391" y="2991.6299999999997" as="targetPoint" />
          </mxGeometry>
        </mxCell>
        <mxCell id="6EujANAd5X0Nz6XeVnfX-391" value="จำนวนสินค้าA5=จำนวนสินค้าA5-1" style="rounded=0;whiteSpace=wrap;html=1;" vertex="1" parent="WIyWlLk6GJQsqaUBKTNV-1">
          <mxGeometry x="-500" y="2911.63" width="218" height="55.75" as="geometry" />
        </mxCell>
        <mxCell id="6EujANAd5X0Nz6XeVnfX-402" value="เท็จ" style="edgeStyle=orthogonalEdgeStyle;rounded=0;orthogonalLoop=1;jettySize=auto;html=1;exitX=0.5;exitY=1;exitDx=0;exitDy=0;entryX=0.5;entryY=0;entryDx=0;entryDy=0;" edge="1" parent="WIyWlLk6GJQsqaUBKTNV-1" source="6EujANAd5X0Nz6XeVnfX-393" target="6EujANAd5X0Nz6XeVnfX-390">
          <mxGeometry relative="1" as="geometry" />
        </mxCell>
        <mxCell id="6EujANAd5X0Nz6XeVnfX-406" value="จริง" style="edgeStyle=orthogonalEdgeStyle;rounded=0;orthogonalLoop=1;jettySize=auto;html=1;exitX=1;exitY=0.5;exitDx=0;exitDy=0;" edge="1" parent="WIyWlLk6GJQsqaUBKTNV-1" source="6EujANAd5X0Nz6XeVnfX-393" target="6EujANAd5X0Nz6XeVnfX-394">
          <mxGeometry relative="1" as="geometry" />
        </mxCell>
        <mxCell id="6EujANAd5X0Nz6XeVnfX-393" value="จำนวนสินค้าA4&amp;gt;=1" style="rhombus;whiteSpace=wrap;html=1;" vertex="1" parent="WIyWlLk6GJQsqaUBKTNV-1">
          <mxGeometry x="-209.25" y="2765.38" width="80" height="80" as="geometry" />
        </mxCell>
        <mxCell id="6EujANAd5X0Nz6XeVnfX-411" style="edgeStyle=orthogonalEdgeStyle;rounded=0;orthogonalLoop=1;jettySize=auto;html=1;exitX=0.5;exitY=1;exitDx=0;exitDy=0;entryX=0.5;entryY=0;entryDx=0;entryDy=0;" edge="1" parent="WIyWlLk6GJQsqaUBKTNV-1" source="6EujANAd5X0Nz6XeVnfX-394">
          <mxGeometry relative="1" as="geometry">
            <mxPoint x="67" y="2857.5" as="targetPoint" />
          </mxGeometry>
        </mxCell>
        <mxCell id="6EujANAd5X0Nz6XeVnfX-394" value="จำนวนสินค้าA4=จำนวนสินค้าA4-1" style="rounded=0;whiteSpace=wrap;html=1;" vertex="1" parent="WIyWlLk6GJQsqaUBKTNV-1">
          <mxGeometry x="-42" y="2777.5" width="218" height="55.75" as="geometry" />
        </mxCell>
        <mxCell id="6EujANAd5X0Nz6XeVnfX-416" style="edgeStyle=orthogonalEdgeStyle;rounded=0;orthogonalLoop=1;jettySize=auto;html=1;exitX=0.5;exitY=1;exitDx=0;exitDy=0;entryX=0.5;entryY=0;entryDx=0;entryDy=0;" edge="1" parent="WIyWlLk6GJQsqaUBKTNV-1" source="6EujANAd5X0Nz6XeVnfX-414" target="6EujANAd5X0Nz6XeVnfX-415">
          <mxGeometry relative="1" as="geometry" />
        </mxCell>
        <mxCell id="6EujANAd5X0Nz6XeVnfX-414" value="ส่งสินค้าA1" style="shape=parallelogram;perimeter=parallelogramPerimeter;whiteSpace=wrap;html=1;fixedSize=1;" vertex="1" parent="WIyWlLk6GJQsqaUBKTNV-1">
          <mxGeometry x="-451" y="2481.5" width="120" height="60" as="geometry" />
        </mxCell>
        <mxCell id="6EujANAd5X0Nz6XeVnfX-455" style="edgeStyle=orthogonalEdgeStyle;rounded=0;orthogonalLoop=1;jettySize=auto;html=1;exitX=0;exitY=0.5;exitDx=0;exitDy=0;entryX=1;entryY=0.5;entryDx=0;entryDy=0;" edge="1" parent="WIyWlLk6GJQsqaUBKTNV-1" source="6EujANAd5X0Nz6XeVnfX-415" target="6EujANAd5X0Nz6XeVnfX-451">
          <mxGeometry relative="1" as="geometry" />
        </mxCell>
        <mxCell id="6EujANAd5X0Nz6XeVnfX-415" value="&lt;span style=&quot;color: rgb(0, 29, 53); font-family: Arial, sans-serif; text-align: start; background-color: rgb(255, 255, 255);&quot;&gt;Stock_A1=&lt;/span&gt;&lt;span style=&quot;color: rgb(0, 29, 53); font-family: Arial, sans-serif; text-align: start; background-color: rgb(255, 255, 255);&quot;&gt;Stock_A1-1&lt;/span&gt;" style="rounded=0;whiteSpace=wrap;html=1;" vertex="1" parent="WIyWlLk6GJQsqaUBKTNV-1">
          <mxGeometry x="-456" y="2561.5" width="130" height="60" as="geometry" />
        </mxCell>
        <mxCell id="6EujANAd5X0Nz6XeVnfX-417" style="edgeStyle=orthogonalEdgeStyle;rounded=0;orthogonalLoop=1;jettySize=auto;html=1;exitX=0.5;exitY=1;exitDx=0;exitDy=0;entryX=0.5;entryY=0;entryDx=0;entryDy=0;" edge="1" parent="WIyWlLk6GJQsqaUBKTNV-1" source="6EujANAd5X0Nz6XeVnfX-418" target="6EujANAd5X0Nz6XeVnfX-419">
          <mxGeometry relative="1" as="geometry" />
        </mxCell>
        <mxCell id="6EujANAd5X0Nz6XeVnfX-418" value="ส่งสินค้าA2" style="shape=parallelogram;perimeter=parallelogramPerimeter;whiteSpace=wrap;html=1;fixedSize=1;" vertex="1" parent="WIyWlLk6GJQsqaUBKTNV-1">
          <mxGeometry x="7" y="2597" width="120" height="60" as="geometry" />
        </mxCell>
        <mxCell id="6EujANAd5X0Nz6XeVnfX-461" style="edgeStyle=orthogonalEdgeStyle;rounded=0;orthogonalLoop=1;jettySize=auto;html=1;exitX=1;exitY=0.5;exitDx=0;exitDy=0;entryX=0;entryY=0.5;entryDx=0;entryDy=0;" edge="1" parent="WIyWlLk6GJQsqaUBKTNV-1" source="6EujANAd5X0Nz6XeVnfX-419" target="6EujANAd5X0Nz6XeVnfX-452">
          <mxGeometry relative="1" as="geometry" />
        </mxCell>
        <mxCell id="6EujANAd5X0Nz6XeVnfX-419" value="&lt;span style=&quot;color: rgb(0, 29, 53); font-family: Arial, sans-serif; text-align: start; background-color: rgb(255, 255, 255);&quot;&gt;Stock_A2=&lt;/span&gt;&lt;span style=&quot;color: rgb(0, 29, 53); font-family: Arial, sans-serif; text-align: start; background-color: rgb(255, 255, 255);&quot;&gt;Stock_A2-1&lt;/span&gt;" style="rounded=0;whiteSpace=wrap;html=1;" vertex="1" parent="WIyWlLk6GJQsqaUBKTNV-1">
          <mxGeometry x="2" y="2677" width="130" height="60" as="geometry" />
        </mxCell>
        <mxCell id="6EujANAd5X0Nz6XeVnfX-420" style="edgeStyle=orthogonalEdgeStyle;rounded=0;orthogonalLoop=1;jettySize=auto;html=1;exitX=0.5;exitY=1;exitDx=0;exitDy=0;entryX=0.5;entryY=0;entryDx=0;entryDy=0;" edge="1" parent="WIyWlLk6GJQsqaUBKTNV-1" source="6EujANAd5X0Nz6XeVnfX-421" target="6EujANAd5X0Nz6XeVnfX-422">
          <mxGeometry relative="1" as="geometry" />
        </mxCell>
        <mxCell id="6EujANAd5X0Nz6XeVnfX-421" value="ส่งสินค้าA3" style="shape=parallelogram;perimeter=parallelogramPerimeter;whiteSpace=wrap;html=1;fixedSize=1;" vertex="1" parent="WIyWlLk6GJQsqaUBKTNV-1">
          <mxGeometry x="-451" y="2728" width="120" height="60" as="geometry" />
        </mxCell>
        <mxCell id="6EujANAd5X0Nz6XeVnfX-456" style="edgeStyle=orthogonalEdgeStyle;rounded=0;orthogonalLoop=1;jettySize=auto;html=1;exitX=0;exitY=0.5;exitDx=0;exitDy=0;entryX=1;entryY=0.5;entryDx=0;entryDy=0;" edge="1" parent="WIyWlLk6GJQsqaUBKTNV-1" source="6EujANAd5X0Nz6XeVnfX-422" target="6EujANAd5X0Nz6XeVnfX-450">
          <mxGeometry relative="1" as="geometry" />
        </mxCell>
        <mxCell id="6EujANAd5X0Nz6XeVnfX-422" value="&lt;span style=&quot;color: rgb(0, 29, 53); font-family: Arial, sans-serif; text-align: start; background-color: rgb(255, 255, 255);&quot;&gt;Stock_A3=&lt;/span&gt;&lt;span style=&quot;color: rgb(0, 29, 53); font-family: Arial, sans-serif; text-align: start; background-color: rgb(255, 255, 255);&quot;&gt;Stock_A3-1&lt;/span&gt;" style="rounded=0;whiteSpace=wrap;html=1;" vertex="1" parent="WIyWlLk6GJQsqaUBKTNV-1">
          <mxGeometry x="-456" y="2808" width="130" height="60" as="geometry" />
        </mxCell>
        <mxCell id="6EujANAd5X0Nz6XeVnfX-423" style="edgeStyle=orthogonalEdgeStyle;rounded=0;orthogonalLoop=1;jettySize=auto;html=1;exitX=0.5;exitY=1;exitDx=0;exitDy=0;entryX=0.5;entryY=0;entryDx=0;entryDy=0;" edge="1" parent="WIyWlLk6GJQsqaUBKTNV-1" source="6EujANAd5X0Nz6XeVnfX-424" target="6EujANAd5X0Nz6XeVnfX-425">
          <mxGeometry relative="1" as="geometry" />
        </mxCell>
        <mxCell id="6EujANAd5X0Nz6XeVnfX-424" value="ส่งสินค้าA4" style="shape=parallelogram;perimeter=parallelogramPerimeter;whiteSpace=wrap;html=1;fixedSize=1;" vertex="1" parent="WIyWlLk6GJQsqaUBKTNV-1">
          <mxGeometry x="7" y="2858" width="120" height="60" as="geometry" />
        </mxCell>
        <mxCell id="6EujANAd5X0Nz6XeVnfX-460" style="edgeStyle=orthogonalEdgeStyle;rounded=0;orthogonalLoop=1;jettySize=auto;html=1;exitX=1;exitY=0.5;exitDx=0;exitDy=0;" edge="1" parent="WIyWlLk6GJQsqaUBKTNV-1" source="6EujANAd5X0Nz6XeVnfX-425" target="6EujANAd5X0Nz6XeVnfX-453">
          <mxGeometry relative="1" as="geometry" />
        </mxCell>
        <mxCell id="6EujANAd5X0Nz6XeVnfX-425" value="&lt;span style=&quot;color: rgb(0, 29, 53); font-family: Arial, sans-serif; text-align: start; background-color: rgb(255, 255, 255);&quot;&gt;Stock_A4=&lt;/span&gt;&lt;span style=&quot;color: rgb(0, 29, 53); font-family: Arial, sans-serif; text-align: start; background-color: rgb(255, 255, 255);&quot;&gt;Stock_A4-1&lt;/span&gt;" style="rounded=0;whiteSpace=wrap;html=1;" vertex="1" parent="WIyWlLk6GJQsqaUBKTNV-1">
          <mxGeometry x="2" y="2938" width="130" height="60" as="geometry" />
        </mxCell>
        <mxCell id="6EujANAd5X0Nz6XeVnfX-426" style="edgeStyle=orthogonalEdgeStyle;rounded=0;orthogonalLoop=1;jettySize=auto;html=1;exitX=0.5;exitY=1;exitDx=0;exitDy=0;entryX=0.5;entryY=0;entryDx=0;entryDy=0;" edge="1" parent="WIyWlLk6GJQsqaUBKTNV-1" source="6EujANAd5X0Nz6XeVnfX-427" target="6EujANAd5X0Nz6XeVnfX-428">
          <mxGeometry relative="1" as="geometry" />
        </mxCell>
        <mxCell id="6EujANAd5X0Nz6XeVnfX-427" value="ส่งสินค้าA5" style="shape=parallelogram;perimeter=parallelogramPerimeter;whiteSpace=wrap;html=1;fixedSize=1;" vertex="1" parent="WIyWlLk6GJQsqaUBKTNV-1">
          <mxGeometry x="-451" y="2993" width="120" height="60" as="geometry" />
        </mxCell>
        <mxCell id="6EujANAd5X0Nz6XeVnfX-457" style="edgeStyle=orthogonalEdgeStyle;rounded=0;orthogonalLoop=1;jettySize=auto;html=1;exitX=0;exitY=0.5;exitDx=0;exitDy=0;entryX=1;entryY=0.5;entryDx=0;entryDy=0;" edge="1" parent="WIyWlLk6GJQsqaUBKTNV-1" source="6EujANAd5X0Nz6XeVnfX-428" target="6EujANAd5X0Nz6XeVnfX-449">
          <mxGeometry relative="1" as="geometry" />
        </mxCell>
        <mxCell id="6EujANAd5X0Nz6XeVnfX-428" value="&lt;span style=&quot;color: rgb(0, 29, 53); font-family: Arial, sans-serif; text-align: start; background-color: rgb(255, 255, 255);&quot;&gt;Stock_A5=&lt;/span&gt;&lt;span style=&quot;color: rgb(0, 29, 53); font-family: Arial, sans-serif; text-align: start; background-color: rgb(255, 255, 255);&quot;&gt;Stock_A5-1&lt;/span&gt;" style="rounded=0;whiteSpace=wrap;html=1;" vertex="1" parent="WIyWlLk6GJQsqaUBKTNV-1">
          <mxGeometry x="-456" y="3073" width="130" height="60" as="geometry" />
        </mxCell>
        <mxCell id="6EujANAd5X0Nz6XeVnfX-429" value="จริง" style="edgeStyle=orthogonalEdgeStyle;rounded=0;orthogonalLoop=1;jettySize=auto;html=1;exitX=1;exitY=0.5;exitDx=0;exitDy=0;" edge="1" parent="WIyWlLk6GJQsqaUBKTNV-1" source="6EujANAd5X0Nz6XeVnfX-430" target="6EujANAd5X0Nz6XeVnfX-432">
          <mxGeometry relative="1" as="geometry" />
        </mxCell>
        <mxCell id="6EujANAd5X0Nz6XeVnfX-443" value="เท็จ" style="edgeStyle=orthogonalEdgeStyle;rounded=0;orthogonalLoop=1;jettySize=auto;html=1;exitX=0.5;exitY=1;exitDx=0;exitDy=0;entryX=0.5;entryY=0;entryDx=0;entryDy=0;" edge="1" parent="WIyWlLk6GJQsqaUBKTNV-1" source="6EujANAd5X0Nz6XeVnfX-430" target="6EujANAd5X0Nz6XeVnfX-436">
          <mxGeometry relative="1" as="geometry" />
        </mxCell>
        <mxCell id="6EujANAd5X0Nz6XeVnfX-430" value="จำนวนสินค้าA6&amp;gt;=1" style="rhombus;whiteSpace=wrap;html=1;" vertex="1" parent="WIyWlLk6GJQsqaUBKTNV-1">
          <mxGeometry x="-209.25" y="3028" width="80" height="80" as="geometry" />
        </mxCell>
        <mxCell id="6EujANAd5X0Nz6XeVnfX-431" style="edgeStyle=orthogonalEdgeStyle;rounded=0;orthogonalLoop=1;jettySize=auto;html=1;exitX=0.5;exitY=1;exitDx=0;exitDy=0;entryX=0.5;entryY=0;entryDx=0;entryDy=0;" edge="1" parent="WIyWlLk6GJQsqaUBKTNV-1" source="6EujANAd5X0Nz6XeVnfX-432">
          <mxGeometry relative="1" as="geometry">
            <mxPoint x="67" y="3120.12" as="targetPoint" />
          </mxGeometry>
        </mxCell>
        <mxCell id="6EujANAd5X0Nz6XeVnfX-432" value="จำนวนสินค้าA6=จำนวนสินค้าA6-1" style="rounded=0;whiteSpace=wrap;html=1;" vertex="1" parent="WIyWlLk6GJQsqaUBKTNV-1">
          <mxGeometry x="-42" y="3040.12" width="218" height="55.75" as="geometry" />
        </mxCell>
        <mxCell id="6EujANAd5X0Nz6XeVnfX-433" value="ส่งสินค้าA6" style="shape=parallelogram;perimeter=parallelogramPerimeter;whiteSpace=wrap;html=1;fixedSize=1;" vertex="1" parent="WIyWlLk6GJQsqaUBKTNV-1">
          <mxGeometry x="7" y="3120.62" width="120" height="60" as="geometry" />
        </mxCell>
        <mxCell id="6EujANAd5X0Nz6XeVnfX-459" style="edgeStyle=orthogonalEdgeStyle;rounded=0;orthogonalLoop=1;jettySize=auto;html=1;exitX=1;exitY=0.5;exitDx=0;exitDy=0;entryX=0;entryY=0.5;entryDx=0;entryDy=0;" edge="1" parent="WIyWlLk6GJQsqaUBKTNV-1" source="6EujANAd5X0Nz6XeVnfX-434" target="6EujANAd5X0Nz6XeVnfX-454">
          <mxGeometry relative="1" as="geometry" />
        </mxCell>
        <mxCell id="6EujANAd5X0Nz6XeVnfX-434" value="&lt;span style=&quot;color: rgb(0, 29, 53); font-family: Arial, sans-serif; text-align: start; background-color: rgb(255, 255, 255);&quot;&gt;Stock_A6=&lt;/span&gt;&lt;span style=&quot;color: rgb(0, 29, 53); font-family: Arial, sans-serif; text-align: start; background-color: rgb(255, 255, 255);&quot;&gt;Stock_A6-1&lt;/span&gt;" style="rounded=0;whiteSpace=wrap;html=1;" vertex="1" parent="WIyWlLk6GJQsqaUBKTNV-1">
          <mxGeometry x="2" y="3200.62" width="130" height="60" as="geometry" />
        </mxCell>
        <mxCell id="6EujANAd5X0Nz6XeVnfX-435" value="จริง" style="edgeStyle=orthogonalEdgeStyle;rounded=0;orthogonalLoop=1;jettySize=auto;html=1;exitX=0;exitY=0.5;exitDx=0;exitDy=0;entryX=1;entryY=0.5;entryDx=0;entryDy=0;" edge="1" parent="WIyWlLk6GJQsqaUBKTNV-1" source="6EujANAd5X0Nz6XeVnfX-436" target="6EujANAd5X0Nz6XeVnfX-438">
          <mxGeometry relative="1" as="geometry" />
        </mxCell>
        <mxCell id="6EujANAd5X0Nz6XeVnfX-446" style="edgeStyle=orthogonalEdgeStyle;rounded=0;orthogonalLoop=1;jettySize=auto;html=1;exitX=0.5;exitY=1;exitDx=0;exitDy=0;entryX=0.5;entryY=0;entryDx=0;entryDy=0;" edge="1" parent="WIyWlLk6GJQsqaUBKTNV-1" source="6EujANAd5X0Nz6XeVnfX-436" target="6EujANAd5X0Nz6XeVnfX-445">
          <mxGeometry relative="1" as="geometry" />
        </mxCell>
        <mxCell id="6EujANAd5X0Nz6XeVnfX-436" value="จำนวนสินค้าA7&amp;gt;=1" style="rhombus;whiteSpace=wrap;html=1;" vertex="1" parent="WIyWlLk6GJQsqaUBKTNV-1">
          <mxGeometry x="-209.25" y="3158" width="80" height="80" as="geometry" />
        </mxCell>
        <mxCell id="6EujANAd5X0Nz6XeVnfX-437" style="edgeStyle=orthogonalEdgeStyle;rounded=0;orthogonalLoop=1;jettySize=auto;html=1;exitX=0.5;exitY=1;exitDx=0;exitDy=0;entryX=0.5;entryY=0;entryDx=0;entryDy=0;" edge="1" parent="WIyWlLk6GJQsqaUBKTNV-1" source="6EujANAd5X0Nz6XeVnfX-438">
          <mxGeometry relative="1" as="geometry">
            <mxPoint x="-391" y="3250.1299999999997" as="targetPoint" />
          </mxGeometry>
        </mxCell>
        <mxCell id="6EujANAd5X0Nz6XeVnfX-438" value="จำนวนสินค้าA7=จำนวนสินค้าA7-1" style="rounded=0;whiteSpace=wrap;html=1;" vertex="1" parent="WIyWlLk6GJQsqaUBKTNV-1">
          <mxGeometry x="-500" y="3170.13" width="218" height="55.75" as="geometry" />
        </mxCell>
        <mxCell id="6EujANAd5X0Nz6XeVnfX-439" style="edgeStyle=orthogonalEdgeStyle;rounded=0;orthogonalLoop=1;jettySize=auto;html=1;exitX=0.5;exitY=1;exitDx=0;exitDy=0;entryX=0.5;entryY=0;entryDx=0;entryDy=0;" edge="1" parent="WIyWlLk6GJQsqaUBKTNV-1" source="6EujANAd5X0Nz6XeVnfX-440" target="6EujANAd5X0Nz6XeVnfX-441">
          <mxGeometry relative="1" as="geometry" />
        </mxCell>
        <mxCell id="6EujANAd5X0Nz6XeVnfX-440" value="ส่งสินค้าA7" style="shape=parallelogram;perimeter=parallelogramPerimeter;whiteSpace=wrap;html=1;fixedSize=1;" vertex="1" parent="WIyWlLk6GJQsqaUBKTNV-1">
          <mxGeometry x="-451" y="3251.5" width="120" height="60" as="geometry" />
        </mxCell>
        <mxCell id="6EujANAd5X0Nz6XeVnfX-458" style="edgeStyle=orthogonalEdgeStyle;rounded=0;orthogonalLoop=1;jettySize=auto;html=1;exitX=0;exitY=0.5;exitDx=0;exitDy=0;entryX=1;entryY=0.5;entryDx=0;entryDy=0;" edge="1" parent="WIyWlLk6GJQsqaUBKTNV-1" source="6EujANAd5X0Nz6XeVnfX-441" target="6EujANAd5X0Nz6XeVnfX-448">
          <mxGeometry relative="1" as="geometry" />
        </mxCell>
        <mxCell id="6EujANAd5X0Nz6XeVnfX-441" value="&lt;span style=&quot;color: rgb(0, 29, 53); font-family: Arial, sans-serif; text-align: start; background-color: rgb(255, 255, 255);&quot;&gt;Stock_A7=&lt;/span&gt;&lt;span style=&quot;color: rgb(0, 29, 53); font-family: Arial, sans-serif; text-align: start; background-color: rgb(255, 255, 255);&quot;&gt;Stock_A7-1&lt;/span&gt;" style="rounded=0;whiteSpace=wrap;html=1;" vertex="1" parent="WIyWlLk6GJQsqaUBKTNV-1">
          <mxGeometry x="-456" y="3331.5" width="130" height="60" as="geometry" />
        </mxCell>
        <mxCell id="6EujANAd5X0Nz6XeVnfX-444" value="จบ" style="ellipse;whiteSpace=wrap;html=1;" vertex="1" parent="WIyWlLk6GJQsqaUBKTNV-1">
          <mxGeometry x="-229.13" y="3519" width="120" height="50" as="geometry" />
        </mxCell>
        <mxCell id="6EujANAd5X0Nz6XeVnfX-469" style="edgeStyle=orthogonalEdgeStyle;rounded=0;orthogonalLoop=1;jettySize=auto;html=1;exitX=0.5;exitY=1;exitDx=0;exitDy=0;" edge="1" parent="WIyWlLk6GJQsqaUBKTNV-1" source="6EujANAd5X0Nz6XeVnfX-445" target="6EujANAd5X0Nz6XeVnfX-444">
          <mxGeometry relative="1" as="geometry" />
        </mxCell>
        <mxCell id="6EujANAd5X0Nz6XeVnfX-445" value="" style="ellipse;whiteSpace=wrap;html=1;aspect=fixed;" vertex="1" parent="WIyWlLk6GJQsqaUBKTNV-1">
          <mxGeometry x="-184.13" y="3459" width="30" height="30" as="geometry" />
        </mxCell>
        <mxCell id="6EujANAd5X0Nz6XeVnfX-465" style="edgeStyle=orthogonalEdgeStyle;rounded=0;orthogonalLoop=1;jettySize=auto;html=1;exitX=0.5;exitY=1;exitDx=0;exitDy=0;entryX=0;entryY=0.5;entryDx=0;entryDy=0;" edge="1" parent="WIyWlLk6GJQsqaUBKTNV-1" source="6EujANAd5X0Nz6XeVnfX-448" target="6EujANAd5X0Nz6XeVnfX-445">
          <mxGeometry relative="1" as="geometry" />
        </mxCell>
        <mxCell id="6EujANAd5X0Nz6XeVnfX-448" value="" style="ellipse;whiteSpace=wrap;html=1;aspect=fixed;" vertex="1" parent="WIyWlLk6GJQsqaUBKTNV-1">
          <mxGeometry x="-570" y="3346.5" width="30" height="30" as="geometry" />
        </mxCell>
        <mxCell id="6EujANAd5X0Nz6XeVnfX-466" style="edgeStyle=orthogonalEdgeStyle;rounded=0;orthogonalLoop=1;jettySize=auto;html=1;exitX=0.5;exitY=1;exitDx=0;exitDy=0;entryX=0.5;entryY=0;entryDx=0;entryDy=0;" edge="1" parent="WIyWlLk6GJQsqaUBKTNV-1" source="6EujANAd5X0Nz6XeVnfX-449" target="6EujANAd5X0Nz6XeVnfX-448">
          <mxGeometry relative="1" as="geometry" />
        </mxCell>
        <mxCell id="6EujANAd5X0Nz6XeVnfX-449" value="" style="ellipse;whiteSpace=wrap;html=1;aspect=fixed;" vertex="1" parent="WIyWlLk6GJQsqaUBKTNV-1">
          <mxGeometry x="-570" y="3088" width="30" height="30" as="geometry" />
        </mxCell>
        <mxCell id="6EujANAd5X0Nz6XeVnfX-467" style="edgeStyle=orthogonalEdgeStyle;rounded=0;orthogonalLoop=1;jettySize=auto;html=1;exitX=0.5;exitY=1;exitDx=0;exitDy=0;entryX=0.5;entryY=0;entryDx=0;entryDy=0;" edge="1" parent="WIyWlLk6GJQsqaUBKTNV-1" source="6EujANAd5X0Nz6XeVnfX-450" target="6EujANAd5X0Nz6XeVnfX-449">
          <mxGeometry relative="1" as="geometry" />
        </mxCell>
        <mxCell id="6EujANAd5X0Nz6XeVnfX-450" value="" style="ellipse;whiteSpace=wrap;html=1;aspect=fixed;" vertex="1" parent="WIyWlLk6GJQsqaUBKTNV-1">
          <mxGeometry x="-570" y="2823" width="30" height="30" as="geometry" />
        </mxCell>
        <mxCell id="6EujANAd5X0Nz6XeVnfX-468" style="edgeStyle=orthogonalEdgeStyle;rounded=0;orthogonalLoop=1;jettySize=auto;html=1;exitX=0.5;exitY=1;exitDx=0;exitDy=0;entryX=0.5;entryY=0;entryDx=0;entryDy=0;" edge="1" parent="WIyWlLk6GJQsqaUBKTNV-1" source="6EujANAd5X0Nz6XeVnfX-451" target="6EujANAd5X0Nz6XeVnfX-450">
          <mxGeometry relative="1" as="geometry" />
        </mxCell>
        <mxCell id="6EujANAd5X0Nz6XeVnfX-451" value="" style="ellipse;whiteSpace=wrap;html=1;aspect=fixed;" vertex="1" parent="WIyWlLk6GJQsqaUBKTNV-1">
          <mxGeometry x="-570" y="2576.5" width="30" height="30" as="geometry" />
        </mxCell>
        <mxCell id="6EujANAd5X0Nz6XeVnfX-462" style="edgeStyle=orthogonalEdgeStyle;rounded=0;orthogonalLoop=1;jettySize=auto;html=1;exitX=0.5;exitY=1;exitDx=0;exitDy=0;entryX=0.5;entryY=0;entryDx=0;entryDy=0;" edge="1" parent="WIyWlLk6GJQsqaUBKTNV-1" source="6EujANAd5X0Nz6XeVnfX-452" target="6EujANAd5X0Nz6XeVnfX-453">
          <mxGeometry relative="1" as="geometry" />
        </mxCell>
        <mxCell id="6EujANAd5X0Nz6XeVnfX-452" value="" style="ellipse;whiteSpace=wrap;html=1;aspect=fixed;" vertex="1" parent="WIyWlLk6GJQsqaUBKTNV-1">
          <mxGeometry x="200" y="2692" width="30" height="30" as="geometry" />
        </mxCell>
        <mxCell id="6EujANAd5X0Nz6XeVnfX-463" style="edgeStyle=orthogonalEdgeStyle;rounded=0;orthogonalLoop=1;jettySize=auto;html=1;exitX=0.5;exitY=1;exitDx=0;exitDy=0;entryX=0.5;entryY=0;entryDx=0;entryDy=0;" edge="1" parent="WIyWlLk6GJQsqaUBKTNV-1" source="6EujANAd5X0Nz6XeVnfX-453" target="6EujANAd5X0Nz6XeVnfX-454">
          <mxGeometry relative="1" as="geometry" />
        </mxCell>
        <mxCell id="6EujANAd5X0Nz6XeVnfX-453" value="" style="ellipse;whiteSpace=wrap;html=1;aspect=fixed;" vertex="1" parent="WIyWlLk6GJQsqaUBKTNV-1">
          <mxGeometry x="200" y="2953" width="30" height="30" as="geometry" />
        </mxCell>
        <mxCell id="6EujANAd5X0Nz6XeVnfX-464" style="edgeStyle=orthogonalEdgeStyle;rounded=0;orthogonalLoop=1;jettySize=auto;html=1;exitX=0.5;exitY=1;exitDx=0;exitDy=0;entryX=1;entryY=0.5;entryDx=0;entryDy=0;" edge="1" parent="WIyWlLk6GJQsqaUBKTNV-1" source="6EujANAd5X0Nz6XeVnfX-454" target="6EujANAd5X0Nz6XeVnfX-445">
          <mxGeometry relative="1" as="geometry" />
        </mxCell>
        <mxCell id="6EujANAd5X0Nz6XeVnfX-454" value="" style="ellipse;whiteSpace=wrap;html=1;aspect=fixed;" vertex="1" parent="WIyWlLk6GJQsqaUBKTNV-1">
          <mxGeometry x="200" y="3215.62" width="30" height="30" as="geometry" />
        </mxCell>
        <mxCell id="6EujANAd5X0Nz6XeVnfX-471" style="edgeStyle=orthogonalEdgeStyle;rounded=0;orthogonalLoop=1;jettySize=auto;html=1;exitX=0.5;exitY=0;exitDx=0;exitDy=0;entryX=1;entryY=0.5;entryDx=0;entryDy=0;" edge="1" parent="WIyWlLk6GJQsqaUBKTNV-1" source="6EujANAd5X0Nz6XeVnfX-470" target="6EujANAd5X0Nz6XeVnfX-31">
          <mxGeometry relative="1" as="geometry" />
        </mxCell>
        <mxCell id="6EujANAd5X0Nz6XeVnfX-470" value="" style="swimlane;startSize=0;" vertex="1" parent="WIyWlLk6GJQsqaUBKTNV-1">
          <mxGeometry x="-600" y="2199" width="840" height="1401" as="geometry" />
        </mxCell>
        <mxCell id="6EujANAd5X0Nz6XeVnfX-473" value="" style="endArrow=classic;html=1;rounded=0;exitX=0.5;exitY=1;exitDx=0;exitDy=0;entryX=0;entryY=0.5;entryDx=0;entryDy=0;" edge="1" parent="WIyWlLk6GJQsqaUBKTNV-1" source="6EujANAd5X0Nz6XeVnfX-160" target="6EujANAd5X0Nz6XeVnfX-62">
          <mxGeometry width="50" height="50" relative="1" as="geometry">
            <mxPoint x="-1440" y="2990" as="sourcePoint" />
            <mxPoint x="-1320" y="3170" as="targetPoint" />
            <Array as="points">
              <mxPoint x="-1570" y="3065" />
            </Array>
          </mxGeometry>
        </mxCell>
        <mxCell id="6EujANAd5X0Nz6XeVnfX-474" value="" style="endArrow=classic;html=1;rounded=0;exitX=0.5;exitY=1;exitDx=0;exitDy=0;entryX=1;entryY=0.5;entryDx=0;entryDy=0;" edge="1" parent="WIyWlLk6GJQsqaUBKTNV-1" source="6EujANAd5X0Nz6XeVnfX-162" target="6EujANAd5X0Nz6XeVnfX-62">
          <mxGeometry width="50" height="50" relative="1" as="geometry">
            <mxPoint x="-1240" y="2940" as="sourcePoint" />
            <mxPoint x="-1190" y="2890" as="targetPoint" />
            <Array as="points">
              <mxPoint x="-881" y="3065" />
            </Array>
          </mxGeometry>
        </mxCell>
        <mxCell id="6EujANAd5X0Nz6XeVnfX-478" style="edgeStyle=orthogonalEdgeStyle;rounded=0;orthogonalLoop=1;jettySize=auto;html=1;exitX=0.5;exitY=1;exitDx=0;exitDy=0;entryX=0.5;entryY=0;entryDx=0;entryDy=0;" edge="1" parent="WIyWlLk6GJQsqaUBKTNV-1" source="6EujANAd5X0Nz6XeVnfX-476" target="6EujANAd5X0Nz6XeVnfX-29">
          <mxGeometry relative="1" as="geometry" />
        </mxCell>
        <mxCell id="6EujANAd5X0Nz6XeVnfX-476" value="ทอนเงิน" style="shape=parallelogram;perimeter=parallelogramPerimeter;whiteSpace=wrap;html=1;fixedSize=1;" vertex="1" parent="WIyWlLk6GJQsqaUBKTNV-1">
          <mxGeometry x="-460" y="1981" width="120" height="60" as="geometry" />
        </mxCell>
      </root>
    </mxGraphModel>
  </diagram>
</mxfile>
